%TF.GenerationSoftware,KiCad,Pcbnew,(5.1.9)-1*%
%TF.CreationDate,2022-02-08T11:22:36-08:00*%
%TF.ProjectId,controller_board,636f6e74-726f-46c6-9c65-725f626f6172,rev?*%
%TF.SameCoordinates,Original*%
%TF.FileFunction,Soldermask,Top*%
%TF.FilePolarity,Negative*%
%FSLAX46Y46*%
G04 Gerber Fmt 4.6, Leading zero omitted, Abs format (unit mm)*
G04 Created by KiCad (PCBNEW (5.1.9)-1) date 2022-02-08 11:22:36*
%MOMM*%
%LPD*%
G01*
G04 APERTURE LIST*
%ADD10O,1.800000X1.800000*%
%ADD11R,1.800000X1.800000*%
%ADD12C,2.700000*%
%ADD13O,1.700000X1.700000*%
%ADD14R,1.700000X1.700000*%
%ADD15C,3.600000*%
%ADD16R,3.200000X3.200000*%
%ADD17O,3.200000X3.200000*%
%ADD18R,2.400000X2.400000*%
%ADD19C,2.400000*%
%ADD20C,1.600000*%
%ADD21C,1.200000*%
%ADD22R,1.200000X1.200000*%
%ADD23C,2.600000*%
%ADD24R,2.600000X2.600000*%
G04 APERTURE END LIST*
D10*
%TO.C,U2*%
X66390000Y-71130000D03*
X63850000Y-71130000D03*
X61310000Y-71130000D03*
X65120000Y-76230000D03*
X62580000Y-76230000D03*
D11*
X60040000Y-76230000D03*
D10*
X67660000Y-76230000D03*
%TD*%
%TO.C,U1*%
X120450000Y-72180000D03*
X117910000Y-72180000D03*
X115370000Y-72180000D03*
X119180000Y-77280000D03*
X116640000Y-77280000D03*
D11*
X114100000Y-77280000D03*
D10*
X121720000Y-77280000D03*
%TD*%
D12*
%TO.C,J1*%
X144550000Y-185450000D03*
X144550000Y-127450000D03*
X95550000Y-185450000D03*
X95550000Y-127450000D03*
D13*
X94280000Y-160290000D03*
X96820000Y-165370000D03*
X96820000Y-150130000D03*
X96820000Y-175530000D03*
X96820000Y-137430000D03*
X94280000Y-172990000D03*
X94280000Y-175530000D03*
X94280000Y-155210000D03*
X96820000Y-162830000D03*
X96820000Y-142510000D03*
X94280000Y-134890000D03*
X94280000Y-150130000D03*
X96820000Y-145050000D03*
X94280000Y-167910000D03*
X94280000Y-165370000D03*
X96820000Y-152670000D03*
X94280000Y-170450000D03*
X94280000Y-132350000D03*
X96820000Y-147590000D03*
X94280000Y-157750000D03*
X96820000Y-134890000D03*
X94280000Y-145050000D03*
X96820000Y-170450000D03*
X96820000Y-157750000D03*
X94280000Y-152670000D03*
X96820000Y-155210000D03*
X96820000Y-167910000D03*
X96820000Y-139970000D03*
X94280000Y-180610000D03*
X96820000Y-178070000D03*
X94280000Y-142510000D03*
X96820000Y-172990000D03*
X94280000Y-162830000D03*
X96820000Y-180610000D03*
X94280000Y-178070000D03*
X94280000Y-139970000D03*
X94280000Y-147590000D03*
D14*
X96820000Y-132350000D03*
D13*
X94280000Y-137430000D03*
X96820000Y-160290000D03*
%TD*%
%TO.C,U3*%
X52075000Y-145725000D03*
X74935000Y-145725000D03*
X54615000Y-145725000D03*
X57155000Y-145725000D03*
X72395000Y-145725000D03*
D14*
X46995000Y-145725000D03*
D13*
X64775000Y-145725000D03*
X62235000Y-145725000D03*
X59695000Y-145725000D03*
X69855000Y-145725000D03*
X67315000Y-145725000D03*
X49535000Y-145725000D03*
X77870000Y-160950000D03*
X77870000Y-183810000D03*
X77870000Y-163490000D03*
X77870000Y-166030000D03*
X77870000Y-181270000D03*
D14*
X77870000Y-155870000D03*
D13*
X77870000Y-173650000D03*
X77870000Y-171110000D03*
X77870000Y-168570000D03*
X77870000Y-178730000D03*
X77870000Y-176190000D03*
X77870000Y-158410000D03*
%TD*%
D15*
%TO.C,L1*%
X139840000Y-98080000D03*
X125630000Y-98080000D03*
%TD*%
%TO.C,L2*%
X85780000Y-97030000D03*
X71570000Y-97030000D03*
%TD*%
D12*
%TO.C,H3*%
X144250000Y-64350000D03*
%TD*%
D13*
%TO.C,J5*%
X40750000Y-124770000D03*
X40750000Y-127310000D03*
D14*
X40750000Y-129850000D03*
%TD*%
D16*
%TO.C,D1*%
X109420000Y-84990000D03*
D17*
X109420000Y-97690000D03*
%TD*%
D18*
%TO.C,C1*%
X102580000Y-70350000D03*
D19*
X102580000Y-75350000D03*
%TD*%
D20*
%TO.C,C2*%
X117900000Y-84140000D03*
X117900000Y-86640000D03*
%TD*%
D18*
%TO.C,C6*%
X133490000Y-69930000D03*
D19*
X133490000Y-74930000D03*
%TD*%
D12*
%TO.C,H4*%
X35250000Y-64350000D03*
%TD*%
%TO.C,H2*%
X35250000Y-185350000D03*
%TD*%
D17*
%TO.C,D2*%
X55360000Y-96640000D03*
D16*
X55360000Y-83940000D03*
%TD*%
D19*
%TO.C,C7*%
X79750000Y-69850000D03*
D18*
X79750000Y-74850000D03*
%TD*%
D20*
%TO.C,C4*%
X63840000Y-85590000D03*
X63840000Y-83090000D03*
%TD*%
D19*
%TO.C,C3*%
X48520000Y-74760000D03*
D18*
X48520000Y-69760000D03*
%TD*%
D21*
%TO.C,C5*%
X46000000Y-98350000D03*
D22*
X47500000Y-98350000D03*
%TD*%
D23*
%TO.C,J4*%
X51750000Y-113050000D03*
X48750000Y-108350000D03*
D24*
X54750000Y-108350000D03*
%TD*%
M02*
