%TF.GenerationSoftware,KiCad,Pcbnew,(5.1.9)-1*%
%TF.CreationDate,2022-02-08T11:22:36-08:00*%
%TF.ProjectId,controller_board,636f6e74-726f-46c6-9c65-725f626f6172,rev?*%
%TF.SameCoordinates,Original*%
%TF.FileFunction,Legend,Top*%
%TF.FilePolarity,Positive*%
%FSLAX46Y46*%
G04 Gerber Fmt 4.6, Leading zero omitted, Abs format (unit mm)*
G04 Created by KiCad (PCBNEW (5.1.9)-1) date 2022-02-08 11:22:36*
%MOMM*%
%LPD*%
G01*
G04 APERTURE LIST*
%ADD10C,0.150000*%
%ADD11C,0.200000*%
%ADD12C,0.120000*%
G04 APERTURE END LIST*
D10*
X44357142Y-123700000D02*
X44261904Y-123652380D01*
X44119047Y-123652380D01*
X43976190Y-123700000D01*
X43880952Y-123795238D01*
X43833333Y-123890476D01*
X43785714Y-124080952D01*
X43785714Y-124223809D01*
X43833333Y-124414285D01*
X43880952Y-124509523D01*
X43976190Y-124604761D01*
X44119047Y-124652380D01*
X44214285Y-124652380D01*
X44357142Y-124604761D01*
X44404761Y-124557142D01*
X44404761Y-124223809D01*
X44214285Y-124223809D01*
X44833333Y-123985714D02*
X44833333Y-124652380D01*
X44833333Y-124080952D02*
X44880952Y-124033333D01*
X44976190Y-123985714D01*
X45119047Y-123985714D01*
X45214285Y-124033333D01*
X45261904Y-124128571D01*
X45261904Y-124652380D01*
X46166666Y-124652380D02*
X46166666Y-123652380D01*
X46166666Y-124604761D02*
X46071428Y-124652380D01*
X45880952Y-124652380D01*
X45785714Y-124604761D01*
X45738095Y-124557142D01*
X45690476Y-124461904D01*
X45690476Y-124176190D01*
X45738095Y-124080952D01*
X45785714Y-124033333D01*
X45880952Y-123985714D01*
X46071428Y-123985714D01*
X46166666Y-124033333D01*
X44809523Y-126952380D02*
X44333333Y-126952380D01*
X44285714Y-127428571D01*
X44333333Y-127380952D01*
X44428571Y-127333333D01*
X44666666Y-127333333D01*
X44761904Y-127380952D01*
X44809523Y-127428571D01*
X44857142Y-127523809D01*
X44857142Y-127761904D01*
X44809523Y-127857142D01*
X44761904Y-127904761D01*
X44666666Y-127952380D01*
X44428571Y-127952380D01*
X44333333Y-127904761D01*
X44285714Y-127857142D01*
X45142857Y-126952380D02*
X45476190Y-127952380D01*
X45809523Y-126952380D01*
X43595238Y-131252380D02*
X43595238Y-130252380D01*
X43976190Y-130252380D01*
X44071428Y-130300000D01*
X44119047Y-130347619D01*
X44166666Y-130442857D01*
X44166666Y-130585714D01*
X44119047Y-130680952D01*
X44071428Y-130728571D01*
X43976190Y-130776190D01*
X43595238Y-130776190D01*
X44500000Y-130252380D02*
X44738095Y-131252380D01*
X44928571Y-130538095D01*
X45119047Y-131252380D01*
X45357142Y-130252380D01*
X45738095Y-131252380D02*
X45738095Y-130252380D01*
X46071428Y-130966666D01*
X46404761Y-130252380D01*
X46404761Y-131252380D01*
D11*
X41000000Y-116678571D02*
X41285714Y-116678571D01*
X41428571Y-116607142D01*
X41500000Y-116535714D01*
X41642857Y-116321428D01*
X41714285Y-116035714D01*
X41714285Y-115464285D01*
X41642857Y-115321428D01*
X41571428Y-115250000D01*
X41428571Y-115178571D01*
X41142857Y-115178571D01*
X41000000Y-115250000D01*
X40928571Y-115321428D01*
X40857142Y-115464285D01*
X40857142Y-115821428D01*
X40928571Y-115964285D01*
X41000000Y-116035714D01*
X41142857Y-116107142D01*
X41428571Y-116107142D01*
X41571428Y-116035714D01*
X41642857Y-115964285D01*
X41714285Y-115821428D01*
X42142857Y-115178571D02*
X42642857Y-116678571D01*
X43142857Y-115178571D01*
X44785714Y-116678571D02*
X44785714Y-115178571D01*
X45142857Y-115178571D01*
X45357142Y-115250000D01*
X45500000Y-115392857D01*
X45571428Y-115535714D01*
X45642857Y-115821428D01*
X45642857Y-116035714D01*
X45571428Y-116321428D01*
X45500000Y-116464285D01*
X45357142Y-116607142D01*
X45142857Y-116678571D01*
X44785714Y-116678571D01*
X47142857Y-116535714D02*
X47071428Y-116607142D01*
X46857142Y-116678571D01*
X46714285Y-116678571D01*
X46500000Y-116607142D01*
X46357142Y-116464285D01*
X46285714Y-116321428D01*
X46214285Y-116035714D01*
X46214285Y-115821428D01*
X46285714Y-115535714D01*
X46357142Y-115392857D01*
X46500000Y-115250000D01*
X46714285Y-115178571D01*
X46857142Y-115178571D01*
X47071428Y-115250000D01*
X47142857Y-115321428D01*
D12*
%TO.C,J1*%
X91910000Y-188940000D02*
X91910000Y-123940000D01*
X147910000Y-188940000D02*
X91910000Y-188940000D01*
X147910000Y-123940000D02*
X147910000Y-188940000D01*
X91910000Y-123940000D02*
X147910000Y-123940000D01*
X98150000Y-181940000D02*
X92950000Y-181940000D01*
X98150000Y-133620000D02*
X98150000Y-181940000D01*
X95550000Y-131020000D02*
X92950000Y-131020000D01*
X95550000Y-133620000D02*
X95550000Y-131020000D01*
X98150000Y-133620000D02*
X95550000Y-133620000D01*
X98150000Y-132350000D02*
X98150000Y-131020000D01*
X98150000Y-131020000D02*
X96820000Y-131020000D01*
X92950000Y-131020000D02*
X92950000Y-181940000D01*
%TO.C,U3*%
X45665000Y-145725000D02*
X45665000Y-144395000D01*
X48265000Y-144395000D02*
X76265000Y-144395000D01*
X45665000Y-144395000D02*
X46995000Y-144395000D01*
X48265000Y-147055000D02*
X48265000Y-144395000D01*
X48265000Y-147055000D02*
X76265000Y-147055000D01*
X76265000Y-147055000D02*
X76265000Y-144395000D01*
X77870000Y-154540000D02*
X79200000Y-154540000D01*
X79200000Y-157140000D02*
X79200000Y-185140000D01*
X79200000Y-154540000D02*
X79200000Y-155870000D01*
X76540000Y-157140000D02*
X79200000Y-157140000D01*
X76540000Y-157140000D02*
X76540000Y-185140000D01*
X76540000Y-185140000D02*
X79200000Y-185140000D01*
D11*
X79720000Y-187600000D02*
X79720000Y-136300000D01*
X79720000Y-136300000D02*
X45420000Y-136300000D01*
X45420000Y-136300000D02*
X45420000Y-187600000D01*
X45420000Y-187600000D02*
X79720000Y-187600000D01*
D12*
%TO.C,L1*%
X123120000Y-80900000D02*
X123080000Y-114440000D01*
X142460000Y-80900000D02*
X123120000Y-80900000D01*
X142460000Y-80900000D02*
X142420000Y-114440000D01*
X142420000Y-114440000D02*
X123080000Y-114440000D01*
%TO.C,L2*%
X69060000Y-79850000D02*
X69020000Y-113390000D01*
X88400000Y-79850000D02*
X69060000Y-79850000D01*
X88400000Y-79850000D02*
X88360000Y-113390000D01*
X88360000Y-113390000D02*
X69020000Y-113390000D01*
%TO.C,J5*%
X40750000Y-131180000D02*
X39420000Y-131180000D01*
X39420000Y-131180000D02*
X39420000Y-129850000D01*
X39420000Y-128580000D02*
X39420000Y-123440000D01*
X42080000Y-123440000D02*
X39420000Y-123440000D01*
X42080000Y-128580000D02*
X42080000Y-123440000D01*
X42080000Y-128580000D02*
X39420000Y-128580000D01*
%TO.C,D1*%
X112140000Y-87895000D02*
X106700000Y-87895000D01*
X112140000Y-88135000D02*
X106700000Y-88135000D01*
X112140000Y-88015000D02*
X106700000Y-88015000D01*
X106700000Y-96210000D02*
X107580000Y-96210000D01*
X106700000Y-86470000D02*
X106700000Y-96210000D01*
X107580000Y-86470000D02*
X106700000Y-86470000D01*
X112140000Y-96210000D02*
X111260000Y-96210000D01*
X112140000Y-86470000D02*
X112140000Y-96210000D01*
X111260000Y-86470000D02*
X112140000Y-86470000D01*
%TO.C,C1*%
X106780000Y-66657918D02*
X105530000Y-66657918D01*
X106155000Y-66032918D02*
X106155000Y-67282918D01*
X102897000Y-79211000D02*
X102263000Y-79211000D01*
X103337000Y-79171000D02*
X101823000Y-79171000D01*
X103608000Y-79131000D02*
X101552000Y-79131000D01*
X103821000Y-79091000D02*
X101339000Y-79091000D01*
X104002000Y-79051000D02*
X101158000Y-79051000D01*
X104163000Y-79011000D02*
X100997000Y-79011000D01*
X104308000Y-78971000D02*
X100852000Y-78971000D01*
X104441000Y-78931000D02*
X100719000Y-78931000D01*
X104564000Y-78891000D02*
X100596000Y-78891000D01*
X104680000Y-78851000D02*
X100480000Y-78851000D01*
X104789000Y-78811000D02*
X100371000Y-78811000D01*
X104892000Y-78771000D02*
X100268000Y-78771000D01*
X104990000Y-78731000D02*
X100170000Y-78731000D01*
X105084000Y-78691000D02*
X100076000Y-78691000D01*
X105174000Y-78651000D02*
X99986000Y-78651000D01*
X105261000Y-78611000D02*
X99899000Y-78611000D01*
X105344000Y-78571000D02*
X99816000Y-78571000D01*
X105424000Y-78531000D02*
X99736000Y-78531000D01*
X105501000Y-78491000D02*
X99659000Y-78491000D01*
X105576000Y-78451000D02*
X99584000Y-78451000D01*
X105649000Y-78411000D02*
X99511000Y-78411000D01*
X105720000Y-78371000D02*
X99440000Y-78371000D01*
X105788000Y-78331000D02*
X99372000Y-78331000D01*
X105855000Y-78291000D02*
X99305000Y-78291000D01*
X105919000Y-78251000D02*
X99241000Y-78251000D01*
X105982000Y-78211000D02*
X99178000Y-78211000D01*
X106044000Y-78171000D02*
X99116000Y-78171000D01*
X106104000Y-78131000D02*
X99056000Y-78131000D01*
X106163000Y-78091000D02*
X98997000Y-78091000D01*
X106220000Y-78051000D02*
X98940000Y-78051000D01*
X106276000Y-78011000D02*
X98884000Y-78011000D01*
X106330000Y-77971000D02*
X98830000Y-77971000D01*
X106384000Y-77931000D02*
X98776000Y-77931000D01*
X106436000Y-77891000D02*
X98724000Y-77891000D01*
X106487000Y-77851000D02*
X98673000Y-77851000D01*
X106537000Y-77811000D02*
X98623000Y-77811000D01*
X106587000Y-77771000D02*
X98573000Y-77771000D01*
X106635000Y-77731000D02*
X98525000Y-77731000D01*
X106682000Y-77691000D02*
X98478000Y-77691000D01*
X106728000Y-77651000D02*
X98432000Y-77651000D01*
X106774000Y-77611000D02*
X98386000Y-77611000D01*
X106818000Y-77571000D02*
X98342000Y-77571000D01*
X106862000Y-77531000D02*
X98298000Y-77531000D01*
X106905000Y-77491000D02*
X98255000Y-77491000D01*
X106947000Y-77451000D02*
X98213000Y-77451000D01*
X106988000Y-77411000D02*
X98172000Y-77411000D01*
X107029000Y-77371000D02*
X98131000Y-77371000D01*
X107069000Y-77331000D02*
X98091000Y-77331000D01*
X107108000Y-77291000D02*
X98052000Y-77291000D01*
X107147000Y-77251000D02*
X98013000Y-77251000D01*
X107185000Y-77211000D02*
X97975000Y-77211000D01*
X107222000Y-77171000D02*
X97938000Y-77171000D01*
X107258000Y-77131000D02*
X97902000Y-77131000D01*
X107294000Y-77091000D02*
X97866000Y-77091000D01*
X107330000Y-77051000D02*
X97830000Y-77051000D01*
X107365000Y-77011000D02*
X97795000Y-77011000D01*
X107399000Y-76971000D02*
X97761000Y-76971000D01*
X107432000Y-76931000D02*
X97728000Y-76931000D01*
X107465000Y-76891000D02*
X97695000Y-76891000D01*
X107498000Y-76851000D02*
X97662000Y-76851000D01*
X107530000Y-76811000D02*
X97630000Y-76811000D01*
X101140000Y-76771000D02*
X97598000Y-76771000D01*
X107562000Y-76771000D02*
X104020000Y-76771000D01*
X101140000Y-76731000D02*
X97568000Y-76731000D01*
X107592000Y-76731000D02*
X104020000Y-76731000D01*
X101140000Y-76691000D02*
X97537000Y-76691000D01*
X107623000Y-76691000D02*
X104020000Y-76691000D01*
X101140000Y-76651000D02*
X97507000Y-76651000D01*
X107653000Y-76651000D02*
X104020000Y-76651000D01*
X101140000Y-76611000D02*
X97478000Y-76611000D01*
X107682000Y-76611000D02*
X104020000Y-76611000D01*
X101140000Y-76571000D02*
X97449000Y-76571000D01*
X107711000Y-76571000D02*
X104020000Y-76571000D01*
X101140000Y-76531000D02*
X97420000Y-76531000D01*
X107740000Y-76531000D02*
X104020000Y-76531000D01*
X101140000Y-76491000D02*
X97392000Y-76491000D01*
X107768000Y-76491000D02*
X104020000Y-76491000D01*
X101140000Y-76451000D02*
X97364000Y-76451000D01*
X107796000Y-76451000D02*
X104020000Y-76451000D01*
X101140000Y-76411000D02*
X97337000Y-76411000D01*
X107823000Y-76411000D02*
X104020000Y-76411000D01*
X101140000Y-76371000D02*
X97310000Y-76371000D01*
X107850000Y-76371000D02*
X104020000Y-76371000D01*
X101140000Y-76331000D02*
X97284000Y-76331000D01*
X107876000Y-76331000D02*
X104020000Y-76331000D01*
X101140000Y-76291000D02*
X97258000Y-76291000D01*
X107902000Y-76291000D02*
X104020000Y-76291000D01*
X101140000Y-76251000D02*
X97233000Y-76251000D01*
X107927000Y-76251000D02*
X104020000Y-76251000D01*
X101140000Y-76211000D02*
X97208000Y-76211000D01*
X107952000Y-76211000D02*
X104020000Y-76211000D01*
X101140000Y-76171000D02*
X97183000Y-76171000D01*
X107977000Y-76171000D02*
X104020000Y-76171000D01*
X101140000Y-76131000D02*
X97159000Y-76131000D01*
X108001000Y-76131000D02*
X104020000Y-76131000D01*
X101140000Y-76091000D02*
X97135000Y-76091000D01*
X108025000Y-76091000D02*
X104020000Y-76091000D01*
X101140000Y-76051000D02*
X97112000Y-76051000D01*
X108048000Y-76051000D02*
X104020000Y-76051000D01*
X101140000Y-76011000D02*
X97089000Y-76011000D01*
X108071000Y-76011000D02*
X104020000Y-76011000D01*
X101140000Y-75971000D02*
X97066000Y-75971000D01*
X108094000Y-75971000D02*
X104020000Y-75971000D01*
X101140000Y-75931000D02*
X97044000Y-75931000D01*
X108116000Y-75931000D02*
X104020000Y-75931000D01*
X101140000Y-75891000D02*
X97022000Y-75891000D01*
X108138000Y-75891000D02*
X104020000Y-75891000D01*
X101140000Y-75851000D02*
X97000000Y-75851000D01*
X108160000Y-75851000D02*
X104020000Y-75851000D01*
X101140000Y-75811000D02*
X96979000Y-75811000D01*
X108181000Y-75811000D02*
X104020000Y-75811000D01*
X101140000Y-75771000D02*
X96958000Y-75771000D01*
X108202000Y-75771000D02*
X104020000Y-75771000D01*
X101140000Y-75731000D02*
X96938000Y-75731000D01*
X108222000Y-75731000D02*
X104020000Y-75731000D01*
X101140000Y-75691000D02*
X96918000Y-75691000D01*
X108242000Y-75691000D02*
X104020000Y-75691000D01*
X101140000Y-75651000D02*
X96898000Y-75651000D01*
X108262000Y-75651000D02*
X104020000Y-75651000D01*
X101140000Y-75611000D02*
X96878000Y-75611000D01*
X108282000Y-75611000D02*
X104020000Y-75611000D01*
X101140000Y-75571000D02*
X96859000Y-75571000D01*
X108301000Y-75571000D02*
X104020000Y-75571000D01*
X101140000Y-75531000D02*
X96841000Y-75531000D01*
X108319000Y-75531000D02*
X104020000Y-75531000D01*
X101140000Y-75491000D02*
X96822000Y-75491000D01*
X108338000Y-75491000D02*
X104020000Y-75491000D01*
X101140000Y-75451000D02*
X96804000Y-75451000D01*
X108356000Y-75451000D02*
X104020000Y-75451000D01*
X101140000Y-75411000D02*
X96787000Y-75411000D01*
X108373000Y-75411000D02*
X104020000Y-75411000D01*
X101140000Y-75371000D02*
X96769000Y-75371000D01*
X108391000Y-75371000D02*
X104020000Y-75371000D01*
X101140000Y-75331000D02*
X96752000Y-75331000D01*
X108408000Y-75331000D02*
X104020000Y-75331000D01*
X101140000Y-75291000D02*
X96735000Y-75291000D01*
X108425000Y-75291000D02*
X104020000Y-75291000D01*
X101140000Y-75251000D02*
X96719000Y-75251000D01*
X108441000Y-75251000D02*
X104020000Y-75251000D01*
X101140000Y-75211000D02*
X96703000Y-75211000D01*
X108457000Y-75211000D02*
X104020000Y-75211000D01*
X101140000Y-75171000D02*
X96687000Y-75171000D01*
X108473000Y-75171000D02*
X104020000Y-75171000D01*
X101140000Y-75131000D02*
X96672000Y-75131000D01*
X108488000Y-75131000D02*
X104020000Y-75131000D01*
X101140000Y-75091000D02*
X96656000Y-75091000D01*
X108504000Y-75091000D02*
X104020000Y-75091000D01*
X101140000Y-75051000D02*
X96641000Y-75051000D01*
X108519000Y-75051000D02*
X104020000Y-75051000D01*
X101140000Y-75011000D02*
X96627000Y-75011000D01*
X108533000Y-75011000D02*
X104020000Y-75011000D01*
X101140000Y-74971000D02*
X96613000Y-74971000D01*
X108547000Y-74971000D02*
X104020000Y-74971000D01*
X101140000Y-74931000D02*
X96599000Y-74931000D01*
X108561000Y-74931000D02*
X104020000Y-74931000D01*
X101140000Y-74891000D02*
X96585000Y-74891000D01*
X108575000Y-74891000D02*
X104020000Y-74891000D01*
X101140000Y-74851000D02*
X96572000Y-74851000D01*
X108588000Y-74851000D02*
X104020000Y-74851000D01*
X101140000Y-74811000D02*
X96559000Y-74811000D01*
X108601000Y-74811000D02*
X104020000Y-74811000D01*
X101140000Y-74771000D02*
X96546000Y-74771000D01*
X108614000Y-74771000D02*
X104020000Y-74771000D01*
X101140000Y-74731000D02*
X96533000Y-74731000D01*
X108627000Y-74731000D02*
X104020000Y-74731000D01*
X101140000Y-74691000D02*
X96521000Y-74691000D01*
X108639000Y-74691000D02*
X104020000Y-74691000D01*
X101140000Y-74651000D02*
X96509000Y-74651000D01*
X108651000Y-74651000D02*
X104020000Y-74651000D01*
X101140000Y-74611000D02*
X96497000Y-74611000D01*
X108663000Y-74611000D02*
X104020000Y-74611000D01*
X101140000Y-74571000D02*
X96486000Y-74571000D01*
X108674000Y-74571000D02*
X104020000Y-74571000D01*
X101140000Y-74531000D02*
X96475000Y-74531000D01*
X108685000Y-74531000D02*
X104020000Y-74531000D01*
X101140000Y-74491000D02*
X96464000Y-74491000D01*
X108696000Y-74491000D02*
X104020000Y-74491000D01*
X101140000Y-74451000D02*
X96454000Y-74451000D01*
X108706000Y-74451000D02*
X104020000Y-74451000D01*
X101140000Y-74411000D02*
X96443000Y-74411000D01*
X108717000Y-74411000D02*
X104020000Y-74411000D01*
X101140000Y-74371000D02*
X96434000Y-74371000D01*
X108726000Y-74371000D02*
X104020000Y-74371000D01*
X101140000Y-74331000D02*
X96424000Y-74331000D01*
X108736000Y-74331000D02*
X104020000Y-74331000D01*
X101140000Y-74291000D02*
X96414000Y-74291000D01*
X108746000Y-74291000D02*
X104020000Y-74291000D01*
X101140000Y-74251000D02*
X96405000Y-74251000D01*
X108755000Y-74251000D02*
X104020000Y-74251000D01*
X101140000Y-74211000D02*
X96396000Y-74211000D01*
X108764000Y-74211000D02*
X104020000Y-74211000D01*
X101140000Y-74171000D02*
X96388000Y-74171000D01*
X108772000Y-74171000D02*
X104020000Y-74171000D01*
X101140000Y-74131000D02*
X96379000Y-74131000D01*
X108781000Y-74131000D02*
X104020000Y-74131000D01*
X101140000Y-74091000D02*
X96371000Y-74091000D01*
X108789000Y-74091000D02*
X104020000Y-74091000D01*
X101140000Y-74051000D02*
X96364000Y-74051000D01*
X108796000Y-74051000D02*
X104020000Y-74051000D01*
X101140000Y-74011000D02*
X96356000Y-74011000D01*
X108804000Y-74011000D02*
X104020000Y-74011000D01*
X101140000Y-73971000D02*
X96349000Y-73971000D01*
X108811000Y-73971000D02*
X104020000Y-73971000D01*
X101140000Y-73931000D02*
X96342000Y-73931000D01*
X108818000Y-73931000D02*
X104020000Y-73931000D01*
X108825000Y-73891000D02*
X96335000Y-73891000D01*
X108832000Y-73851000D02*
X96328000Y-73851000D01*
X108838000Y-73811000D02*
X96322000Y-73811000D01*
X108844000Y-73771000D02*
X96316000Y-73771000D01*
X108849000Y-73731000D02*
X96311000Y-73731000D01*
X108855000Y-73691000D02*
X96305000Y-73691000D01*
X108860000Y-73651000D02*
X96300000Y-73651000D01*
X108865000Y-73611000D02*
X96295000Y-73611000D01*
X108870000Y-73571000D02*
X96290000Y-73571000D01*
X108874000Y-73530000D02*
X96286000Y-73530000D01*
X108878000Y-73490000D02*
X96282000Y-73490000D01*
X108882000Y-73450000D02*
X96278000Y-73450000D01*
X108886000Y-73410000D02*
X96274000Y-73410000D01*
X108889000Y-73370000D02*
X96271000Y-73370000D01*
X108892000Y-73330000D02*
X96268000Y-73330000D01*
X108895000Y-73290000D02*
X96265000Y-73290000D01*
X108898000Y-73250000D02*
X96262000Y-73250000D01*
X108900000Y-73210000D02*
X96260000Y-73210000D01*
X108902000Y-73170000D02*
X96258000Y-73170000D01*
X108904000Y-73130000D02*
X96256000Y-73130000D01*
X108906000Y-73090000D02*
X96254000Y-73090000D01*
X108907000Y-73050000D02*
X96253000Y-73050000D01*
X108908000Y-73010000D02*
X96252000Y-73010000D01*
X108909000Y-72970000D02*
X96251000Y-72970000D01*
X108910000Y-72930000D02*
X96250000Y-72930000D01*
X108910000Y-72890000D02*
X96250000Y-72890000D01*
X108910000Y-72850000D02*
X96250000Y-72850000D01*
X108950000Y-72850000D02*
G75*
G03*
X108950000Y-72850000I-6370000J0D01*
G01*
%TO.C,C2*%
X117235000Y-87510000D02*
X116530000Y-87510000D01*
X119270000Y-87510000D02*
X118565000Y-87510000D01*
X117235000Y-83270000D02*
X116530000Y-83270000D01*
X119270000Y-83270000D02*
X118565000Y-83270000D01*
X116530000Y-83270000D02*
X116530000Y-87510000D01*
X119270000Y-83270000D02*
X119270000Y-87510000D01*
%TO.C,C6*%
X137690000Y-66237918D02*
X136440000Y-66237918D01*
X137065000Y-65612918D02*
X137065000Y-66862918D01*
X133807000Y-78791000D02*
X133173000Y-78791000D01*
X134247000Y-78751000D02*
X132733000Y-78751000D01*
X134518000Y-78711000D02*
X132462000Y-78711000D01*
X134731000Y-78671000D02*
X132249000Y-78671000D01*
X134912000Y-78631000D02*
X132068000Y-78631000D01*
X135073000Y-78591000D02*
X131907000Y-78591000D01*
X135218000Y-78551000D02*
X131762000Y-78551000D01*
X135351000Y-78511000D02*
X131629000Y-78511000D01*
X135474000Y-78471000D02*
X131506000Y-78471000D01*
X135590000Y-78431000D02*
X131390000Y-78431000D01*
X135699000Y-78391000D02*
X131281000Y-78391000D01*
X135802000Y-78351000D02*
X131178000Y-78351000D01*
X135900000Y-78311000D02*
X131080000Y-78311000D01*
X135994000Y-78271000D02*
X130986000Y-78271000D01*
X136084000Y-78231000D02*
X130896000Y-78231000D01*
X136171000Y-78191000D02*
X130809000Y-78191000D01*
X136254000Y-78151000D02*
X130726000Y-78151000D01*
X136334000Y-78111000D02*
X130646000Y-78111000D01*
X136411000Y-78071000D02*
X130569000Y-78071000D01*
X136486000Y-78031000D02*
X130494000Y-78031000D01*
X136559000Y-77991000D02*
X130421000Y-77991000D01*
X136630000Y-77951000D02*
X130350000Y-77951000D01*
X136698000Y-77911000D02*
X130282000Y-77911000D01*
X136765000Y-77871000D02*
X130215000Y-77871000D01*
X136829000Y-77831000D02*
X130151000Y-77831000D01*
X136892000Y-77791000D02*
X130088000Y-77791000D01*
X136954000Y-77751000D02*
X130026000Y-77751000D01*
X137014000Y-77711000D02*
X129966000Y-77711000D01*
X137073000Y-77671000D02*
X129907000Y-77671000D01*
X137130000Y-77631000D02*
X129850000Y-77631000D01*
X137186000Y-77591000D02*
X129794000Y-77591000D01*
X137240000Y-77551000D02*
X129740000Y-77551000D01*
X137294000Y-77511000D02*
X129686000Y-77511000D01*
X137346000Y-77471000D02*
X129634000Y-77471000D01*
X137397000Y-77431000D02*
X129583000Y-77431000D01*
X137447000Y-77391000D02*
X129533000Y-77391000D01*
X137497000Y-77351000D02*
X129483000Y-77351000D01*
X137545000Y-77311000D02*
X129435000Y-77311000D01*
X137592000Y-77271000D02*
X129388000Y-77271000D01*
X137638000Y-77231000D02*
X129342000Y-77231000D01*
X137684000Y-77191000D02*
X129296000Y-77191000D01*
X137728000Y-77151000D02*
X129252000Y-77151000D01*
X137772000Y-77111000D02*
X129208000Y-77111000D01*
X137815000Y-77071000D02*
X129165000Y-77071000D01*
X137857000Y-77031000D02*
X129123000Y-77031000D01*
X137898000Y-76991000D02*
X129082000Y-76991000D01*
X137939000Y-76951000D02*
X129041000Y-76951000D01*
X137979000Y-76911000D02*
X129001000Y-76911000D01*
X138018000Y-76871000D02*
X128962000Y-76871000D01*
X138057000Y-76831000D02*
X128923000Y-76831000D01*
X138095000Y-76791000D02*
X128885000Y-76791000D01*
X138132000Y-76751000D02*
X128848000Y-76751000D01*
X138168000Y-76711000D02*
X128812000Y-76711000D01*
X138204000Y-76671000D02*
X128776000Y-76671000D01*
X138240000Y-76631000D02*
X128740000Y-76631000D01*
X138275000Y-76591000D02*
X128705000Y-76591000D01*
X138309000Y-76551000D02*
X128671000Y-76551000D01*
X138342000Y-76511000D02*
X128638000Y-76511000D01*
X138375000Y-76471000D02*
X128605000Y-76471000D01*
X138408000Y-76431000D02*
X128572000Y-76431000D01*
X138440000Y-76391000D02*
X128540000Y-76391000D01*
X132050000Y-76351000D02*
X128508000Y-76351000D01*
X138472000Y-76351000D02*
X134930000Y-76351000D01*
X132050000Y-76311000D02*
X128478000Y-76311000D01*
X138502000Y-76311000D02*
X134930000Y-76311000D01*
X132050000Y-76271000D02*
X128447000Y-76271000D01*
X138533000Y-76271000D02*
X134930000Y-76271000D01*
X132050000Y-76231000D02*
X128417000Y-76231000D01*
X138563000Y-76231000D02*
X134930000Y-76231000D01*
X132050000Y-76191000D02*
X128388000Y-76191000D01*
X138592000Y-76191000D02*
X134930000Y-76191000D01*
X132050000Y-76151000D02*
X128359000Y-76151000D01*
X138621000Y-76151000D02*
X134930000Y-76151000D01*
X132050000Y-76111000D02*
X128330000Y-76111000D01*
X138650000Y-76111000D02*
X134930000Y-76111000D01*
X132050000Y-76071000D02*
X128302000Y-76071000D01*
X138678000Y-76071000D02*
X134930000Y-76071000D01*
X132050000Y-76031000D02*
X128274000Y-76031000D01*
X138706000Y-76031000D02*
X134930000Y-76031000D01*
X132050000Y-75991000D02*
X128247000Y-75991000D01*
X138733000Y-75991000D02*
X134930000Y-75991000D01*
X132050000Y-75951000D02*
X128220000Y-75951000D01*
X138760000Y-75951000D02*
X134930000Y-75951000D01*
X132050000Y-75911000D02*
X128194000Y-75911000D01*
X138786000Y-75911000D02*
X134930000Y-75911000D01*
X132050000Y-75871000D02*
X128168000Y-75871000D01*
X138812000Y-75871000D02*
X134930000Y-75871000D01*
X132050000Y-75831000D02*
X128143000Y-75831000D01*
X138837000Y-75831000D02*
X134930000Y-75831000D01*
X132050000Y-75791000D02*
X128118000Y-75791000D01*
X138862000Y-75791000D02*
X134930000Y-75791000D01*
X132050000Y-75751000D02*
X128093000Y-75751000D01*
X138887000Y-75751000D02*
X134930000Y-75751000D01*
X132050000Y-75711000D02*
X128069000Y-75711000D01*
X138911000Y-75711000D02*
X134930000Y-75711000D01*
X132050000Y-75671000D02*
X128045000Y-75671000D01*
X138935000Y-75671000D02*
X134930000Y-75671000D01*
X132050000Y-75631000D02*
X128022000Y-75631000D01*
X138958000Y-75631000D02*
X134930000Y-75631000D01*
X132050000Y-75591000D02*
X127999000Y-75591000D01*
X138981000Y-75591000D02*
X134930000Y-75591000D01*
X132050000Y-75551000D02*
X127976000Y-75551000D01*
X139004000Y-75551000D02*
X134930000Y-75551000D01*
X132050000Y-75511000D02*
X127954000Y-75511000D01*
X139026000Y-75511000D02*
X134930000Y-75511000D01*
X132050000Y-75471000D02*
X127932000Y-75471000D01*
X139048000Y-75471000D02*
X134930000Y-75471000D01*
X132050000Y-75431000D02*
X127910000Y-75431000D01*
X139070000Y-75431000D02*
X134930000Y-75431000D01*
X132050000Y-75391000D02*
X127889000Y-75391000D01*
X139091000Y-75391000D02*
X134930000Y-75391000D01*
X132050000Y-75351000D02*
X127868000Y-75351000D01*
X139112000Y-75351000D02*
X134930000Y-75351000D01*
X132050000Y-75311000D02*
X127848000Y-75311000D01*
X139132000Y-75311000D02*
X134930000Y-75311000D01*
X132050000Y-75271000D02*
X127828000Y-75271000D01*
X139152000Y-75271000D02*
X134930000Y-75271000D01*
X132050000Y-75231000D02*
X127808000Y-75231000D01*
X139172000Y-75231000D02*
X134930000Y-75231000D01*
X132050000Y-75191000D02*
X127788000Y-75191000D01*
X139192000Y-75191000D02*
X134930000Y-75191000D01*
X132050000Y-75151000D02*
X127769000Y-75151000D01*
X139211000Y-75151000D02*
X134930000Y-75151000D01*
X132050000Y-75111000D02*
X127751000Y-75111000D01*
X139229000Y-75111000D02*
X134930000Y-75111000D01*
X132050000Y-75071000D02*
X127732000Y-75071000D01*
X139248000Y-75071000D02*
X134930000Y-75071000D01*
X132050000Y-75031000D02*
X127714000Y-75031000D01*
X139266000Y-75031000D02*
X134930000Y-75031000D01*
X132050000Y-74991000D02*
X127697000Y-74991000D01*
X139283000Y-74991000D02*
X134930000Y-74991000D01*
X132050000Y-74951000D02*
X127679000Y-74951000D01*
X139301000Y-74951000D02*
X134930000Y-74951000D01*
X132050000Y-74911000D02*
X127662000Y-74911000D01*
X139318000Y-74911000D02*
X134930000Y-74911000D01*
X132050000Y-74871000D02*
X127645000Y-74871000D01*
X139335000Y-74871000D02*
X134930000Y-74871000D01*
X132050000Y-74831000D02*
X127629000Y-74831000D01*
X139351000Y-74831000D02*
X134930000Y-74831000D01*
X132050000Y-74791000D02*
X127613000Y-74791000D01*
X139367000Y-74791000D02*
X134930000Y-74791000D01*
X132050000Y-74751000D02*
X127597000Y-74751000D01*
X139383000Y-74751000D02*
X134930000Y-74751000D01*
X132050000Y-74711000D02*
X127582000Y-74711000D01*
X139398000Y-74711000D02*
X134930000Y-74711000D01*
X132050000Y-74671000D02*
X127566000Y-74671000D01*
X139414000Y-74671000D02*
X134930000Y-74671000D01*
X132050000Y-74631000D02*
X127551000Y-74631000D01*
X139429000Y-74631000D02*
X134930000Y-74631000D01*
X132050000Y-74591000D02*
X127537000Y-74591000D01*
X139443000Y-74591000D02*
X134930000Y-74591000D01*
X132050000Y-74551000D02*
X127523000Y-74551000D01*
X139457000Y-74551000D02*
X134930000Y-74551000D01*
X132050000Y-74511000D02*
X127509000Y-74511000D01*
X139471000Y-74511000D02*
X134930000Y-74511000D01*
X132050000Y-74471000D02*
X127495000Y-74471000D01*
X139485000Y-74471000D02*
X134930000Y-74471000D01*
X132050000Y-74431000D02*
X127482000Y-74431000D01*
X139498000Y-74431000D02*
X134930000Y-74431000D01*
X132050000Y-74391000D02*
X127469000Y-74391000D01*
X139511000Y-74391000D02*
X134930000Y-74391000D01*
X132050000Y-74351000D02*
X127456000Y-74351000D01*
X139524000Y-74351000D02*
X134930000Y-74351000D01*
X132050000Y-74311000D02*
X127443000Y-74311000D01*
X139537000Y-74311000D02*
X134930000Y-74311000D01*
X132050000Y-74271000D02*
X127431000Y-74271000D01*
X139549000Y-74271000D02*
X134930000Y-74271000D01*
X132050000Y-74231000D02*
X127419000Y-74231000D01*
X139561000Y-74231000D02*
X134930000Y-74231000D01*
X132050000Y-74191000D02*
X127407000Y-74191000D01*
X139573000Y-74191000D02*
X134930000Y-74191000D01*
X132050000Y-74151000D02*
X127396000Y-74151000D01*
X139584000Y-74151000D02*
X134930000Y-74151000D01*
X132050000Y-74111000D02*
X127385000Y-74111000D01*
X139595000Y-74111000D02*
X134930000Y-74111000D01*
X132050000Y-74071000D02*
X127374000Y-74071000D01*
X139606000Y-74071000D02*
X134930000Y-74071000D01*
X132050000Y-74031000D02*
X127364000Y-74031000D01*
X139616000Y-74031000D02*
X134930000Y-74031000D01*
X132050000Y-73991000D02*
X127353000Y-73991000D01*
X139627000Y-73991000D02*
X134930000Y-73991000D01*
X132050000Y-73951000D02*
X127344000Y-73951000D01*
X139636000Y-73951000D02*
X134930000Y-73951000D01*
X132050000Y-73911000D02*
X127334000Y-73911000D01*
X139646000Y-73911000D02*
X134930000Y-73911000D01*
X132050000Y-73871000D02*
X127324000Y-73871000D01*
X139656000Y-73871000D02*
X134930000Y-73871000D01*
X132050000Y-73831000D02*
X127315000Y-73831000D01*
X139665000Y-73831000D02*
X134930000Y-73831000D01*
X132050000Y-73791000D02*
X127306000Y-73791000D01*
X139674000Y-73791000D02*
X134930000Y-73791000D01*
X132050000Y-73751000D02*
X127298000Y-73751000D01*
X139682000Y-73751000D02*
X134930000Y-73751000D01*
X132050000Y-73711000D02*
X127289000Y-73711000D01*
X139691000Y-73711000D02*
X134930000Y-73711000D01*
X132050000Y-73671000D02*
X127281000Y-73671000D01*
X139699000Y-73671000D02*
X134930000Y-73671000D01*
X132050000Y-73631000D02*
X127274000Y-73631000D01*
X139706000Y-73631000D02*
X134930000Y-73631000D01*
X132050000Y-73591000D02*
X127266000Y-73591000D01*
X139714000Y-73591000D02*
X134930000Y-73591000D01*
X132050000Y-73551000D02*
X127259000Y-73551000D01*
X139721000Y-73551000D02*
X134930000Y-73551000D01*
X132050000Y-73511000D02*
X127252000Y-73511000D01*
X139728000Y-73511000D02*
X134930000Y-73511000D01*
X139735000Y-73471000D02*
X127245000Y-73471000D01*
X139742000Y-73431000D02*
X127238000Y-73431000D01*
X139748000Y-73391000D02*
X127232000Y-73391000D01*
X139754000Y-73351000D02*
X127226000Y-73351000D01*
X139759000Y-73311000D02*
X127221000Y-73311000D01*
X139765000Y-73271000D02*
X127215000Y-73271000D01*
X139770000Y-73231000D02*
X127210000Y-73231000D01*
X139775000Y-73191000D02*
X127205000Y-73191000D01*
X139780000Y-73151000D02*
X127200000Y-73151000D01*
X139784000Y-73110000D02*
X127196000Y-73110000D01*
X139788000Y-73070000D02*
X127192000Y-73070000D01*
X139792000Y-73030000D02*
X127188000Y-73030000D01*
X139796000Y-72990000D02*
X127184000Y-72990000D01*
X139799000Y-72950000D02*
X127181000Y-72950000D01*
X139802000Y-72910000D02*
X127178000Y-72910000D01*
X139805000Y-72870000D02*
X127175000Y-72870000D01*
X139808000Y-72830000D02*
X127172000Y-72830000D01*
X139810000Y-72790000D02*
X127170000Y-72790000D01*
X139812000Y-72750000D02*
X127168000Y-72750000D01*
X139814000Y-72710000D02*
X127166000Y-72710000D01*
X139816000Y-72670000D02*
X127164000Y-72670000D01*
X139817000Y-72630000D02*
X127163000Y-72630000D01*
X139818000Y-72590000D02*
X127162000Y-72590000D01*
X139819000Y-72550000D02*
X127161000Y-72550000D01*
X139820000Y-72510000D02*
X127160000Y-72510000D01*
X139820000Y-72470000D02*
X127160000Y-72470000D01*
X139820000Y-72430000D02*
X127160000Y-72430000D01*
X139860000Y-72430000D02*
G75*
G03*
X139860000Y-72430000I-6370000J0D01*
G01*
%TO.C,D2*%
X58080000Y-86845000D02*
X52640000Y-86845000D01*
X58080000Y-87085000D02*
X52640000Y-87085000D01*
X58080000Y-86965000D02*
X52640000Y-86965000D01*
X52640000Y-95160000D02*
X53520000Y-95160000D01*
X52640000Y-85420000D02*
X52640000Y-95160000D01*
X53520000Y-85420000D02*
X52640000Y-85420000D01*
X58080000Y-95160000D02*
X57200000Y-95160000D01*
X58080000Y-85420000D02*
X58080000Y-95160000D01*
X57200000Y-85420000D02*
X58080000Y-85420000D01*
%TO.C,C7*%
X75550000Y-78542082D02*
X76800000Y-78542082D01*
X76175000Y-79167082D02*
X76175000Y-77917082D01*
X79433000Y-65989000D02*
X80067000Y-65989000D01*
X78993000Y-66029000D02*
X80507000Y-66029000D01*
X78722000Y-66069000D02*
X80778000Y-66069000D01*
X78509000Y-66109000D02*
X80991000Y-66109000D01*
X78328000Y-66149000D02*
X81172000Y-66149000D01*
X78167000Y-66189000D02*
X81333000Y-66189000D01*
X78022000Y-66229000D02*
X81478000Y-66229000D01*
X77889000Y-66269000D02*
X81611000Y-66269000D01*
X77766000Y-66309000D02*
X81734000Y-66309000D01*
X77650000Y-66349000D02*
X81850000Y-66349000D01*
X77541000Y-66389000D02*
X81959000Y-66389000D01*
X77438000Y-66429000D02*
X82062000Y-66429000D01*
X77340000Y-66469000D02*
X82160000Y-66469000D01*
X77246000Y-66509000D02*
X82254000Y-66509000D01*
X77156000Y-66549000D02*
X82344000Y-66549000D01*
X77069000Y-66589000D02*
X82431000Y-66589000D01*
X76986000Y-66629000D02*
X82514000Y-66629000D01*
X76906000Y-66669000D02*
X82594000Y-66669000D01*
X76829000Y-66709000D02*
X82671000Y-66709000D01*
X76754000Y-66749000D02*
X82746000Y-66749000D01*
X76681000Y-66789000D02*
X82819000Y-66789000D01*
X76610000Y-66829000D02*
X82890000Y-66829000D01*
X76542000Y-66869000D02*
X82958000Y-66869000D01*
X76475000Y-66909000D02*
X83025000Y-66909000D01*
X76411000Y-66949000D02*
X83089000Y-66949000D01*
X76348000Y-66989000D02*
X83152000Y-66989000D01*
X76286000Y-67029000D02*
X83214000Y-67029000D01*
X76226000Y-67069000D02*
X83274000Y-67069000D01*
X76167000Y-67109000D02*
X83333000Y-67109000D01*
X76110000Y-67149000D02*
X83390000Y-67149000D01*
X76054000Y-67189000D02*
X83446000Y-67189000D01*
X76000000Y-67229000D02*
X83500000Y-67229000D01*
X75946000Y-67269000D02*
X83554000Y-67269000D01*
X75894000Y-67309000D02*
X83606000Y-67309000D01*
X75843000Y-67349000D02*
X83657000Y-67349000D01*
X75793000Y-67389000D02*
X83707000Y-67389000D01*
X75743000Y-67429000D02*
X83757000Y-67429000D01*
X75695000Y-67469000D02*
X83805000Y-67469000D01*
X75648000Y-67509000D02*
X83852000Y-67509000D01*
X75602000Y-67549000D02*
X83898000Y-67549000D01*
X75556000Y-67589000D02*
X83944000Y-67589000D01*
X75512000Y-67629000D02*
X83988000Y-67629000D01*
X75468000Y-67669000D02*
X84032000Y-67669000D01*
X75425000Y-67709000D02*
X84075000Y-67709000D01*
X75383000Y-67749000D02*
X84117000Y-67749000D01*
X75342000Y-67789000D02*
X84158000Y-67789000D01*
X75301000Y-67829000D02*
X84199000Y-67829000D01*
X75261000Y-67869000D02*
X84239000Y-67869000D01*
X75222000Y-67909000D02*
X84278000Y-67909000D01*
X75183000Y-67949000D02*
X84317000Y-67949000D01*
X75145000Y-67989000D02*
X84355000Y-67989000D01*
X75108000Y-68029000D02*
X84392000Y-68029000D01*
X75072000Y-68069000D02*
X84428000Y-68069000D01*
X75036000Y-68109000D02*
X84464000Y-68109000D01*
X75000000Y-68149000D02*
X84500000Y-68149000D01*
X74965000Y-68189000D02*
X84535000Y-68189000D01*
X74931000Y-68229000D02*
X84569000Y-68229000D01*
X74898000Y-68269000D02*
X84602000Y-68269000D01*
X74865000Y-68309000D02*
X84635000Y-68309000D01*
X74832000Y-68349000D02*
X84668000Y-68349000D01*
X74800000Y-68389000D02*
X84700000Y-68389000D01*
X81190000Y-68429000D02*
X84732000Y-68429000D01*
X74768000Y-68429000D02*
X78310000Y-68429000D01*
X81190000Y-68469000D02*
X84762000Y-68469000D01*
X74738000Y-68469000D02*
X78310000Y-68469000D01*
X81190000Y-68509000D02*
X84793000Y-68509000D01*
X74707000Y-68509000D02*
X78310000Y-68509000D01*
X81190000Y-68549000D02*
X84823000Y-68549000D01*
X74677000Y-68549000D02*
X78310000Y-68549000D01*
X81190000Y-68589000D02*
X84852000Y-68589000D01*
X74648000Y-68589000D02*
X78310000Y-68589000D01*
X81190000Y-68629000D02*
X84881000Y-68629000D01*
X74619000Y-68629000D02*
X78310000Y-68629000D01*
X81190000Y-68669000D02*
X84910000Y-68669000D01*
X74590000Y-68669000D02*
X78310000Y-68669000D01*
X81190000Y-68709000D02*
X84938000Y-68709000D01*
X74562000Y-68709000D02*
X78310000Y-68709000D01*
X81190000Y-68749000D02*
X84966000Y-68749000D01*
X74534000Y-68749000D02*
X78310000Y-68749000D01*
X81190000Y-68789000D02*
X84993000Y-68789000D01*
X74507000Y-68789000D02*
X78310000Y-68789000D01*
X81190000Y-68829000D02*
X85020000Y-68829000D01*
X74480000Y-68829000D02*
X78310000Y-68829000D01*
X81190000Y-68869000D02*
X85046000Y-68869000D01*
X74454000Y-68869000D02*
X78310000Y-68869000D01*
X81190000Y-68909000D02*
X85072000Y-68909000D01*
X74428000Y-68909000D02*
X78310000Y-68909000D01*
X81190000Y-68949000D02*
X85097000Y-68949000D01*
X74403000Y-68949000D02*
X78310000Y-68949000D01*
X81190000Y-68989000D02*
X85122000Y-68989000D01*
X74378000Y-68989000D02*
X78310000Y-68989000D01*
X81190000Y-69029000D02*
X85147000Y-69029000D01*
X74353000Y-69029000D02*
X78310000Y-69029000D01*
X81190000Y-69069000D02*
X85171000Y-69069000D01*
X74329000Y-69069000D02*
X78310000Y-69069000D01*
X81190000Y-69109000D02*
X85195000Y-69109000D01*
X74305000Y-69109000D02*
X78310000Y-69109000D01*
X81190000Y-69149000D02*
X85218000Y-69149000D01*
X74282000Y-69149000D02*
X78310000Y-69149000D01*
X81190000Y-69189000D02*
X85241000Y-69189000D01*
X74259000Y-69189000D02*
X78310000Y-69189000D01*
X81190000Y-69229000D02*
X85264000Y-69229000D01*
X74236000Y-69229000D02*
X78310000Y-69229000D01*
X81190000Y-69269000D02*
X85286000Y-69269000D01*
X74214000Y-69269000D02*
X78310000Y-69269000D01*
X81190000Y-69309000D02*
X85308000Y-69309000D01*
X74192000Y-69309000D02*
X78310000Y-69309000D01*
X81190000Y-69349000D02*
X85330000Y-69349000D01*
X74170000Y-69349000D02*
X78310000Y-69349000D01*
X81190000Y-69389000D02*
X85351000Y-69389000D01*
X74149000Y-69389000D02*
X78310000Y-69389000D01*
X81190000Y-69429000D02*
X85372000Y-69429000D01*
X74128000Y-69429000D02*
X78310000Y-69429000D01*
X81190000Y-69469000D02*
X85392000Y-69469000D01*
X74108000Y-69469000D02*
X78310000Y-69469000D01*
X81190000Y-69509000D02*
X85412000Y-69509000D01*
X74088000Y-69509000D02*
X78310000Y-69509000D01*
X81190000Y-69549000D02*
X85432000Y-69549000D01*
X74068000Y-69549000D02*
X78310000Y-69549000D01*
X81190000Y-69589000D02*
X85452000Y-69589000D01*
X74048000Y-69589000D02*
X78310000Y-69589000D01*
X81190000Y-69629000D02*
X85471000Y-69629000D01*
X74029000Y-69629000D02*
X78310000Y-69629000D01*
X81190000Y-69669000D02*
X85489000Y-69669000D01*
X74011000Y-69669000D02*
X78310000Y-69669000D01*
X81190000Y-69709000D02*
X85508000Y-69709000D01*
X73992000Y-69709000D02*
X78310000Y-69709000D01*
X81190000Y-69749000D02*
X85526000Y-69749000D01*
X73974000Y-69749000D02*
X78310000Y-69749000D01*
X81190000Y-69789000D02*
X85543000Y-69789000D01*
X73957000Y-69789000D02*
X78310000Y-69789000D01*
X81190000Y-69829000D02*
X85561000Y-69829000D01*
X73939000Y-69829000D02*
X78310000Y-69829000D01*
X81190000Y-69869000D02*
X85578000Y-69869000D01*
X73922000Y-69869000D02*
X78310000Y-69869000D01*
X81190000Y-69909000D02*
X85595000Y-69909000D01*
X73905000Y-69909000D02*
X78310000Y-69909000D01*
X81190000Y-69949000D02*
X85611000Y-69949000D01*
X73889000Y-69949000D02*
X78310000Y-69949000D01*
X81190000Y-69989000D02*
X85627000Y-69989000D01*
X73873000Y-69989000D02*
X78310000Y-69989000D01*
X81190000Y-70029000D02*
X85643000Y-70029000D01*
X73857000Y-70029000D02*
X78310000Y-70029000D01*
X81190000Y-70069000D02*
X85658000Y-70069000D01*
X73842000Y-70069000D02*
X78310000Y-70069000D01*
X81190000Y-70109000D02*
X85674000Y-70109000D01*
X73826000Y-70109000D02*
X78310000Y-70109000D01*
X81190000Y-70149000D02*
X85689000Y-70149000D01*
X73811000Y-70149000D02*
X78310000Y-70149000D01*
X81190000Y-70189000D02*
X85703000Y-70189000D01*
X73797000Y-70189000D02*
X78310000Y-70189000D01*
X81190000Y-70229000D02*
X85717000Y-70229000D01*
X73783000Y-70229000D02*
X78310000Y-70229000D01*
X81190000Y-70269000D02*
X85731000Y-70269000D01*
X73769000Y-70269000D02*
X78310000Y-70269000D01*
X81190000Y-70309000D02*
X85745000Y-70309000D01*
X73755000Y-70309000D02*
X78310000Y-70309000D01*
X81190000Y-70349000D02*
X85758000Y-70349000D01*
X73742000Y-70349000D02*
X78310000Y-70349000D01*
X81190000Y-70389000D02*
X85771000Y-70389000D01*
X73729000Y-70389000D02*
X78310000Y-70389000D01*
X81190000Y-70429000D02*
X85784000Y-70429000D01*
X73716000Y-70429000D02*
X78310000Y-70429000D01*
X81190000Y-70469000D02*
X85797000Y-70469000D01*
X73703000Y-70469000D02*
X78310000Y-70469000D01*
X81190000Y-70509000D02*
X85809000Y-70509000D01*
X73691000Y-70509000D02*
X78310000Y-70509000D01*
X81190000Y-70549000D02*
X85821000Y-70549000D01*
X73679000Y-70549000D02*
X78310000Y-70549000D01*
X81190000Y-70589000D02*
X85833000Y-70589000D01*
X73667000Y-70589000D02*
X78310000Y-70589000D01*
X81190000Y-70629000D02*
X85844000Y-70629000D01*
X73656000Y-70629000D02*
X78310000Y-70629000D01*
X81190000Y-70669000D02*
X85855000Y-70669000D01*
X73645000Y-70669000D02*
X78310000Y-70669000D01*
X81190000Y-70709000D02*
X85866000Y-70709000D01*
X73634000Y-70709000D02*
X78310000Y-70709000D01*
X81190000Y-70749000D02*
X85876000Y-70749000D01*
X73624000Y-70749000D02*
X78310000Y-70749000D01*
X81190000Y-70789000D02*
X85887000Y-70789000D01*
X73613000Y-70789000D02*
X78310000Y-70789000D01*
X81190000Y-70829000D02*
X85896000Y-70829000D01*
X73604000Y-70829000D02*
X78310000Y-70829000D01*
X81190000Y-70869000D02*
X85906000Y-70869000D01*
X73594000Y-70869000D02*
X78310000Y-70869000D01*
X81190000Y-70909000D02*
X85916000Y-70909000D01*
X73584000Y-70909000D02*
X78310000Y-70909000D01*
X81190000Y-70949000D02*
X85925000Y-70949000D01*
X73575000Y-70949000D02*
X78310000Y-70949000D01*
X81190000Y-70989000D02*
X85934000Y-70989000D01*
X73566000Y-70989000D02*
X78310000Y-70989000D01*
X81190000Y-71029000D02*
X85942000Y-71029000D01*
X73558000Y-71029000D02*
X78310000Y-71029000D01*
X81190000Y-71069000D02*
X85951000Y-71069000D01*
X73549000Y-71069000D02*
X78310000Y-71069000D01*
X81190000Y-71109000D02*
X85959000Y-71109000D01*
X73541000Y-71109000D02*
X78310000Y-71109000D01*
X81190000Y-71149000D02*
X85966000Y-71149000D01*
X73534000Y-71149000D02*
X78310000Y-71149000D01*
X81190000Y-71189000D02*
X85974000Y-71189000D01*
X73526000Y-71189000D02*
X78310000Y-71189000D01*
X81190000Y-71229000D02*
X85981000Y-71229000D01*
X73519000Y-71229000D02*
X78310000Y-71229000D01*
X81190000Y-71269000D02*
X85988000Y-71269000D01*
X73512000Y-71269000D02*
X78310000Y-71269000D01*
X73505000Y-71309000D02*
X85995000Y-71309000D01*
X73498000Y-71349000D02*
X86002000Y-71349000D01*
X73492000Y-71389000D02*
X86008000Y-71389000D01*
X73486000Y-71429000D02*
X86014000Y-71429000D01*
X73481000Y-71469000D02*
X86019000Y-71469000D01*
X73475000Y-71509000D02*
X86025000Y-71509000D01*
X73470000Y-71549000D02*
X86030000Y-71549000D01*
X73465000Y-71589000D02*
X86035000Y-71589000D01*
X73460000Y-71629000D02*
X86040000Y-71629000D01*
X73456000Y-71670000D02*
X86044000Y-71670000D01*
X73452000Y-71710000D02*
X86048000Y-71710000D01*
X73448000Y-71750000D02*
X86052000Y-71750000D01*
X73444000Y-71790000D02*
X86056000Y-71790000D01*
X73441000Y-71830000D02*
X86059000Y-71830000D01*
X73438000Y-71870000D02*
X86062000Y-71870000D01*
X73435000Y-71910000D02*
X86065000Y-71910000D01*
X73432000Y-71950000D02*
X86068000Y-71950000D01*
X73430000Y-71990000D02*
X86070000Y-71990000D01*
X73428000Y-72030000D02*
X86072000Y-72030000D01*
X73426000Y-72070000D02*
X86074000Y-72070000D01*
X73424000Y-72110000D02*
X86076000Y-72110000D01*
X73423000Y-72150000D02*
X86077000Y-72150000D01*
X73422000Y-72190000D02*
X86078000Y-72190000D01*
X73421000Y-72230000D02*
X86079000Y-72230000D01*
X73420000Y-72270000D02*
X86080000Y-72270000D01*
X73420000Y-72310000D02*
X86080000Y-72310000D01*
X73420000Y-72350000D02*
X86080000Y-72350000D01*
X86120000Y-72350000D02*
G75*
G03*
X86120000Y-72350000I-6370000J0D01*
G01*
%TO.C,C4*%
X63175000Y-86460000D02*
X62470000Y-86460000D01*
X65210000Y-86460000D02*
X64505000Y-86460000D01*
X63175000Y-82220000D02*
X62470000Y-82220000D01*
X65210000Y-82220000D02*
X64505000Y-82220000D01*
X62470000Y-82220000D02*
X62470000Y-86460000D01*
X65210000Y-82220000D02*
X65210000Y-86460000D01*
%TO.C,C3*%
X52720000Y-66067918D02*
X51470000Y-66067918D01*
X52095000Y-65442918D02*
X52095000Y-66692918D01*
X48837000Y-78621000D02*
X48203000Y-78621000D01*
X49277000Y-78581000D02*
X47763000Y-78581000D01*
X49548000Y-78541000D02*
X47492000Y-78541000D01*
X49761000Y-78501000D02*
X47279000Y-78501000D01*
X49942000Y-78461000D02*
X47098000Y-78461000D01*
X50103000Y-78421000D02*
X46937000Y-78421000D01*
X50248000Y-78381000D02*
X46792000Y-78381000D01*
X50381000Y-78341000D02*
X46659000Y-78341000D01*
X50504000Y-78301000D02*
X46536000Y-78301000D01*
X50620000Y-78261000D02*
X46420000Y-78261000D01*
X50729000Y-78221000D02*
X46311000Y-78221000D01*
X50832000Y-78181000D02*
X46208000Y-78181000D01*
X50930000Y-78141000D02*
X46110000Y-78141000D01*
X51024000Y-78101000D02*
X46016000Y-78101000D01*
X51114000Y-78061000D02*
X45926000Y-78061000D01*
X51201000Y-78021000D02*
X45839000Y-78021000D01*
X51284000Y-77981000D02*
X45756000Y-77981000D01*
X51364000Y-77941000D02*
X45676000Y-77941000D01*
X51441000Y-77901000D02*
X45599000Y-77901000D01*
X51516000Y-77861000D02*
X45524000Y-77861000D01*
X51589000Y-77821000D02*
X45451000Y-77821000D01*
X51660000Y-77781000D02*
X45380000Y-77781000D01*
X51728000Y-77741000D02*
X45312000Y-77741000D01*
X51795000Y-77701000D02*
X45245000Y-77701000D01*
X51859000Y-77661000D02*
X45181000Y-77661000D01*
X51922000Y-77621000D02*
X45118000Y-77621000D01*
X51984000Y-77581000D02*
X45056000Y-77581000D01*
X52044000Y-77541000D02*
X44996000Y-77541000D01*
X52103000Y-77501000D02*
X44937000Y-77501000D01*
X52160000Y-77461000D02*
X44880000Y-77461000D01*
X52216000Y-77421000D02*
X44824000Y-77421000D01*
X52270000Y-77381000D02*
X44770000Y-77381000D01*
X52324000Y-77341000D02*
X44716000Y-77341000D01*
X52376000Y-77301000D02*
X44664000Y-77301000D01*
X52427000Y-77261000D02*
X44613000Y-77261000D01*
X52477000Y-77221000D02*
X44563000Y-77221000D01*
X52527000Y-77181000D02*
X44513000Y-77181000D01*
X52575000Y-77141000D02*
X44465000Y-77141000D01*
X52622000Y-77101000D02*
X44418000Y-77101000D01*
X52668000Y-77061000D02*
X44372000Y-77061000D01*
X52714000Y-77021000D02*
X44326000Y-77021000D01*
X52758000Y-76981000D02*
X44282000Y-76981000D01*
X52802000Y-76941000D02*
X44238000Y-76941000D01*
X52845000Y-76901000D02*
X44195000Y-76901000D01*
X52887000Y-76861000D02*
X44153000Y-76861000D01*
X52928000Y-76821000D02*
X44112000Y-76821000D01*
X52969000Y-76781000D02*
X44071000Y-76781000D01*
X53009000Y-76741000D02*
X44031000Y-76741000D01*
X53048000Y-76701000D02*
X43992000Y-76701000D01*
X53087000Y-76661000D02*
X43953000Y-76661000D01*
X53125000Y-76621000D02*
X43915000Y-76621000D01*
X53162000Y-76581000D02*
X43878000Y-76581000D01*
X53198000Y-76541000D02*
X43842000Y-76541000D01*
X53234000Y-76501000D02*
X43806000Y-76501000D01*
X53270000Y-76461000D02*
X43770000Y-76461000D01*
X53305000Y-76421000D02*
X43735000Y-76421000D01*
X53339000Y-76381000D02*
X43701000Y-76381000D01*
X53372000Y-76341000D02*
X43668000Y-76341000D01*
X53405000Y-76301000D02*
X43635000Y-76301000D01*
X53438000Y-76261000D02*
X43602000Y-76261000D01*
X53470000Y-76221000D02*
X43570000Y-76221000D01*
X47080000Y-76181000D02*
X43538000Y-76181000D01*
X53502000Y-76181000D02*
X49960000Y-76181000D01*
X47080000Y-76141000D02*
X43508000Y-76141000D01*
X53532000Y-76141000D02*
X49960000Y-76141000D01*
X47080000Y-76101000D02*
X43477000Y-76101000D01*
X53563000Y-76101000D02*
X49960000Y-76101000D01*
X47080000Y-76061000D02*
X43447000Y-76061000D01*
X53593000Y-76061000D02*
X49960000Y-76061000D01*
X47080000Y-76021000D02*
X43418000Y-76021000D01*
X53622000Y-76021000D02*
X49960000Y-76021000D01*
X47080000Y-75981000D02*
X43389000Y-75981000D01*
X53651000Y-75981000D02*
X49960000Y-75981000D01*
X47080000Y-75941000D02*
X43360000Y-75941000D01*
X53680000Y-75941000D02*
X49960000Y-75941000D01*
X47080000Y-75901000D02*
X43332000Y-75901000D01*
X53708000Y-75901000D02*
X49960000Y-75901000D01*
X47080000Y-75861000D02*
X43304000Y-75861000D01*
X53736000Y-75861000D02*
X49960000Y-75861000D01*
X47080000Y-75821000D02*
X43277000Y-75821000D01*
X53763000Y-75821000D02*
X49960000Y-75821000D01*
X47080000Y-75781000D02*
X43250000Y-75781000D01*
X53790000Y-75781000D02*
X49960000Y-75781000D01*
X47080000Y-75741000D02*
X43224000Y-75741000D01*
X53816000Y-75741000D02*
X49960000Y-75741000D01*
X47080000Y-75701000D02*
X43198000Y-75701000D01*
X53842000Y-75701000D02*
X49960000Y-75701000D01*
X47080000Y-75661000D02*
X43173000Y-75661000D01*
X53867000Y-75661000D02*
X49960000Y-75661000D01*
X47080000Y-75621000D02*
X43148000Y-75621000D01*
X53892000Y-75621000D02*
X49960000Y-75621000D01*
X47080000Y-75581000D02*
X43123000Y-75581000D01*
X53917000Y-75581000D02*
X49960000Y-75581000D01*
X47080000Y-75541000D02*
X43099000Y-75541000D01*
X53941000Y-75541000D02*
X49960000Y-75541000D01*
X47080000Y-75501000D02*
X43075000Y-75501000D01*
X53965000Y-75501000D02*
X49960000Y-75501000D01*
X47080000Y-75461000D02*
X43052000Y-75461000D01*
X53988000Y-75461000D02*
X49960000Y-75461000D01*
X47080000Y-75421000D02*
X43029000Y-75421000D01*
X54011000Y-75421000D02*
X49960000Y-75421000D01*
X47080000Y-75381000D02*
X43006000Y-75381000D01*
X54034000Y-75381000D02*
X49960000Y-75381000D01*
X47080000Y-75341000D02*
X42984000Y-75341000D01*
X54056000Y-75341000D02*
X49960000Y-75341000D01*
X47080000Y-75301000D02*
X42962000Y-75301000D01*
X54078000Y-75301000D02*
X49960000Y-75301000D01*
X47080000Y-75261000D02*
X42940000Y-75261000D01*
X54100000Y-75261000D02*
X49960000Y-75261000D01*
X47080000Y-75221000D02*
X42919000Y-75221000D01*
X54121000Y-75221000D02*
X49960000Y-75221000D01*
X47080000Y-75181000D02*
X42898000Y-75181000D01*
X54142000Y-75181000D02*
X49960000Y-75181000D01*
X47080000Y-75141000D02*
X42878000Y-75141000D01*
X54162000Y-75141000D02*
X49960000Y-75141000D01*
X47080000Y-75101000D02*
X42858000Y-75101000D01*
X54182000Y-75101000D02*
X49960000Y-75101000D01*
X47080000Y-75061000D02*
X42838000Y-75061000D01*
X54202000Y-75061000D02*
X49960000Y-75061000D01*
X47080000Y-75021000D02*
X42818000Y-75021000D01*
X54222000Y-75021000D02*
X49960000Y-75021000D01*
X47080000Y-74981000D02*
X42799000Y-74981000D01*
X54241000Y-74981000D02*
X49960000Y-74981000D01*
X47080000Y-74941000D02*
X42781000Y-74941000D01*
X54259000Y-74941000D02*
X49960000Y-74941000D01*
X47080000Y-74901000D02*
X42762000Y-74901000D01*
X54278000Y-74901000D02*
X49960000Y-74901000D01*
X47080000Y-74861000D02*
X42744000Y-74861000D01*
X54296000Y-74861000D02*
X49960000Y-74861000D01*
X47080000Y-74821000D02*
X42727000Y-74821000D01*
X54313000Y-74821000D02*
X49960000Y-74821000D01*
X47080000Y-74781000D02*
X42709000Y-74781000D01*
X54331000Y-74781000D02*
X49960000Y-74781000D01*
X47080000Y-74741000D02*
X42692000Y-74741000D01*
X54348000Y-74741000D02*
X49960000Y-74741000D01*
X47080000Y-74701000D02*
X42675000Y-74701000D01*
X54365000Y-74701000D02*
X49960000Y-74701000D01*
X47080000Y-74661000D02*
X42659000Y-74661000D01*
X54381000Y-74661000D02*
X49960000Y-74661000D01*
X47080000Y-74621000D02*
X42643000Y-74621000D01*
X54397000Y-74621000D02*
X49960000Y-74621000D01*
X47080000Y-74581000D02*
X42627000Y-74581000D01*
X54413000Y-74581000D02*
X49960000Y-74581000D01*
X47080000Y-74541000D02*
X42612000Y-74541000D01*
X54428000Y-74541000D02*
X49960000Y-74541000D01*
X47080000Y-74501000D02*
X42596000Y-74501000D01*
X54444000Y-74501000D02*
X49960000Y-74501000D01*
X47080000Y-74461000D02*
X42581000Y-74461000D01*
X54459000Y-74461000D02*
X49960000Y-74461000D01*
X47080000Y-74421000D02*
X42567000Y-74421000D01*
X54473000Y-74421000D02*
X49960000Y-74421000D01*
X47080000Y-74381000D02*
X42553000Y-74381000D01*
X54487000Y-74381000D02*
X49960000Y-74381000D01*
X47080000Y-74341000D02*
X42539000Y-74341000D01*
X54501000Y-74341000D02*
X49960000Y-74341000D01*
X47080000Y-74301000D02*
X42525000Y-74301000D01*
X54515000Y-74301000D02*
X49960000Y-74301000D01*
X47080000Y-74261000D02*
X42512000Y-74261000D01*
X54528000Y-74261000D02*
X49960000Y-74261000D01*
X47080000Y-74221000D02*
X42499000Y-74221000D01*
X54541000Y-74221000D02*
X49960000Y-74221000D01*
X47080000Y-74181000D02*
X42486000Y-74181000D01*
X54554000Y-74181000D02*
X49960000Y-74181000D01*
X47080000Y-74141000D02*
X42473000Y-74141000D01*
X54567000Y-74141000D02*
X49960000Y-74141000D01*
X47080000Y-74101000D02*
X42461000Y-74101000D01*
X54579000Y-74101000D02*
X49960000Y-74101000D01*
X47080000Y-74061000D02*
X42449000Y-74061000D01*
X54591000Y-74061000D02*
X49960000Y-74061000D01*
X47080000Y-74021000D02*
X42437000Y-74021000D01*
X54603000Y-74021000D02*
X49960000Y-74021000D01*
X47080000Y-73981000D02*
X42426000Y-73981000D01*
X54614000Y-73981000D02*
X49960000Y-73981000D01*
X47080000Y-73941000D02*
X42415000Y-73941000D01*
X54625000Y-73941000D02*
X49960000Y-73941000D01*
X47080000Y-73901000D02*
X42404000Y-73901000D01*
X54636000Y-73901000D02*
X49960000Y-73901000D01*
X47080000Y-73861000D02*
X42394000Y-73861000D01*
X54646000Y-73861000D02*
X49960000Y-73861000D01*
X47080000Y-73821000D02*
X42383000Y-73821000D01*
X54657000Y-73821000D02*
X49960000Y-73821000D01*
X47080000Y-73781000D02*
X42374000Y-73781000D01*
X54666000Y-73781000D02*
X49960000Y-73781000D01*
X47080000Y-73741000D02*
X42364000Y-73741000D01*
X54676000Y-73741000D02*
X49960000Y-73741000D01*
X47080000Y-73701000D02*
X42354000Y-73701000D01*
X54686000Y-73701000D02*
X49960000Y-73701000D01*
X47080000Y-73661000D02*
X42345000Y-73661000D01*
X54695000Y-73661000D02*
X49960000Y-73661000D01*
X47080000Y-73621000D02*
X42336000Y-73621000D01*
X54704000Y-73621000D02*
X49960000Y-73621000D01*
X47080000Y-73581000D02*
X42328000Y-73581000D01*
X54712000Y-73581000D02*
X49960000Y-73581000D01*
X47080000Y-73541000D02*
X42319000Y-73541000D01*
X54721000Y-73541000D02*
X49960000Y-73541000D01*
X47080000Y-73501000D02*
X42311000Y-73501000D01*
X54729000Y-73501000D02*
X49960000Y-73501000D01*
X47080000Y-73461000D02*
X42304000Y-73461000D01*
X54736000Y-73461000D02*
X49960000Y-73461000D01*
X47080000Y-73421000D02*
X42296000Y-73421000D01*
X54744000Y-73421000D02*
X49960000Y-73421000D01*
X47080000Y-73381000D02*
X42289000Y-73381000D01*
X54751000Y-73381000D02*
X49960000Y-73381000D01*
X47080000Y-73341000D02*
X42282000Y-73341000D01*
X54758000Y-73341000D02*
X49960000Y-73341000D01*
X54765000Y-73301000D02*
X42275000Y-73301000D01*
X54772000Y-73261000D02*
X42268000Y-73261000D01*
X54778000Y-73221000D02*
X42262000Y-73221000D01*
X54784000Y-73181000D02*
X42256000Y-73181000D01*
X54789000Y-73141000D02*
X42251000Y-73141000D01*
X54795000Y-73101000D02*
X42245000Y-73101000D01*
X54800000Y-73061000D02*
X42240000Y-73061000D01*
X54805000Y-73021000D02*
X42235000Y-73021000D01*
X54810000Y-72981000D02*
X42230000Y-72981000D01*
X54814000Y-72940000D02*
X42226000Y-72940000D01*
X54818000Y-72900000D02*
X42222000Y-72900000D01*
X54822000Y-72860000D02*
X42218000Y-72860000D01*
X54826000Y-72820000D02*
X42214000Y-72820000D01*
X54829000Y-72780000D02*
X42211000Y-72780000D01*
X54832000Y-72740000D02*
X42208000Y-72740000D01*
X54835000Y-72700000D02*
X42205000Y-72700000D01*
X54838000Y-72660000D02*
X42202000Y-72660000D01*
X54840000Y-72620000D02*
X42200000Y-72620000D01*
X54842000Y-72580000D02*
X42198000Y-72580000D01*
X54844000Y-72540000D02*
X42196000Y-72540000D01*
X54846000Y-72500000D02*
X42194000Y-72500000D01*
X54847000Y-72460000D02*
X42193000Y-72460000D01*
X54848000Y-72420000D02*
X42192000Y-72420000D01*
X54849000Y-72380000D02*
X42191000Y-72380000D01*
X54850000Y-72340000D02*
X42190000Y-72340000D01*
X54850000Y-72300000D02*
X42190000Y-72300000D01*
X54850000Y-72260000D02*
X42190000Y-72260000D01*
X54890000Y-72260000D02*
G75*
G03*
X54890000Y-72260000I-6370000J0D01*
G01*
%TO.C,C5*%
X48870000Y-98350000D02*
G75*
G03*
X48870000Y-98350000I-2120000J0D01*
G01*
X46750000Y-97510000D02*
X46750000Y-96270000D01*
X46750000Y-100430000D02*
X46750000Y-99190000D01*
X46710000Y-97510000D02*
X46710000Y-96270000D01*
X46710000Y-100430000D02*
X46710000Y-99190000D01*
X46670000Y-97510000D02*
X46670000Y-96271000D01*
X46670000Y-100429000D02*
X46670000Y-99190000D01*
X46630000Y-100427000D02*
X46630000Y-99190000D01*
X46630000Y-97510000D02*
X46630000Y-96273000D01*
X46590000Y-100424000D02*
X46590000Y-99190000D01*
X46590000Y-97510000D02*
X46590000Y-96276000D01*
X46550000Y-100421000D02*
X46550000Y-99190000D01*
X46550000Y-97510000D02*
X46550000Y-96279000D01*
X46510000Y-100417000D02*
X46510000Y-99190000D01*
X46510000Y-97510000D02*
X46510000Y-96283000D01*
X46470000Y-100412000D02*
X46470000Y-99190000D01*
X46470000Y-97510000D02*
X46470000Y-96288000D01*
X46430000Y-100406000D02*
X46430000Y-99190000D01*
X46430000Y-97510000D02*
X46430000Y-96294000D01*
X46390000Y-100400000D02*
X46390000Y-99190000D01*
X46390000Y-97510000D02*
X46390000Y-96300000D01*
X46350000Y-100392000D02*
X46350000Y-99190000D01*
X46350000Y-97510000D02*
X46350000Y-96308000D01*
X46310000Y-100384000D02*
X46310000Y-99190000D01*
X46310000Y-97510000D02*
X46310000Y-96316000D01*
X46270000Y-100375000D02*
X46270000Y-99190000D01*
X46270000Y-97510000D02*
X46270000Y-96325000D01*
X46230000Y-100366000D02*
X46230000Y-99190000D01*
X46230000Y-97510000D02*
X46230000Y-96334000D01*
X46190000Y-100355000D02*
X46190000Y-99190000D01*
X46190000Y-97510000D02*
X46190000Y-96345000D01*
X46150000Y-100344000D02*
X46150000Y-99190000D01*
X46150000Y-97510000D02*
X46150000Y-96356000D01*
X46110000Y-100332000D02*
X46110000Y-99190000D01*
X46110000Y-97510000D02*
X46110000Y-96368000D01*
X46070000Y-100318000D02*
X46070000Y-99190000D01*
X46070000Y-97510000D02*
X46070000Y-96382000D01*
X46029000Y-100304000D02*
X46029000Y-99190000D01*
X46029000Y-97510000D02*
X46029000Y-96396000D01*
X45989000Y-100290000D02*
X45989000Y-99190000D01*
X45989000Y-97510000D02*
X45989000Y-96410000D01*
X45949000Y-100274000D02*
X45949000Y-99190000D01*
X45949000Y-97510000D02*
X45949000Y-96426000D01*
X45909000Y-100257000D02*
X45909000Y-99190000D01*
X45909000Y-97510000D02*
X45909000Y-96443000D01*
X45869000Y-100239000D02*
X45869000Y-99190000D01*
X45869000Y-97510000D02*
X45869000Y-96461000D01*
X45829000Y-100220000D02*
X45829000Y-99190000D01*
X45829000Y-97510000D02*
X45829000Y-96480000D01*
X45789000Y-100201000D02*
X45789000Y-99190000D01*
X45789000Y-97510000D02*
X45789000Y-96499000D01*
X45749000Y-100180000D02*
X45749000Y-99190000D01*
X45749000Y-97510000D02*
X45749000Y-96520000D01*
X45709000Y-100158000D02*
X45709000Y-99190000D01*
X45709000Y-97510000D02*
X45709000Y-96542000D01*
X45669000Y-100135000D02*
X45669000Y-99190000D01*
X45669000Y-97510000D02*
X45669000Y-96565000D01*
X45629000Y-100110000D02*
X45629000Y-99190000D01*
X45629000Y-97510000D02*
X45629000Y-96590000D01*
X45589000Y-100085000D02*
X45589000Y-99190000D01*
X45589000Y-97510000D02*
X45589000Y-96615000D01*
X45549000Y-100058000D02*
X45549000Y-99190000D01*
X45549000Y-97510000D02*
X45549000Y-96642000D01*
X45509000Y-100030000D02*
X45509000Y-99190000D01*
X45509000Y-97510000D02*
X45509000Y-96670000D01*
X45469000Y-100000000D02*
X45469000Y-99190000D01*
X45469000Y-97510000D02*
X45469000Y-96700000D01*
X45429000Y-99969000D02*
X45429000Y-99190000D01*
X45429000Y-97510000D02*
X45429000Y-96731000D01*
X45389000Y-99937000D02*
X45389000Y-99190000D01*
X45389000Y-97510000D02*
X45389000Y-96763000D01*
X45349000Y-99902000D02*
X45349000Y-99190000D01*
X45349000Y-97510000D02*
X45349000Y-96798000D01*
X45309000Y-99866000D02*
X45309000Y-99190000D01*
X45309000Y-97510000D02*
X45309000Y-96834000D01*
X45269000Y-99828000D02*
X45269000Y-99190000D01*
X45269000Y-97510000D02*
X45269000Y-96872000D01*
X45229000Y-99788000D02*
X45229000Y-99190000D01*
X45229000Y-97510000D02*
X45229000Y-96912000D01*
X45189000Y-99746000D02*
X45189000Y-99190000D01*
X45189000Y-97510000D02*
X45189000Y-96954000D01*
X45149000Y-99701000D02*
X45149000Y-96999000D01*
X45109000Y-99654000D02*
X45109000Y-97046000D01*
X45069000Y-99604000D02*
X45069000Y-97096000D01*
X45029000Y-99550000D02*
X45029000Y-97150000D01*
X44989000Y-99492000D02*
X44989000Y-97208000D01*
X44949000Y-99430000D02*
X44949000Y-97270000D01*
X44909000Y-99363000D02*
X44909000Y-97337000D01*
X44869000Y-99290000D02*
X44869000Y-97410000D01*
X44829000Y-99209000D02*
X44829000Y-97491000D01*
X44789000Y-99118000D02*
X44789000Y-97582000D01*
X44749000Y-99014000D02*
X44749000Y-97686000D01*
X44709000Y-98887000D02*
X44709000Y-97813000D01*
X44669000Y-98720000D02*
X44669000Y-97980000D01*
X49019801Y-99545000D02*
X48619801Y-99545000D01*
X48819801Y-99745000D02*
X48819801Y-99345000D01*
%TO.C,J4*%
X55790000Y-103510000D02*
X55790000Y-105250000D01*
X54050000Y-103510000D02*
X55790000Y-103510000D01*
X55550000Y-112950000D02*
X53550000Y-112950000D01*
X55550000Y-110150000D02*
X55550000Y-112950000D01*
X55550000Y-103750000D02*
X55550000Y-106550000D01*
X40950000Y-103750000D02*
X55550000Y-103750000D01*
X40950000Y-112950000D02*
X40950000Y-103750000D01*
X49950000Y-112950000D02*
X40950000Y-112950000D01*
%TO.C,U2*%
D10*
X62248095Y-78752380D02*
X62248095Y-79561904D01*
X62295714Y-79657142D01*
X62343333Y-79704761D01*
X62438571Y-79752380D01*
X62629047Y-79752380D01*
X62724285Y-79704761D01*
X62771904Y-79657142D01*
X62819523Y-79561904D01*
X62819523Y-78752380D01*
X63248095Y-78847619D02*
X63295714Y-78800000D01*
X63390952Y-78752380D01*
X63629047Y-78752380D01*
X63724285Y-78800000D01*
X63771904Y-78847619D01*
X63819523Y-78942857D01*
X63819523Y-79038095D01*
X63771904Y-79180952D01*
X63200476Y-79752380D01*
X63819523Y-79752380D01*
%TO.C,U1*%
X116308095Y-79802380D02*
X116308095Y-80611904D01*
X116355714Y-80707142D01*
X116403333Y-80754761D01*
X116498571Y-80802380D01*
X116689047Y-80802380D01*
X116784285Y-80754761D01*
X116831904Y-80707142D01*
X116879523Y-80611904D01*
X116879523Y-79802380D01*
X117879523Y-80802380D02*
X117308095Y-80802380D01*
X117593809Y-80802380D02*
X117593809Y-79802380D01*
X117498571Y-79945238D01*
X117403333Y-80040476D01*
X117308095Y-80088095D01*
%TO.C,U3*%
X43238095Y-144952380D02*
X43238095Y-145761904D01*
X43285714Y-145857142D01*
X43333333Y-145904761D01*
X43428571Y-145952380D01*
X43619047Y-145952380D01*
X43714285Y-145904761D01*
X43761904Y-145857142D01*
X43809523Y-145761904D01*
X43809523Y-144952380D01*
X44190476Y-144952380D02*
X44809523Y-144952380D01*
X44476190Y-145333333D01*
X44619047Y-145333333D01*
X44714285Y-145380952D01*
X44761904Y-145428571D01*
X44809523Y-145523809D01*
X44809523Y-145761904D01*
X44761904Y-145857142D01*
X44714285Y-145904761D01*
X44619047Y-145952380D01*
X44333333Y-145952380D01*
X44238095Y-145904761D01*
X44190476Y-145857142D01*
%TO.C,L1*%
X143333333Y-98452380D02*
X142857142Y-98452380D01*
X142857142Y-97452380D01*
X144190476Y-98452380D02*
X143619047Y-98452380D01*
X143904761Y-98452380D02*
X143904761Y-97452380D01*
X143809523Y-97595238D01*
X143714285Y-97690476D01*
X143619047Y-97738095D01*
%TO.C,L2*%
X89833333Y-98452380D02*
X89357142Y-98452380D01*
X89357142Y-97452380D01*
X90119047Y-97547619D02*
X90166666Y-97500000D01*
X90261904Y-97452380D01*
X90500000Y-97452380D01*
X90595238Y-97500000D01*
X90642857Y-97547619D01*
X90690476Y-97642857D01*
X90690476Y-97738095D01*
X90642857Y-97880952D01*
X90071428Y-98452380D01*
X90690476Y-98452380D01*
%TO.C,H3*%
X143488095Y-61102380D02*
X143488095Y-60102380D01*
X143488095Y-60578571D02*
X144059523Y-60578571D01*
X144059523Y-61102380D02*
X144059523Y-60102380D01*
X144440476Y-60102380D02*
X145059523Y-60102380D01*
X144726190Y-60483333D01*
X144869047Y-60483333D01*
X144964285Y-60530952D01*
X145011904Y-60578571D01*
X145059523Y-60673809D01*
X145059523Y-60911904D01*
X145011904Y-61007142D01*
X144964285Y-61054761D01*
X144869047Y-61102380D01*
X144583333Y-61102380D01*
X144488095Y-61054761D01*
X144440476Y-61007142D01*
%TO.C,J5*%
X40416666Y-132072380D02*
X40416666Y-132786666D01*
X40369047Y-132929523D01*
X40273809Y-133024761D01*
X40130952Y-133072380D01*
X40035714Y-133072380D01*
X41369047Y-132072380D02*
X40892857Y-132072380D01*
X40845238Y-132548571D01*
X40892857Y-132500952D01*
X40988095Y-132453333D01*
X41226190Y-132453333D01*
X41321428Y-132500952D01*
X41369047Y-132548571D01*
X41416666Y-132643809D01*
X41416666Y-132881904D01*
X41369047Y-132977142D01*
X41321428Y-133024761D01*
X41226190Y-133072380D01*
X40988095Y-133072380D01*
X40892857Y-133024761D01*
X40845238Y-132977142D01*
%TO.C,D1*%
X113592380Y-92078095D02*
X112592380Y-92078095D01*
X112592380Y-91840000D01*
X112640000Y-91697142D01*
X112735238Y-91601904D01*
X112830476Y-91554285D01*
X113020952Y-91506666D01*
X113163809Y-91506666D01*
X113354285Y-91554285D01*
X113449523Y-91601904D01*
X113544761Y-91697142D01*
X113592380Y-91840000D01*
X113592380Y-92078095D01*
X113592380Y-90554285D02*
X113592380Y-91125714D01*
X113592380Y-90840000D02*
X112592380Y-90840000D01*
X112735238Y-90935238D01*
X112830476Y-91030476D01*
X112878095Y-91125714D01*
X112472380Y-85251904D02*
X111472380Y-85251904D01*
X112472380Y-84680476D02*
X111900952Y-85109047D01*
X111472380Y-84680476D02*
X112043809Y-85251904D01*
%TO.C,C1*%
X110437142Y-73016666D02*
X110484761Y-73064285D01*
X110532380Y-73207142D01*
X110532380Y-73302380D01*
X110484761Y-73445238D01*
X110389523Y-73540476D01*
X110294285Y-73588095D01*
X110103809Y-73635714D01*
X109960952Y-73635714D01*
X109770476Y-73588095D01*
X109675238Y-73540476D01*
X109580000Y-73445238D01*
X109532380Y-73302380D01*
X109532380Y-73207142D01*
X109580000Y-73064285D01*
X109627619Y-73016666D01*
X110532380Y-72064285D02*
X110532380Y-72635714D01*
X110532380Y-72350000D02*
X109532380Y-72350000D01*
X109675238Y-72445238D01*
X109770476Y-72540476D01*
X109818095Y-72635714D01*
%TO.C,C2*%
X120757142Y-85556666D02*
X120804761Y-85604285D01*
X120852380Y-85747142D01*
X120852380Y-85842380D01*
X120804761Y-85985238D01*
X120709523Y-86080476D01*
X120614285Y-86128095D01*
X120423809Y-86175714D01*
X120280952Y-86175714D01*
X120090476Y-86128095D01*
X119995238Y-86080476D01*
X119900000Y-85985238D01*
X119852380Y-85842380D01*
X119852380Y-85747142D01*
X119900000Y-85604285D01*
X119947619Y-85556666D01*
X119947619Y-85175714D02*
X119900000Y-85128095D01*
X119852380Y-85032857D01*
X119852380Y-84794761D01*
X119900000Y-84699523D01*
X119947619Y-84651904D01*
X120042857Y-84604285D01*
X120138095Y-84604285D01*
X120280952Y-84651904D01*
X120852380Y-85223333D01*
X120852380Y-84604285D01*
%TO.C,C6*%
X141347142Y-72596666D02*
X141394761Y-72644285D01*
X141442380Y-72787142D01*
X141442380Y-72882380D01*
X141394761Y-73025238D01*
X141299523Y-73120476D01*
X141204285Y-73168095D01*
X141013809Y-73215714D01*
X140870952Y-73215714D01*
X140680476Y-73168095D01*
X140585238Y-73120476D01*
X140490000Y-73025238D01*
X140442380Y-72882380D01*
X140442380Y-72787142D01*
X140490000Y-72644285D01*
X140537619Y-72596666D01*
X140442380Y-71739523D02*
X140442380Y-71930000D01*
X140490000Y-72025238D01*
X140537619Y-72072857D01*
X140680476Y-72168095D01*
X140870952Y-72215714D01*
X141251904Y-72215714D01*
X141347142Y-72168095D01*
X141394761Y-72120476D01*
X141442380Y-72025238D01*
X141442380Y-71834761D01*
X141394761Y-71739523D01*
X141347142Y-71691904D01*
X141251904Y-71644285D01*
X141013809Y-71644285D01*
X140918571Y-71691904D01*
X140870952Y-71739523D01*
X140823333Y-71834761D01*
X140823333Y-72025238D01*
X140870952Y-72120476D01*
X140918571Y-72168095D01*
X141013809Y-72215714D01*
%TO.C,H4*%
X34488095Y-61102380D02*
X34488095Y-60102380D01*
X34488095Y-60578571D02*
X35059523Y-60578571D01*
X35059523Y-61102380D02*
X35059523Y-60102380D01*
X35964285Y-60435714D02*
X35964285Y-61102380D01*
X35726190Y-60054761D02*
X35488095Y-60769047D01*
X36107142Y-60769047D01*
%TO.C,H2*%
X34488095Y-182102380D02*
X34488095Y-181102380D01*
X34488095Y-181578571D02*
X35059523Y-181578571D01*
X35059523Y-182102380D02*
X35059523Y-181102380D01*
X35488095Y-181197619D02*
X35535714Y-181150000D01*
X35630952Y-181102380D01*
X35869047Y-181102380D01*
X35964285Y-181150000D01*
X36011904Y-181197619D01*
X36059523Y-181292857D01*
X36059523Y-181388095D01*
X36011904Y-181530952D01*
X35440476Y-182102380D01*
X36059523Y-182102380D01*
%TO.C,D2*%
X59532380Y-91028095D02*
X58532380Y-91028095D01*
X58532380Y-90790000D01*
X58580000Y-90647142D01*
X58675238Y-90551904D01*
X58770476Y-90504285D01*
X58960952Y-90456666D01*
X59103809Y-90456666D01*
X59294285Y-90504285D01*
X59389523Y-90551904D01*
X59484761Y-90647142D01*
X59532380Y-90790000D01*
X59532380Y-91028095D01*
X58627619Y-90075714D02*
X58580000Y-90028095D01*
X58532380Y-89932857D01*
X58532380Y-89694761D01*
X58580000Y-89599523D01*
X58627619Y-89551904D01*
X58722857Y-89504285D01*
X58818095Y-89504285D01*
X58960952Y-89551904D01*
X59532380Y-90123333D01*
X59532380Y-89504285D01*
X58412380Y-84201904D02*
X57412380Y-84201904D01*
X58412380Y-83630476D02*
X57840952Y-84059047D01*
X57412380Y-83630476D02*
X57983809Y-84201904D01*
%TO.C,C7*%
X72607142Y-72516666D02*
X72654761Y-72564285D01*
X72702380Y-72707142D01*
X72702380Y-72802380D01*
X72654761Y-72945238D01*
X72559523Y-73040476D01*
X72464285Y-73088095D01*
X72273809Y-73135714D01*
X72130952Y-73135714D01*
X71940476Y-73088095D01*
X71845238Y-73040476D01*
X71750000Y-72945238D01*
X71702380Y-72802380D01*
X71702380Y-72707142D01*
X71750000Y-72564285D01*
X71797619Y-72516666D01*
X71702380Y-72183333D02*
X71702380Y-71516666D01*
X72702380Y-71945238D01*
%TO.C,C4*%
X66697142Y-84506666D02*
X66744761Y-84554285D01*
X66792380Y-84697142D01*
X66792380Y-84792380D01*
X66744761Y-84935238D01*
X66649523Y-85030476D01*
X66554285Y-85078095D01*
X66363809Y-85125714D01*
X66220952Y-85125714D01*
X66030476Y-85078095D01*
X65935238Y-85030476D01*
X65840000Y-84935238D01*
X65792380Y-84792380D01*
X65792380Y-84697142D01*
X65840000Y-84554285D01*
X65887619Y-84506666D01*
X66125714Y-83649523D02*
X66792380Y-83649523D01*
X65744761Y-83887619D02*
X66459047Y-84125714D01*
X66459047Y-83506666D01*
%TO.C,C3*%
X56377142Y-72426666D02*
X56424761Y-72474285D01*
X56472380Y-72617142D01*
X56472380Y-72712380D01*
X56424761Y-72855238D01*
X56329523Y-72950476D01*
X56234285Y-72998095D01*
X56043809Y-73045714D01*
X55900952Y-73045714D01*
X55710476Y-72998095D01*
X55615238Y-72950476D01*
X55520000Y-72855238D01*
X55472380Y-72712380D01*
X55472380Y-72617142D01*
X55520000Y-72474285D01*
X55567619Y-72426666D01*
X55472380Y-72093333D02*
X55472380Y-71474285D01*
X55853333Y-71807619D01*
X55853333Y-71664761D01*
X55900952Y-71569523D01*
X55948571Y-71521904D01*
X56043809Y-71474285D01*
X56281904Y-71474285D01*
X56377142Y-71521904D01*
X56424761Y-71569523D01*
X56472380Y-71664761D01*
X56472380Y-71950476D01*
X56424761Y-72045714D01*
X56377142Y-72093333D01*
%TO.C,C5*%
X46583333Y-101957142D02*
X46535714Y-102004761D01*
X46392857Y-102052380D01*
X46297619Y-102052380D01*
X46154761Y-102004761D01*
X46059523Y-101909523D01*
X46011904Y-101814285D01*
X45964285Y-101623809D01*
X45964285Y-101480952D01*
X46011904Y-101290476D01*
X46059523Y-101195238D01*
X46154761Y-101100000D01*
X46297619Y-101052380D01*
X46392857Y-101052380D01*
X46535714Y-101100000D01*
X46583333Y-101147619D01*
X47488095Y-101052380D02*
X47011904Y-101052380D01*
X46964285Y-101528571D01*
X47011904Y-101480952D01*
X47107142Y-101433333D01*
X47345238Y-101433333D01*
X47440476Y-101480952D01*
X47488095Y-101528571D01*
X47535714Y-101623809D01*
X47535714Y-101861904D01*
X47488095Y-101957142D01*
X47440476Y-102004761D01*
X47345238Y-102052380D01*
X47107142Y-102052380D01*
X47011904Y-102004761D01*
X46964285Y-101957142D01*
%TO.C,J4*%
X41166666Y-101952380D02*
X41166666Y-102666666D01*
X41119047Y-102809523D01*
X41023809Y-102904761D01*
X40880952Y-102952380D01*
X40785714Y-102952380D01*
X42071428Y-102285714D02*
X42071428Y-102952380D01*
X41833333Y-101904761D02*
X41595238Y-102619047D01*
X42214285Y-102619047D01*
%TD*%
M02*
