M48
; DRILL file {KiCad (5.1.9)-1} date 02/08/22 11:23:21
; FORMAT={3:3/ absolute / metric / suppress leading zeros}
; #@! TF.CreationDate,2022-02-08T11:23:21-08:00
; #@! TF.GenerationSoftware,Kicad,Pcbnew,(5.1.9)-1
FMAT,2
METRIC,TZ
T1C0.600
T2C0.800
T3C1.000
T4C1.100
T5C1.200
T6C1.600
T7C1.829
T8C2.700
%
G90
G05
T1
X46000Y-98350
X47500Y-98350
T2
X63840Y-83090
X63840Y-85590
X117900Y-84140
X117900Y-86640
T3
X40750Y-124770
X40750Y-127310
X40750Y-129850
X46995Y-145725
X49535Y-145725
X52075Y-145725
X54615Y-145725
X57155Y-145725
X59695Y-145725
X62235Y-145725
X64775Y-145725
X67315Y-145725
X69855Y-145725
X72395Y-145725
X74935Y-145725
X77870Y-155870
X77870Y-158410
X77870Y-160950
X77870Y-163490
X77870Y-166030
X77870Y-168570
X77870Y-171110
X77870Y-173650
X77870Y-176190
X77870Y-178730
X77870Y-181270
X77870Y-183810
X94280Y-132350
X94280Y-134890
X94280Y-137430
X94280Y-139970
X94280Y-142510
X94280Y-145050
X94280Y-147590
X94280Y-150130
X94280Y-152670
X94280Y-155210
X94280Y-157750
X94280Y-160290
X94280Y-162830
X94280Y-165370
X94280Y-167910
X94280Y-170450
X94280Y-172990
X94280Y-175530
X94280Y-178070
X94280Y-180610
X96820Y-132350
X96820Y-134890
X96820Y-137430
X96820Y-139970
X96820Y-142510
X96820Y-145050
X96820Y-147590
X96820Y-150130
X96820Y-152670
X96820Y-155210
X96820Y-157750
X96820Y-160290
X96820Y-162830
X96820Y-165370
X96820Y-167910
X96820Y-170450
X96820Y-172990
X96820Y-175530
X96820Y-178070
X96820Y-180610
T4
X60040Y-76230
X61310Y-71130
X62580Y-76230
X63850Y-71130
X65120Y-76230
X66390Y-71130
X67660Y-76230
X114100Y-77280
X115370Y-72180
X116640Y-77280
X117910Y-72180
X119180Y-77280
X120450Y-72180
X121720Y-77280
T5
X48520Y-69760
X48520Y-74760
X79750Y-69850
X79750Y-74850
X102580Y-70350
X102580Y-75350
X133490Y-69930
X133490Y-74930
T6
X48750Y-108350
X51750Y-113050
X54750Y-108350
X55360Y-83940
X55360Y-96640
X109420Y-84990
X109420Y-97690
T7
X71570Y-97030
X85780Y-97030
X125630Y-98080
X139840Y-98080
T8
X35250Y-64350
X35250Y-185350
X95550Y-127450
X95550Y-185450
X144250Y-64350
X144550Y-127450
X144550Y-185450
T0
M30
