%TF.GenerationSoftware,KiCad,Pcbnew,(5.1.9)-1*%
%TF.CreationDate,2022-02-08T11:22:36-08:00*%
%TF.ProjectId,controller_board,636f6e74-726f-46c6-9c65-725f626f6172,rev?*%
%TF.SameCoordinates,Original*%
%TF.FileFunction,Copper,L1,Top*%
%TF.FilePolarity,Positive*%
%FSLAX46Y46*%
G04 Gerber Fmt 4.6, Leading zero omitted, Abs format (unit mm)*
G04 Created by KiCad (PCBNEW (5.1.9)-1) date 2022-02-08 11:22:36*
%MOMM*%
%LPD*%
G01*
G04 APERTURE LIST*
%TA.AperFunction,ComponentPad*%
%ADD10O,1.800000X1.800000*%
%TD*%
%TA.AperFunction,ComponentPad*%
%ADD11R,1.800000X1.800000*%
%TD*%
%TA.AperFunction,ComponentPad*%
%ADD12O,1.700000X1.700000*%
%TD*%
%TA.AperFunction,ComponentPad*%
%ADD13R,1.700000X1.700000*%
%TD*%
%TA.AperFunction,ComponentPad*%
%ADD14C,3.600000*%
%TD*%
%TA.AperFunction,ComponentPad*%
%ADD15R,3.200000X3.200000*%
%TD*%
%TA.AperFunction,ComponentPad*%
%ADD16O,3.200000X3.200000*%
%TD*%
%TA.AperFunction,ComponentPad*%
%ADD17R,2.400000X2.400000*%
%TD*%
%TA.AperFunction,ComponentPad*%
%ADD18C,2.400000*%
%TD*%
%TA.AperFunction,ComponentPad*%
%ADD19C,1.600000*%
%TD*%
%TA.AperFunction,ComponentPad*%
%ADD20C,1.200000*%
%TD*%
%TA.AperFunction,ComponentPad*%
%ADD21R,1.200000X1.200000*%
%TD*%
%TA.AperFunction,ComponentPad*%
%ADD22C,2.600000*%
%TD*%
%TA.AperFunction,ComponentPad*%
%ADD23R,2.600000X2.600000*%
%TD*%
%TA.AperFunction,Conductor*%
%ADD24C,0.500000*%
%TD*%
%TA.AperFunction,Conductor*%
%ADD25C,0.254000*%
%TD*%
%TA.AperFunction,Conductor*%
%ADD26C,0.100000*%
%TD*%
G04 APERTURE END LIST*
D10*
%TO.P,U2,6*%
%TO.N,/V_servo*%
X66390000Y-71130000D03*
%TO.P,U2,4*%
%TO.N,GND*%
X63850000Y-71130000D03*
%TO.P,U2,2*%
%TO.N,/9V*%
X61310000Y-71130000D03*
%TO.P,U2,5*%
%TO.N,Net-(U2-Pad5)*%
X65120000Y-76230000D03*
%TO.P,U2,3*%
%TO.N,Net-(C4-Pad1)*%
X62580000Y-76230000D03*
D11*
%TO.P,U2,1*%
%TO.N,Net-(C4-Pad2)*%
X60040000Y-76230000D03*
D10*
%TO.P,U2,7*%
%TO.N,/Servo_OnOff*%
X67660000Y-76230000D03*
%TD*%
%TO.P,U1,6*%
%TO.N,/5V*%
X120450000Y-72180000D03*
%TO.P,U1,4*%
%TO.N,GND*%
X117910000Y-72180000D03*
%TO.P,U1,2*%
%TO.N,/9V*%
X115370000Y-72180000D03*
%TO.P,U1,5*%
%TO.N,Net-(U1-Pad5)*%
X119180000Y-77280000D03*
%TO.P,U1,3*%
%TO.N,Net-(C2-Pad1)*%
X116640000Y-77280000D03*
D11*
%TO.P,U1,1*%
%TO.N,Net-(C2-Pad2)*%
X114100000Y-77280000D03*
D10*
%TO.P,U1,7*%
%TO.N,Net-(U1-Pad7)*%
X121720000Y-77280000D03*
%TD*%
D12*
%TO.P,J1,24*%
%TO.N,Net-(J1-Pad24)*%
X94280000Y-160290000D03*
%TO.P,J1,27*%
%TO.N,Net-(J1-Pad27)*%
X96820000Y-165370000D03*
%TO.P,J1,15*%
%TO.N,Net-(J1-Pad15)*%
X96820000Y-150130000D03*
%TO.P,J1,35*%
%TO.N,Net-(J1-Pad35)*%
X96820000Y-175530000D03*
%TO.P,J1,5*%
%TO.N,Net-(J1-Pad5)*%
X96820000Y-137430000D03*
%TO.P,J1,34*%
%TO.N,GND*%
X94280000Y-172990000D03*
%TO.P,J1,36*%
%TO.N,Net-(J1-Pad36)*%
X94280000Y-175530000D03*
%TO.P,J1,20*%
%TO.N,GND*%
X94280000Y-155210000D03*
%TO.P,J1,25*%
X96820000Y-162830000D03*
%TO.P,J1,9*%
X96820000Y-142510000D03*
%TO.P,J1,4*%
%TO.N,/5V*%
X94280000Y-134890000D03*
%TO.P,J1,16*%
%TO.N,/Servo_OnOff*%
X94280000Y-150130000D03*
%TO.P,J1,11*%
%TO.N,Net-(J1-Pad11)*%
X96820000Y-145050000D03*
%TO.P,J1,30*%
%TO.N,GND*%
X94280000Y-167910000D03*
%TO.P,J1,28*%
%TO.N,Net-(J1-Pad28)*%
X94280000Y-165370000D03*
%TO.P,J1,17*%
%TO.N,Net-(J1-Pad17)*%
X96820000Y-152670000D03*
%TO.P,J1,32*%
%TO.N,/PWM*%
X94280000Y-170450000D03*
%TO.P,J1,2*%
%TO.N,/5V*%
X94280000Y-132350000D03*
%TO.P,J1,13*%
%TO.N,Net-(J1-Pad13)*%
X96820000Y-147590000D03*
%TO.P,J1,22*%
%TO.N,Net-(J1-Pad22)*%
X94280000Y-157750000D03*
%TO.P,J1,3*%
%TO.N,Net-(J1-Pad3)*%
X96820000Y-134890000D03*
%TO.P,J1,12*%
%TO.N,Net-(J1-Pad12)*%
X94280000Y-145050000D03*
%TO.P,J1,31*%
%TO.N,Net-(J1-Pad31)*%
X96820000Y-170450000D03*
%TO.P,J1,21*%
%TO.N,Net-(J1-Pad21)*%
X96820000Y-157750000D03*
%TO.P,J1,18*%
%TO.N,Net-(J1-Pad18)*%
X94280000Y-152670000D03*
%TO.P,J1,19*%
%TO.N,Net-(J1-Pad19)*%
X96820000Y-155210000D03*
%TO.P,J1,29*%
%TO.N,Net-(J1-Pad29)*%
X96820000Y-167910000D03*
%TO.P,J1,7*%
%TO.N,Net-(J1-Pad7)*%
X96820000Y-139970000D03*
%TO.P,J1,40*%
%TO.N,Net-(J1-Pad40)*%
X94280000Y-180610000D03*
%TO.P,J1,37*%
%TO.N,Net-(J1-Pad37)*%
X96820000Y-178070000D03*
%TO.P,J1,10*%
%TO.N,Net-(J1-Pad10)*%
X94280000Y-142510000D03*
%TO.P,J1,33*%
%TO.N,Net-(J1-Pad33)*%
X96820000Y-172990000D03*
%TO.P,J1,26*%
%TO.N,Net-(J1-Pad26)*%
X94280000Y-162830000D03*
%TO.P,J1,39*%
%TO.N,GND*%
X96820000Y-180610000D03*
%TO.P,J1,38*%
%TO.N,Net-(J1-Pad38)*%
X94280000Y-178070000D03*
%TO.P,J1,8*%
%TO.N,Net-(J1-Pad8)*%
X94280000Y-139970000D03*
%TO.P,J1,14*%
%TO.N,GND*%
X94280000Y-147590000D03*
D13*
%TO.P,J1,1*%
%TO.N,Net-(J1-Pad1)*%
X96820000Y-132350000D03*
D12*
%TO.P,J1,6*%
%TO.N,GND*%
X94280000Y-137430000D03*
%TO.P,J1,23*%
%TO.N,Net-(J1-Pad23)*%
X96820000Y-160290000D03*
%TD*%
%TO.P,U3,3*%
%TO.N,Net-(U3-Pad3)*%
X52075000Y-145725000D03*
%TO.P,U3,12*%
%TO.N,Net-(U3-Pad12)*%
X74935000Y-145725000D03*
%TO.P,U3,4*%
%TO.N,Net-(U3-Pad4)*%
X54615000Y-145725000D03*
%TO.P,U3,5*%
%TO.N,Net-(U3-Pad5)*%
X57155000Y-145725000D03*
%TO.P,U3,11*%
%TO.N,Net-(U3-Pad11)*%
X72395000Y-145725000D03*
D13*
%TO.P,U3,1*%
%TO.N,Net-(U3-Pad1)*%
X46995000Y-145725000D03*
D12*
%TO.P,U3,8*%
%TO.N,Net-(U3-Pad8)*%
X64775000Y-145725000D03*
%TO.P,U3,7*%
%TO.N,Net-(U3-Pad7)*%
X62235000Y-145725000D03*
%TO.P,U3,6*%
%TO.N,Net-(U3-Pad6)*%
X59695000Y-145725000D03*
%TO.P,U3,10*%
%TO.N,Net-(U3-Pad10)*%
X69855000Y-145725000D03*
%TO.P,U3,9*%
%TO.N,Net-(U3-Pad9)*%
X67315000Y-145725000D03*
%TO.P,U3,2*%
%TO.N,Net-(U3-Pad2)*%
X49535000Y-145725000D03*
%TO.P,U3,15*%
%TO.N,Net-(U3-Pad15)*%
X77870000Y-160950000D03*
%TO.P,U3,24*%
%TO.N,Net-(U3-Pad24)*%
X77870000Y-183810000D03*
%TO.P,U3,16*%
%TO.N,Net-(U3-Pad16)*%
X77870000Y-163490000D03*
%TO.P,U3,17*%
%TO.N,Net-(U3-Pad17)*%
X77870000Y-166030000D03*
%TO.P,U3,23*%
%TO.N,Net-(U3-Pad23)*%
X77870000Y-181270000D03*
D13*
%TO.P,U3,13*%
%TO.N,Net-(U3-Pad13)*%
X77870000Y-155870000D03*
D12*
%TO.P,U3,20*%
%TO.N,Net-(U3-Pad20)*%
X77870000Y-173650000D03*
%TO.P,U3,19*%
%TO.N,Net-(U3-Pad19)*%
X77870000Y-171110000D03*
%TO.P,U3,18*%
%TO.N,Net-(U3-Pad18)*%
X77870000Y-168570000D03*
%TO.P,U3,22*%
%TO.N,Net-(U3-Pad22)*%
X77870000Y-178730000D03*
%TO.P,U3,21*%
%TO.N,Net-(U3-Pad21)*%
X77870000Y-176190000D03*
%TO.P,U3,14*%
%TO.N,Net-(U3-Pad14)*%
X77870000Y-158410000D03*
%TD*%
D14*
%TO.P,L1,1*%
%TO.N,/5V*%
X139840000Y-98080000D03*
%TO.P,L1,2*%
%TO.N,Net-(C2-Pad2)*%
X125630000Y-98080000D03*
%TD*%
%TO.P,L2,1*%
%TO.N,/V_servo*%
X85780000Y-97030000D03*
%TO.P,L2,2*%
%TO.N,Net-(C4-Pad2)*%
X71570000Y-97030000D03*
%TD*%
D12*
%TO.P,J5,3*%
%TO.N,GND*%
X40750000Y-124770000D03*
%TO.P,J5,2*%
%TO.N,/V_servo*%
X40750000Y-127310000D03*
D13*
%TO.P,J5,1*%
%TO.N,/PWM*%
X40750000Y-129850000D03*
%TD*%
D15*
%TO.P,D1,1*%
%TO.N,Net-(C2-Pad2)*%
X109420000Y-84990000D03*
D16*
%TO.P,D1,2*%
%TO.N,GND*%
X109420000Y-97690000D03*
%TD*%
D17*
%TO.P,C1,1*%
%TO.N,/9V*%
X102580000Y-70350000D03*
D18*
%TO.P,C1,2*%
%TO.N,GND*%
X102580000Y-75350000D03*
%TD*%
D19*
%TO.P,C2,1*%
%TO.N,Net-(C2-Pad1)*%
X117900000Y-84140000D03*
%TO.P,C2,2*%
%TO.N,Net-(C2-Pad2)*%
X117900000Y-86640000D03*
%TD*%
D17*
%TO.P,C6,1*%
%TO.N,/5V*%
X133490000Y-69930000D03*
D18*
%TO.P,C6,2*%
%TO.N,GND*%
X133490000Y-74930000D03*
%TD*%
D16*
%TO.P,D2,2*%
%TO.N,GND*%
X55360000Y-96640000D03*
D15*
%TO.P,D2,1*%
%TO.N,Net-(C4-Pad2)*%
X55360000Y-83940000D03*
%TD*%
D18*
%TO.P,C7,2*%
%TO.N,GND*%
X79750000Y-69850000D03*
D17*
%TO.P,C7,1*%
%TO.N,/V_servo*%
X79750000Y-74850000D03*
%TD*%
D19*
%TO.P,C4,2*%
%TO.N,Net-(C4-Pad2)*%
X63840000Y-85590000D03*
%TO.P,C4,1*%
%TO.N,Net-(C4-Pad1)*%
X63840000Y-83090000D03*
%TD*%
D18*
%TO.P,C3,2*%
%TO.N,GND*%
X48520000Y-74760000D03*
D17*
%TO.P,C3,1*%
%TO.N,/9V*%
X48520000Y-69760000D03*
%TD*%
D20*
%TO.P,C5,2*%
%TO.N,GND*%
X46000000Y-98350000D03*
D21*
%TO.P,C5,1*%
%TO.N,/9V*%
X47500000Y-98350000D03*
%TD*%
D22*
%TO.P,J4,3*%
%TO.N,Net-(J4-Pad3)*%
X51750000Y-113050000D03*
%TO.P,J4,2*%
%TO.N,GND*%
X48750000Y-108350000D03*
D23*
%TO.P,J4,1*%
%TO.N,/9V*%
X54750000Y-108350000D03*
%TD*%
D24*
%TO.N,/9V*%
X59940000Y-69760000D02*
X61310000Y-71130000D01*
X48520000Y-69760000D02*
X59940000Y-69760000D01*
X113540000Y-70350000D02*
X115370000Y-72180000D01*
X102580000Y-70350000D02*
X113540000Y-70350000D01*
X48520000Y-69760000D02*
X48840000Y-69760000D01*
X48840000Y-69760000D02*
X51750000Y-66850000D01*
X99080000Y-66850000D02*
X102580000Y-70350000D01*
X51750000Y-66850000D02*
X99080000Y-66850000D01*
X45750000Y-72530000D02*
X48520000Y-69760000D01*
X54750000Y-104350000D02*
X54750000Y-108350000D01*
X48750000Y-98350000D02*
X54750000Y-104350000D01*
X47500000Y-98350000D02*
X48750000Y-98350000D01*
X47500000Y-98295998D02*
X47500000Y-98350000D01*
X45750000Y-96545998D02*
X47500000Y-98295998D01*
X45750000Y-72530000D02*
X45750000Y-96545998D01*
%TO.N,/PWM*%
X85990000Y-165590000D02*
X85990000Y-162110000D01*
X85990000Y-162110000D02*
X85990000Y-143590000D01*
X90750000Y-170350000D02*
X89500000Y-169100000D01*
X89500000Y-169100000D02*
X85990000Y-165590000D01*
X93980000Y-170350000D02*
X90750000Y-170350000D01*
X72250000Y-129850000D02*
X77200000Y-134800000D01*
X40750000Y-129850000D02*
X72250000Y-129850000D01*
X77200000Y-134800000D02*
X85990000Y-143590000D01*
%TO.N,Net-(C2-Pad1)*%
X117900000Y-78540000D02*
X116640000Y-77280000D01*
X117900000Y-84140000D02*
X117900000Y-78540000D01*
%TO.N,Net-(C4-Pad1)*%
X62580000Y-81830000D02*
X63840000Y-83090000D01*
X62580000Y-76230000D02*
X62580000Y-81830000D01*
%TO.N,/Servo_OnOff*%
X94280000Y-150130000D02*
X91130000Y-150130000D01*
X91130000Y-150130000D02*
X88000000Y-147000000D01*
X88000000Y-147000000D02*
X88000000Y-125000000D01*
X67660000Y-104660000D02*
X73500000Y-110500000D01*
X67660000Y-76230000D02*
X67660000Y-104660000D01*
X73500000Y-110500000D02*
X72500000Y-109500000D01*
X88000000Y-125000000D02*
X73500000Y-110500000D01*
%TD*%
D25*
%TO.N,GND*%
X148074662Y-188873142D02*
X31538349Y-189004107D01*
X31541268Y-185154495D01*
X33265000Y-185154495D01*
X33265000Y-185545505D01*
X33341282Y-185929003D01*
X33490915Y-186290250D01*
X33708149Y-186615364D01*
X33984636Y-186891851D01*
X34309750Y-187109085D01*
X34670997Y-187258718D01*
X35054495Y-187335000D01*
X35445505Y-187335000D01*
X35829003Y-187258718D01*
X36190250Y-187109085D01*
X36515364Y-186891851D01*
X36791851Y-186615364D01*
X37009085Y-186290250D01*
X37158718Y-185929003D01*
X37235000Y-185545505D01*
X37235000Y-185154495D01*
X37158718Y-184770997D01*
X37009085Y-184409750D01*
X36791851Y-184084636D01*
X36515364Y-183808149D01*
X36190250Y-183590915D01*
X35829003Y-183441282D01*
X35445505Y-183365000D01*
X35054495Y-183365000D01*
X34670997Y-183441282D01*
X34309750Y-183590915D01*
X33984636Y-183808149D01*
X33708149Y-184084636D01*
X33490915Y-184409750D01*
X33341282Y-184770997D01*
X33265000Y-185154495D01*
X31541268Y-185154495D01*
X31564117Y-155020000D01*
X76381928Y-155020000D01*
X76381928Y-156720000D01*
X76394188Y-156844482D01*
X76430498Y-156964180D01*
X76489463Y-157074494D01*
X76568815Y-157171185D01*
X76665506Y-157250537D01*
X76775820Y-157309502D01*
X76848380Y-157331513D01*
X76716525Y-157463368D01*
X76554010Y-157706589D01*
X76442068Y-157976842D01*
X76385000Y-158263740D01*
X76385000Y-158556260D01*
X76442068Y-158843158D01*
X76554010Y-159113411D01*
X76716525Y-159356632D01*
X76923368Y-159563475D01*
X77097760Y-159680000D01*
X76923368Y-159796525D01*
X76716525Y-160003368D01*
X76554010Y-160246589D01*
X76442068Y-160516842D01*
X76385000Y-160803740D01*
X76385000Y-161096260D01*
X76442068Y-161383158D01*
X76554010Y-161653411D01*
X76716525Y-161896632D01*
X76923368Y-162103475D01*
X77097760Y-162220000D01*
X76923368Y-162336525D01*
X76716525Y-162543368D01*
X76554010Y-162786589D01*
X76442068Y-163056842D01*
X76385000Y-163343740D01*
X76385000Y-163636260D01*
X76442068Y-163923158D01*
X76554010Y-164193411D01*
X76716525Y-164436632D01*
X76923368Y-164643475D01*
X77097760Y-164760000D01*
X76923368Y-164876525D01*
X76716525Y-165083368D01*
X76554010Y-165326589D01*
X76442068Y-165596842D01*
X76385000Y-165883740D01*
X76385000Y-166176260D01*
X76442068Y-166463158D01*
X76554010Y-166733411D01*
X76716525Y-166976632D01*
X76923368Y-167183475D01*
X77097760Y-167300000D01*
X76923368Y-167416525D01*
X76716525Y-167623368D01*
X76554010Y-167866589D01*
X76442068Y-168136842D01*
X76385000Y-168423740D01*
X76385000Y-168716260D01*
X76442068Y-169003158D01*
X76554010Y-169273411D01*
X76716525Y-169516632D01*
X76923368Y-169723475D01*
X77097760Y-169840000D01*
X76923368Y-169956525D01*
X76716525Y-170163368D01*
X76554010Y-170406589D01*
X76442068Y-170676842D01*
X76385000Y-170963740D01*
X76385000Y-171256260D01*
X76442068Y-171543158D01*
X76554010Y-171813411D01*
X76716525Y-172056632D01*
X76923368Y-172263475D01*
X77097760Y-172380000D01*
X76923368Y-172496525D01*
X76716525Y-172703368D01*
X76554010Y-172946589D01*
X76442068Y-173216842D01*
X76385000Y-173503740D01*
X76385000Y-173796260D01*
X76442068Y-174083158D01*
X76554010Y-174353411D01*
X76716525Y-174596632D01*
X76923368Y-174803475D01*
X77097760Y-174920000D01*
X76923368Y-175036525D01*
X76716525Y-175243368D01*
X76554010Y-175486589D01*
X76442068Y-175756842D01*
X76385000Y-176043740D01*
X76385000Y-176336260D01*
X76442068Y-176623158D01*
X76554010Y-176893411D01*
X76716525Y-177136632D01*
X76923368Y-177343475D01*
X77097760Y-177460000D01*
X76923368Y-177576525D01*
X76716525Y-177783368D01*
X76554010Y-178026589D01*
X76442068Y-178296842D01*
X76385000Y-178583740D01*
X76385000Y-178876260D01*
X76442068Y-179163158D01*
X76554010Y-179433411D01*
X76716525Y-179676632D01*
X76923368Y-179883475D01*
X77097760Y-180000000D01*
X76923368Y-180116525D01*
X76716525Y-180323368D01*
X76554010Y-180566589D01*
X76442068Y-180836842D01*
X76385000Y-181123740D01*
X76385000Y-181416260D01*
X76442068Y-181703158D01*
X76554010Y-181973411D01*
X76716525Y-182216632D01*
X76923368Y-182423475D01*
X77097760Y-182540000D01*
X76923368Y-182656525D01*
X76716525Y-182863368D01*
X76554010Y-183106589D01*
X76442068Y-183376842D01*
X76385000Y-183663740D01*
X76385000Y-183956260D01*
X76442068Y-184243158D01*
X76554010Y-184513411D01*
X76716525Y-184756632D01*
X76923368Y-184963475D01*
X77166589Y-185125990D01*
X77436842Y-185237932D01*
X77723740Y-185295000D01*
X78016260Y-185295000D01*
X78219890Y-185254495D01*
X93565000Y-185254495D01*
X93565000Y-185645505D01*
X93641282Y-186029003D01*
X93790915Y-186390250D01*
X94008149Y-186715364D01*
X94284636Y-186991851D01*
X94609750Y-187209085D01*
X94970997Y-187358718D01*
X95354495Y-187435000D01*
X95745505Y-187435000D01*
X96129003Y-187358718D01*
X96490250Y-187209085D01*
X96815364Y-186991851D01*
X97091851Y-186715364D01*
X97309085Y-186390250D01*
X97458718Y-186029003D01*
X97535000Y-185645505D01*
X97535000Y-185254495D01*
X142565000Y-185254495D01*
X142565000Y-185645505D01*
X142641282Y-186029003D01*
X142790915Y-186390250D01*
X143008149Y-186715364D01*
X143284636Y-186991851D01*
X143609750Y-187209085D01*
X143970997Y-187358718D01*
X144354495Y-187435000D01*
X144745505Y-187435000D01*
X145129003Y-187358718D01*
X145490250Y-187209085D01*
X145815364Y-186991851D01*
X146091851Y-186715364D01*
X146309085Y-186390250D01*
X146458718Y-186029003D01*
X146535000Y-185645505D01*
X146535000Y-185254495D01*
X146458718Y-184870997D01*
X146309085Y-184509750D01*
X146091851Y-184184636D01*
X145815364Y-183908149D01*
X145490250Y-183690915D01*
X145129003Y-183541282D01*
X144745505Y-183465000D01*
X144354495Y-183465000D01*
X143970997Y-183541282D01*
X143609750Y-183690915D01*
X143284636Y-183908149D01*
X143008149Y-184184636D01*
X142790915Y-184509750D01*
X142641282Y-184870997D01*
X142565000Y-185254495D01*
X97535000Y-185254495D01*
X97458718Y-184870997D01*
X97309085Y-184509750D01*
X97091851Y-184184636D01*
X96815364Y-183908149D01*
X96490250Y-183690915D01*
X96129003Y-183541282D01*
X95745505Y-183465000D01*
X95354495Y-183465000D01*
X94970997Y-183541282D01*
X94609750Y-183690915D01*
X94284636Y-183908149D01*
X94008149Y-184184636D01*
X93790915Y-184509750D01*
X93641282Y-184870997D01*
X93565000Y-185254495D01*
X78219890Y-185254495D01*
X78303158Y-185237932D01*
X78573411Y-185125990D01*
X78816632Y-184963475D01*
X79023475Y-184756632D01*
X79185990Y-184513411D01*
X79297932Y-184243158D01*
X79355000Y-183956260D01*
X79355000Y-183663740D01*
X79297932Y-183376842D01*
X79185990Y-183106589D01*
X79023475Y-182863368D01*
X78816632Y-182656525D01*
X78642240Y-182540000D01*
X78816632Y-182423475D01*
X79023475Y-182216632D01*
X79185990Y-181973411D01*
X79297932Y-181703158D01*
X79355000Y-181416260D01*
X79355000Y-181123740D01*
X79297932Y-180836842D01*
X79185990Y-180566589D01*
X79023475Y-180323368D01*
X78816632Y-180116525D01*
X78642240Y-180000000D01*
X78816632Y-179883475D01*
X79023475Y-179676632D01*
X79185990Y-179433411D01*
X79297932Y-179163158D01*
X79355000Y-178876260D01*
X79355000Y-178583740D01*
X79297932Y-178296842D01*
X79185990Y-178026589D01*
X79023475Y-177783368D01*
X78816632Y-177576525D01*
X78642240Y-177460000D01*
X78816632Y-177343475D01*
X79023475Y-177136632D01*
X79185990Y-176893411D01*
X79297932Y-176623158D01*
X79355000Y-176336260D01*
X79355000Y-176043740D01*
X79297932Y-175756842D01*
X79185990Y-175486589D01*
X79023475Y-175243368D01*
X78816632Y-175036525D01*
X78642240Y-174920000D01*
X78816632Y-174803475D01*
X79023475Y-174596632D01*
X79185990Y-174353411D01*
X79297932Y-174083158D01*
X79355000Y-173796260D01*
X79355000Y-173503740D01*
X79297932Y-173216842D01*
X79185990Y-172946589D01*
X79023475Y-172703368D01*
X78816632Y-172496525D01*
X78642240Y-172380000D01*
X78816632Y-172263475D01*
X79023475Y-172056632D01*
X79185990Y-171813411D01*
X79297932Y-171543158D01*
X79355000Y-171256260D01*
X79355000Y-170963740D01*
X79297932Y-170676842D01*
X79185990Y-170406589D01*
X79023475Y-170163368D01*
X78816632Y-169956525D01*
X78642240Y-169840000D01*
X78816632Y-169723475D01*
X79023475Y-169516632D01*
X79185990Y-169273411D01*
X79297932Y-169003158D01*
X79355000Y-168716260D01*
X79355000Y-168423740D01*
X79297932Y-168136842D01*
X79185990Y-167866589D01*
X79023475Y-167623368D01*
X78816632Y-167416525D01*
X78642240Y-167300000D01*
X78816632Y-167183475D01*
X79023475Y-166976632D01*
X79185990Y-166733411D01*
X79297932Y-166463158D01*
X79355000Y-166176260D01*
X79355000Y-165883740D01*
X79297932Y-165596842D01*
X79185990Y-165326589D01*
X79023475Y-165083368D01*
X78816632Y-164876525D01*
X78642240Y-164760000D01*
X78816632Y-164643475D01*
X79023475Y-164436632D01*
X79185990Y-164193411D01*
X79297932Y-163923158D01*
X79355000Y-163636260D01*
X79355000Y-163343740D01*
X79297932Y-163056842D01*
X79185990Y-162786589D01*
X79023475Y-162543368D01*
X78816632Y-162336525D01*
X78642240Y-162220000D01*
X78816632Y-162103475D01*
X79023475Y-161896632D01*
X79185990Y-161653411D01*
X79297932Y-161383158D01*
X79355000Y-161096260D01*
X79355000Y-160803740D01*
X79297932Y-160516842D01*
X79185990Y-160246589D01*
X79023475Y-160003368D01*
X78816632Y-159796525D01*
X78642240Y-159680000D01*
X78816632Y-159563475D01*
X79023475Y-159356632D01*
X79185990Y-159113411D01*
X79297932Y-158843158D01*
X79355000Y-158556260D01*
X79355000Y-158263740D01*
X79297932Y-157976842D01*
X79185990Y-157706589D01*
X79023475Y-157463368D01*
X78891620Y-157331513D01*
X78964180Y-157309502D01*
X79074494Y-157250537D01*
X79171185Y-157171185D01*
X79250537Y-157074494D01*
X79309502Y-156964180D01*
X79345812Y-156844482D01*
X79358072Y-156720000D01*
X79358072Y-155020000D01*
X79345812Y-154895518D01*
X79309502Y-154775820D01*
X79250537Y-154665506D01*
X79171185Y-154568815D01*
X79074494Y-154489463D01*
X78964180Y-154430498D01*
X78844482Y-154394188D01*
X78720000Y-154381928D01*
X77020000Y-154381928D01*
X76895518Y-154394188D01*
X76775820Y-154430498D01*
X76665506Y-154489463D01*
X76568815Y-154568815D01*
X76489463Y-154665506D01*
X76430498Y-154775820D01*
X76394188Y-154895518D01*
X76381928Y-155020000D01*
X31564117Y-155020000D01*
X31571810Y-144875000D01*
X45506928Y-144875000D01*
X45506928Y-146575000D01*
X45519188Y-146699482D01*
X45555498Y-146819180D01*
X45614463Y-146929494D01*
X45693815Y-147026185D01*
X45790506Y-147105537D01*
X45900820Y-147164502D01*
X46020518Y-147200812D01*
X46145000Y-147213072D01*
X47845000Y-147213072D01*
X47969482Y-147200812D01*
X48089180Y-147164502D01*
X48199494Y-147105537D01*
X48296185Y-147026185D01*
X48375537Y-146929494D01*
X48434502Y-146819180D01*
X48456513Y-146746620D01*
X48588368Y-146878475D01*
X48831589Y-147040990D01*
X49101842Y-147152932D01*
X49388740Y-147210000D01*
X49681260Y-147210000D01*
X49968158Y-147152932D01*
X50238411Y-147040990D01*
X50481632Y-146878475D01*
X50688475Y-146671632D01*
X50805000Y-146497240D01*
X50921525Y-146671632D01*
X51128368Y-146878475D01*
X51371589Y-147040990D01*
X51641842Y-147152932D01*
X51928740Y-147210000D01*
X52221260Y-147210000D01*
X52508158Y-147152932D01*
X52778411Y-147040990D01*
X53021632Y-146878475D01*
X53228475Y-146671632D01*
X53345000Y-146497240D01*
X53461525Y-146671632D01*
X53668368Y-146878475D01*
X53911589Y-147040990D01*
X54181842Y-147152932D01*
X54468740Y-147210000D01*
X54761260Y-147210000D01*
X55048158Y-147152932D01*
X55318411Y-147040990D01*
X55561632Y-146878475D01*
X55768475Y-146671632D01*
X55885000Y-146497240D01*
X56001525Y-146671632D01*
X56208368Y-146878475D01*
X56451589Y-147040990D01*
X56721842Y-147152932D01*
X57008740Y-147210000D01*
X57301260Y-147210000D01*
X57588158Y-147152932D01*
X57858411Y-147040990D01*
X58101632Y-146878475D01*
X58308475Y-146671632D01*
X58425000Y-146497240D01*
X58541525Y-146671632D01*
X58748368Y-146878475D01*
X58991589Y-147040990D01*
X59261842Y-147152932D01*
X59548740Y-147210000D01*
X59841260Y-147210000D01*
X60128158Y-147152932D01*
X60398411Y-147040990D01*
X60641632Y-146878475D01*
X60848475Y-146671632D01*
X60965000Y-146497240D01*
X61081525Y-146671632D01*
X61288368Y-146878475D01*
X61531589Y-147040990D01*
X61801842Y-147152932D01*
X62088740Y-147210000D01*
X62381260Y-147210000D01*
X62668158Y-147152932D01*
X62938411Y-147040990D01*
X63181632Y-146878475D01*
X63388475Y-146671632D01*
X63505000Y-146497240D01*
X63621525Y-146671632D01*
X63828368Y-146878475D01*
X64071589Y-147040990D01*
X64341842Y-147152932D01*
X64628740Y-147210000D01*
X64921260Y-147210000D01*
X65208158Y-147152932D01*
X65478411Y-147040990D01*
X65721632Y-146878475D01*
X65928475Y-146671632D01*
X66045000Y-146497240D01*
X66161525Y-146671632D01*
X66368368Y-146878475D01*
X66611589Y-147040990D01*
X66881842Y-147152932D01*
X67168740Y-147210000D01*
X67461260Y-147210000D01*
X67748158Y-147152932D01*
X68018411Y-147040990D01*
X68261632Y-146878475D01*
X68468475Y-146671632D01*
X68585000Y-146497240D01*
X68701525Y-146671632D01*
X68908368Y-146878475D01*
X69151589Y-147040990D01*
X69421842Y-147152932D01*
X69708740Y-147210000D01*
X70001260Y-147210000D01*
X70288158Y-147152932D01*
X70558411Y-147040990D01*
X70801632Y-146878475D01*
X71008475Y-146671632D01*
X71125000Y-146497240D01*
X71241525Y-146671632D01*
X71448368Y-146878475D01*
X71691589Y-147040990D01*
X71961842Y-147152932D01*
X72248740Y-147210000D01*
X72541260Y-147210000D01*
X72828158Y-147152932D01*
X73098411Y-147040990D01*
X73341632Y-146878475D01*
X73548475Y-146671632D01*
X73665000Y-146497240D01*
X73781525Y-146671632D01*
X73988368Y-146878475D01*
X74231589Y-147040990D01*
X74501842Y-147152932D01*
X74788740Y-147210000D01*
X75081260Y-147210000D01*
X75368158Y-147152932D01*
X75638411Y-147040990D01*
X75881632Y-146878475D01*
X76088475Y-146671632D01*
X76250990Y-146428411D01*
X76362932Y-146158158D01*
X76420000Y-145871260D01*
X76420000Y-145578740D01*
X76362932Y-145291842D01*
X76250990Y-145021589D01*
X76088475Y-144778368D01*
X75881632Y-144571525D01*
X75638411Y-144409010D01*
X75368158Y-144297068D01*
X75081260Y-144240000D01*
X74788740Y-144240000D01*
X74501842Y-144297068D01*
X74231589Y-144409010D01*
X73988368Y-144571525D01*
X73781525Y-144778368D01*
X73665000Y-144952760D01*
X73548475Y-144778368D01*
X73341632Y-144571525D01*
X73098411Y-144409010D01*
X72828158Y-144297068D01*
X72541260Y-144240000D01*
X72248740Y-144240000D01*
X71961842Y-144297068D01*
X71691589Y-144409010D01*
X71448368Y-144571525D01*
X71241525Y-144778368D01*
X71125000Y-144952760D01*
X71008475Y-144778368D01*
X70801632Y-144571525D01*
X70558411Y-144409010D01*
X70288158Y-144297068D01*
X70001260Y-144240000D01*
X69708740Y-144240000D01*
X69421842Y-144297068D01*
X69151589Y-144409010D01*
X68908368Y-144571525D01*
X68701525Y-144778368D01*
X68585000Y-144952760D01*
X68468475Y-144778368D01*
X68261632Y-144571525D01*
X68018411Y-144409010D01*
X67748158Y-144297068D01*
X67461260Y-144240000D01*
X67168740Y-144240000D01*
X66881842Y-144297068D01*
X66611589Y-144409010D01*
X66368368Y-144571525D01*
X66161525Y-144778368D01*
X66045000Y-144952760D01*
X65928475Y-144778368D01*
X65721632Y-144571525D01*
X65478411Y-144409010D01*
X65208158Y-144297068D01*
X64921260Y-144240000D01*
X64628740Y-144240000D01*
X64341842Y-144297068D01*
X64071589Y-144409010D01*
X63828368Y-144571525D01*
X63621525Y-144778368D01*
X63505000Y-144952760D01*
X63388475Y-144778368D01*
X63181632Y-144571525D01*
X62938411Y-144409010D01*
X62668158Y-144297068D01*
X62381260Y-144240000D01*
X62088740Y-144240000D01*
X61801842Y-144297068D01*
X61531589Y-144409010D01*
X61288368Y-144571525D01*
X61081525Y-144778368D01*
X60965000Y-144952760D01*
X60848475Y-144778368D01*
X60641632Y-144571525D01*
X60398411Y-144409010D01*
X60128158Y-144297068D01*
X59841260Y-144240000D01*
X59548740Y-144240000D01*
X59261842Y-144297068D01*
X58991589Y-144409010D01*
X58748368Y-144571525D01*
X58541525Y-144778368D01*
X58425000Y-144952760D01*
X58308475Y-144778368D01*
X58101632Y-144571525D01*
X57858411Y-144409010D01*
X57588158Y-144297068D01*
X57301260Y-144240000D01*
X57008740Y-144240000D01*
X56721842Y-144297068D01*
X56451589Y-144409010D01*
X56208368Y-144571525D01*
X56001525Y-144778368D01*
X55885000Y-144952760D01*
X55768475Y-144778368D01*
X55561632Y-144571525D01*
X55318411Y-144409010D01*
X55048158Y-144297068D01*
X54761260Y-144240000D01*
X54468740Y-144240000D01*
X54181842Y-144297068D01*
X53911589Y-144409010D01*
X53668368Y-144571525D01*
X53461525Y-144778368D01*
X53345000Y-144952760D01*
X53228475Y-144778368D01*
X53021632Y-144571525D01*
X52778411Y-144409010D01*
X52508158Y-144297068D01*
X52221260Y-144240000D01*
X51928740Y-144240000D01*
X51641842Y-144297068D01*
X51371589Y-144409010D01*
X51128368Y-144571525D01*
X50921525Y-144778368D01*
X50805000Y-144952760D01*
X50688475Y-144778368D01*
X50481632Y-144571525D01*
X50238411Y-144409010D01*
X49968158Y-144297068D01*
X49681260Y-144240000D01*
X49388740Y-144240000D01*
X49101842Y-144297068D01*
X48831589Y-144409010D01*
X48588368Y-144571525D01*
X48456513Y-144703380D01*
X48434502Y-144630820D01*
X48375537Y-144520506D01*
X48296185Y-144423815D01*
X48199494Y-144344463D01*
X48089180Y-144285498D01*
X47969482Y-144249188D01*
X47845000Y-144236928D01*
X46145000Y-144236928D01*
X46020518Y-144249188D01*
X45900820Y-144285498D01*
X45790506Y-144344463D01*
X45693815Y-144423815D01*
X45614463Y-144520506D01*
X45555498Y-144630820D01*
X45519188Y-144750518D01*
X45506928Y-144875000D01*
X31571810Y-144875000D01*
X31583848Y-129000000D01*
X39261928Y-129000000D01*
X39261928Y-130700000D01*
X39274188Y-130824482D01*
X39310498Y-130944180D01*
X39369463Y-131054494D01*
X39448815Y-131151185D01*
X39545506Y-131230537D01*
X39655820Y-131289502D01*
X39775518Y-131325812D01*
X39900000Y-131338072D01*
X41600000Y-131338072D01*
X41724482Y-131325812D01*
X41844180Y-131289502D01*
X41954494Y-131230537D01*
X42051185Y-131151185D01*
X42130537Y-131054494D01*
X42189502Y-130944180D01*
X42225812Y-130824482D01*
X42234625Y-130735000D01*
X71883422Y-130735000D01*
X76604953Y-135456532D01*
X76604959Y-135456537D01*
X85105001Y-143956580D01*
X85105000Y-162153476D01*
X85105001Y-162153486D01*
X85105000Y-165546531D01*
X85100719Y-165590000D01*
X85105000Y-165633469D01*
X85105000Y-165633476D01*
X85117805Y-165763489D01*
X85168411Y-165930312D01*
X85250589Y-166084058D01*
X85361183Y-166218817D01*
X85394956Y-166246534D01*
X88904953Y-169756532D01*
X88904958Y-169756536D01*
X90093470Y-170945049D01*
X90121183Y-170978817D01*
X90154951Y-171006530D01*
X90154953Y-171006532D01*
X90226452Y-171065210D01*
X90255941Y-171089411D01*
X90409687Y-171171589D01*
X90525903Y-171206843D01*
X90576509Y-171222195D01*
X90591306Y-171223652D01*
X90706523Y-171235000D01*
X90706531Y-171235000D01*
X90750000Y-171239281D01*
X90793469Y-171235000D01*
X93018526Y-171235000D01*
X93126525Y-171396632D01*
X93333368Y-171603475D01*
X93515534Y-171725195D01*
X93398645Y-171794822D01*
X93182412Y-171989731D01*
X93008359Y-172223080D01*
X92883175Y-172485901D01*
X92838524Y-172633110D01*
X92959845Y-172863000D01*
X94153000Y-172863000D01*
X94153000Y-172843000D01*
X94407000Y-172843000D01*
X94407000Y-172863000D01*
X94427000Y-172863000D01*
X94427000Y-173117000D01*
X94407000Y-173117000D01*
X94407000Y-173137000D01*
X94153000Y-173137000D01*
X94153000Y-173117000D01*
X92959845Y-173117000D01*
X92838524Y-173346890D01*
X92883175Y-173494099D01*
X93008359Y-173756920D01*
X93182412Y-173990269D01*
X93398645Y-174185178D01*
X93515534Y-174254805D01*
X93333368Y-174376525D01*
X93126525Y-174583368D01*
X92964010Y-174826589D01*
X92852068Y-175096842D01*
X92795000Y-175383740D01*
X92795000Y-175676260D01*
X92852068Y-175963158D01*
X92964010Y-176233411D01*
X93126525Y-176476632D01*
X93333368Y-176683475D01*
X93507760Y-176800000D01*
X93333368Y-176916525D01*
X93126525Y-177123368D01*
X92964010Y-177366589D01*
X92852068Y-177636842D01*
X92795000Y-177923740D01*
X92795000Y-178216260D01*
X92852068Y-178503158D01*
X92964010Y-178773411D01*
X93126525Y-179016632D01*
X93333368Y-179223475D01*
X93507760Y-179340000D01*
X93333368Y-179456525D01*
X93126525Y-179663368D01*
X92964010Y-179906589D01*
X92852068Y-180176842D01*
X92795000Y-180463740D01*
X92795000Y-180756260D01*
X92852068Y-181043158D01*
X92964010Y-181313411D01*
X93126525Y-181556632D01*
X93333368Y-181763475D01*
X93576589Y-181925990D01*
X93846842Y-182037932D01*
X94133740Y-182095000D01*
X94426260Y-182095000D01*
X94713158Y-182037932D01*
X94983411Y-181925990D01*
X95226632Y-181763475D01*
X95433475Y-181556632D01*
X95551100Y-181380594D01*
X95722412Y-181610269D01*
X95938645Y-181805178D01*
X96188748Y-181954157D01*
X96463109Y-182051481D01*
X96693000Y-181930814D01*
X96693000Y-180737000D01*
X96947000Y-180737000D01*
X96947000Y-181930814D01*
X97176891Y-182051481D01*
X97451252Y-181954157D01*
X97701355Y-181805178D01*
X97917588Y-181610269D01*
X98091641Y-181376920D01*
X98216825Y-181114099D01*
X98261476Y-180966890D01*
X98140155Y-180737000D01*
X96947000Y-180737000D01*
X96693000Y-180737000D01*
X96673000Y-180737000D01*
X96673000Y-180483000D01*
X96693000Y-180483000D01*
X96693000Y-180463000D01*
X96947000Y-180463000D01*
X96947000Y-180483000D01*
X98140155Y-180483000D01*
X98261476Y-180253110D01*
X98216825Y-180105901D01*
X98091641Y-179843080D01*
X97917588Y-179609731D01*
X97701355Y-179414822D01*
X97584466Y-179345195D01*
X97766632Y-179223475D01*
X97973475Y-179016632D01*
X98135990Y-178773411D01*
X98247932Y-178503158D01*
X98305000Y-178216260D01*
X98305000Y-177923740D01*
X98247932Y-177636842D01*
X98135990Y-177366589D01*
X97973475Y-177123368D01*
X97766632Y-176916525D01*
X97592240Y-176800000D01*
X97766632Y-176683475D01*
X97973475Y-176476632D01*
X98135990Y-176233411D01*
X98247932Y-175963158D01*
X98305000Y-175676260D01*
X98305000Y-175383740D01*
X98247932Y-175096842D01*
X98135990Y-174826589D01*
X97973475Y-174583368D01*
X97766632Y-174376525D01*
X97592240Y-174260000D01*
X97766632Y-174143475D01*
X97973475Y-173936632D01*
X98135990Y-173693411D01*
X98247932Y-173423158D01*
X98305000Y-173136260D01*
X98305000Y-172843740D01*
X98247932Y-172556842D01*
X98135990Y-172286589D01*
X97973475Y-172043368D01*
X97766632Y-171836525D01*
X97592240Y-171720000D01*
X97766632Y-171603475D01*
X97973475Y-171396632D01*
X98135990Y-171153411D01*
X98247932Y-170883158D01*
X98305000Y-170596260D01*
X98305000Y-170303740D01*
X98247932Y-170016842D01*
X98135990Y-169746589D01*
X97973475Y-169503368D01*
X97766632Y-169296525D01*
X97592240Y-169180000D01*
X97766632Y-169063475D01*
X97973475Y-168856632D01*
X98135990Y-168613411D01*
X98247932Y-168343158D01*
X98305000Y-168056260D01*
X98305000Y-167763740D01*
X98247932Y-167476842D01*
X98135990Y-167206589D01*
X97973475Y-166963368D01*
X97766632Y-166756525D01*
X97592240Y-166640000D01*
X97766632Y-166523475D01*
X97973475Y-166316632D01*
X98135990Y-166073411D01*
X98247932Y-165803158D01*
X98305000Y-165516260D01*
X98305000Y-165223740D01*
X98247932Y-164936842D01*
X98135990Y-164666589D01*
X97973475Y-164423368D01*
X97766632Y-164216525D01*
X97584466Y-164094805D01*
X97701355Y-164025178D01*
X97917588Y-163830269D01*
X98091641Y-163596920D01*
X98216825Y-163334099D01*
X98261476Y-163186890D01*
X98140155Y-162957000D01*
X96947000Y-162957000D01*
X96947000Y-162977000D01*
X96693000Y-162977000D01*
X96693000Y-162957000D01*
X96673000Y-162957000D01*
X96673000Y-162703000D01*
X96693000Y-162703000D01*
X96693000Y-162683000D01*
X96947000Y-162683000D01*
X96947000Y-162703000D01*
X98140155Y-162703000D01*
X98261476Y-162473110D01*
X98216825Y-162325901D01*
X98091641Y-162063080D01*
X97917588Y-161829731D01*
X97701355Y-161634822D01*
X97584466Y-161565195D01*
X97766632Y-161443475D01*
X97973475Y-161236632D01*
X98135990Y-160993411D01*
X98247932Y-160723158D01*
X98305000Y-160436260D01*
X98305000Y-160143740D01*
X98247932Y-159856842D01*
X98135990Y-159586589D01*
X97973475Y-159343368D01*
X97766632Y-159136525D01*
X97592240Y-159020000D01*
X97766632Y-158903475D01*
X97973475Y-158696632D01*
X98135990Y-158453411D01*
X98247932Y-158183158D01*
X98305000Y-157896260D01*
X98305000Y-157603740D01*
X98247932Y-157316842D01*
X98135990Y-157046589D01*
X97973475Y-156803368D01*
X97766632Y-156596525D01*
X97592240Y-156480000D01*
X97766632Y-156363475D01*
X97973475Y-156156632D01*
X98135990Y-155913411D01*
X98247932Y-155643158D01*
X98305000Y-155356260D01*
X98305000Y-155063740D01*
X98247932Y-154776842D01*
X98135990Y-154506589D01*
X97973475Y-154263368D01*
X97766632Y-154056525D01*
X97592240Y-153940000D01*
X97766632Y-153823475D01*
X97973475Y-153616632D01*
X98135990Y-153373411D01*
X98247932Y-153103158D01*
X98305000Y-152816260D01*
X98305000Y-152523740D01*
X98247932Y-152236842D01*
X98135990Y-151966589D01*
X97973475Y-151723368D01*
X97766632Y-151516525D01*
X97592240Y-151400000D01*
X97766632Y-151283475D01*
X97973475Y-151076632D01*
X98135990Y-150833411D01*
X98247932Y-150563158D01*
X98305000Y-150276260D01*
X98305000Y-149983740D01*
X98247932Y-149696842D01*
X98135990Y-149426589D01*
X97973475Y-149183368D01*
X97766632Y-148976525D01*
X97592240Y-148860000D01*
X97766632Y-148743475D01*
X97973475Y-148536632D01*
X98135990Y-148293411D01*
X98247932Y-148023158D01*
X98305000Y-147736260D01*
X98305000Y-147443740D01*
X98247932Y-147156842D01*
X98135990Y-146886589D01*
X97973475Y-146643368D01*
X97766632Y-146436525D01*
X97592240Y-146320000D01*
X97766632Y-146203475D01*
X97973475Y-145996632D01*
X98135990Y-145753411D01*
X98247932Y-145483158D01*
X98305000Y-145196260D01*
X98305000Y-144903740D01*
X98247932Y-144616842D01*
X98135990Y-144346589D01*
X97973475Y-144103368D01*
X97766632Y-143896525D01*
X97584466Y-143774805D01*
X97701355Y-143705178D01*
X97917588Y-143510269D01*
X98091641Y-143276920D01*
X98216825Y-143014099D01*
X98261476Y-142866890D01*
X98140155Y-142637000D01*
X96947000Y-142637000D01*
X96947000Y-142657000D01*
X96693000Y-142657000D01*
X96693000Y-142637000D01*
X96673000Y-142637000D01*
X96673000Y-142383000D01*
X96693000Y-142383000D01*
X96693000Y-142363000D01*
X96947000Y-142363000D01*
X96947000Y-142383000D01*
X98140155Y-142383000D01*
X98261476Y-142153110D01*
X98216825Y-142005901D01*
X98091641Y-141743080D01*
X97917588Y-141509731D01*
X97701355Y-141314822D01*
X97584466Y-141245195D01*
X97766632Y-141123475D01*
X97973475Y-140916632D01*
X98135990Y-140673411D01*
X98247932Y-140403158D01*
X98305000Y-140116260D01*
X98305000Y-139823740D01*
X98247932Y-139536842D01*
X98135990Y-139266589D01*
X97973475Y-139023368D01*
X97766632Y-138816525D01*
X97592240Y-138700000D01*
X97766632Y-138583475D01*
X97973475Y-138376632D01*
X98135990Y-138133411D01*
X98247932Y-137863158D01*
X98305000Y-137576260D01*
X98305000Y-137283740D01*
X98247932Y-136996842D01*
X98135990Y-136726589D01*
X97973475Y-136483368D01*
X97766632Y-136276525D01*
X97592240Y-136160000D01*
X97766632Y-136043475D01*
X97973475Y-135836632D01*
X98135990Y-135593411D01*
X98247932Y-135323158D01*
X98305000Y-135036260D01*
X98305000Y-134743740D01*
X98247932Y-134456842D01*
X98135990Y-134186589D01*
X97973475Y-133943368D01*
X97841620Y-133811513D01*
X97914180Y-133789502D01*
X98024494Y-133730537D01*
X98121185Y-133651185D01*
X98200537Y-133554494D01*
X98259502Y-133444180D01*
X98295812Y-133324482D01*
X98308072Y-133200000D01*
X98308072Y-131500000D01*
X98295812Y-131375518D01*
X98259502Y-131255820D01*
X98200537Y-131145506D01*
X98121185Y-131048815D01*
X98024494Y-130969463D01*
X97914180Y-130910498D01*
X97794482Y-130874188D01*
X97670000Y-130861928D01*
X95970000Y-130861928D01*
X95845518Y-130874188D01*
X95725820Y-130910498D01*
X95615506Y-130969463D01*
X95518815Y-131048815D01*
X95439463Y-131145506D01*
X95380498Y-131255820D01*
X95358487Y-131328380D01*
X95226632Y-131196525D01*
X94983411Y-131034010D01*
X94713158Y-130922068D01*
X94426260Y-130865000D01*
X94133740Y-130865000D01*
X93846842Y-130922068D01*
X93576589Y-131034010D01*
X93333368Y-131196525D01*
X93126525Y-131403368D01*
X92964010Y-131646589D01*
X92852068Y-131916842D01*
X92795000Y-132203740D01*
X92795000Y-132496260D01*
X92852068Y-132783158D01*
X92964010Y-133053411D01*
X93126525Y-133296632D01*
X93333368Y-133503475D01*
X93507760Y-133620000D01*
X93333368Y-133736525D01*
X93126525Y-133943368D01*
X92964010Y-134186589D01*
X92852068Y-134456842D01*
X92795000Y-134743740D01*
X92795000Y-135036260D01*
X92852068Y-135323158D01*
X92964010Y-135593411D01*
X93126525Y-135836632D01*
X93333368Y-136043475D01*
X93515534Y-136165195D01*
X93398645Y-136234822D01*
X93182412Y-136429731D01*
X93008359Y-136663080D01*
X92883175Y-136925901D01*
X92838524Y-137073110D01*
X92959845Y-137303000D01*
X94153000Y-137303000D01*
X94153000Y-137283000D01*
X94407000Y-137283000D01*
X94407000Y-137303000D01*
X94427000Y-137303000D01*
X94427000Y-137557000D01*
X94407000Y-137557000D01*
X94407000Y-137577000D01*
X94153000Y-137577000D01*
X94153000Y-137557000D01*
X92959845Y-137557000D01*
X92838524Y-137786890D01*
X92883175Y-137934099D01*
X93008359Y-138196920D01*
X93182412Y-138430269D01*
X93398645Y-138625178D01*
X93515534Y-138694805D01*
X93333368Y-138816525D01*
X93126525Y-139023368D01*
X92964010Y-139266589D01*
X92852068Y-139536842D01*
X92795000Y-139823740D01*
X92795000Y-140116260D01*
X92852068Y-140403158D01*
X92964010Y-140673411D01*
X93126525Y-140916632D01*
X93333368Y-141123475D01*
X93507760Y-141240000D01*
X93333368Y-141356525D01*
X93126525Y-141563368D01*
X92964010Y-141806589D01*
X92852068Y-142076842D01*
X92795000Y-142363740D01*
X92795000Y-142656260D01*
X92852068Y-142943158D01*
X92964010Y-143213411D01*
X93126525Y-143456632D01*
X93333368Y-143663475D01*
X93507760Y-143780000D01*
X93333368Y-143896525D01*
X93126525Y-144103368D01*
X92964010Y-144346589D01*
X92852068Y-144616842D01*
X92795000Y-144903740D01*
X92795000Y-145196260D01*
X92852068Y-145483158D01*
X92964010Y-145753411D01*
X93126525Y-145996632D01*
X93333368Y-146203475D01*
X93515534Y-146325195D01*
X93398645Y-146394822D01*
X93182412Y-146589731D01*
X93008359Y-146823080D01*
X92883175Y-147085901D01*
X92838524Y-147233110D01*
X92959845Y-147463000D01*
X94153000Y-147463000D01*
X94153000Y-147443000D01*
X94407000Y-147443000D01*
X94407000Y-147463000D01*
X94427000Y-147463000D01*
X94427000Y-147717000D01*
X94407000Y-147717000D01*
X94407000Y-147737000D01*
X94153000Y-147737000D01*
X94153000Y-147717000D01*
X92959845Y-147717000D01*
X92838524Y-147946890D01*
X92883175Y-148094099D01*
X93008359Y-148356920D01*
X93182412Y-148590269D01*
X93398645Y-148785178D01*
X93515534Y-148854805D01*
X93333368Y-148976525D01*
X93126525Y-149183368D01*
X93085344Y-149245000D01*
X91496579Y-149245000D01*
X88885000Y-146633422D01*
X88885000Y-127254495D01*
X93565000Y-127254495D01*
X93565000Y-127645505D01*
X93641282Y-128029003D01*
X93790915Y-128390250D01*
X94008149Y-128715364D01*
X94284636Y-128991851D01*
X94609750Y-129209085D01*
X94970997Y-129358718D01*
X95354495Y-129435000D01*
X95745505Y-129435000D01*
X96129003Y-129358718D01*
X96490250Y-129209085D01*
X96815364Y-128991851D01*
X97091851Y-128715364D01*
X97309085Y-128390250D01*
X97458718Y-128029003D01*
X97535000Y-127645505D01*
X97535000Y-127254495D01*
X142565000Y-127254495D01*
X142565000Y-127645505D01*
X142641282Y-128029003D01*
X142790915Y-128390250D01*
X143008149Y-128715364D01*
X143284636Y-128991851D01*
X143609750Y-129209085D01*
X143970997Y-129358718D01*
X144354495Y-129435000D01*
X144745505Y-129435000D01*
X145129003Y-129358718D01*
X145490250Y-129209085D01*
X145815364Y-128991851D01*
X146091851Y-128715364D01*
X146309085Y-128390250D01*
X146458718Y-128029003D01*
X146535000Y-127645505D01*
X146535000Y-127254495D01*
X146458718Y-126870997D01*
X146309085Y-126509750D01*
X146091851Y-126184636D01*
X145815364Y-125908149D01*
X145490250Y-125690915D01*
X145129003Y-125541282D01*
X144745505Y-125465000D01*
X144354495Y-125465000D01*
X143970997Y-125541282D01*
X143609750Y-125690915D01*
X143284636Y-125908149D01*
X143008149Y-126184636D01*
X142790915Y-126509750D01*
X142641282Y-126870997D01*
X142565000Y-127254495D01*
X97535000Y-127254495D01*
X97458718Y-126870997D01*
X97309085Y-126509750D01*
X97091851Y-126184636D01*
X96815364Y-125908149D01*
X96490250Y-125690915D01*
X96129003Y-125541282D01*
X95745505Y-125465000D01*
X95354495Y-125465000D01*
X94970997Y-125541282D01*
X94609750Y-125690915D01*
X94284636Y-125908149D01*
X94008149Y-126184636D01*
X93790915Y-126509750D01*
X93641282Y-126870997D01*
X93565000Y-127254495D01*
X88885000Y-127254495D01*
X88885000Y-125043469D01*
X88889281Y-125000000D01*
X88885000Y-124956531D01*
X88885000Y-124956523D01*
X88872195Y-124826510D01*
X88821589Y-124659687D01*
X88821589Y-124659686D01*
X88739411Y-124505941D01*
X88656532Y-124404953D01*
X88656530Y-124404951D01*
X88628817Y-124371183D01*
X88595049Y-124343470D01*
X74156537Y-109904959D01*
X74156532Y-109904953D01*
X73639262Y-109387683D01*
X68545000Y-104293422D01*
X68545000Y-96790173D01*
X69135000Y-96790173D01*
X69135000Y-97269827D01*
X69228576Y-97740263D01*
X69412131Y-98183405D01*
X69678612Y-98582222D01*
X70017778Y-98921388D01*
X70416595Y-99187869D01*
X70859737Y-99371424D01*
X71330173Y-99465000D01*
X71809827Y-99465000D01*
X72280263Y-99371424D01*
X72723405Y-99187869D01*
X73122222Y-98921388D01*
X73461388Y-98582222D01*
X73727869Y-98183405D01*
X73911424Y-97740263D01*
X74005000Y-97269827D01*
X74005000Y-96790173D01*
X83345000Y-96790173D01*
X83345000Y-97269827D01*
X83438576Y-97740263D01*
X83622131Y-98183405D01*
X83888612Y-98582222D01*
X84227778Y-98921388D01*
X84626595Y-99187869D01*
X85069737Y-99371424D01*
X85540173Y-99465000D01*
X86019827Y-99465000D01*
X86490263Y-99371424D01*
X86933405Y-99187869D01*
X87332222Y-98921388D01*
X87671388Y-98582222D01*
X87937869Y-98183405D01*
X87945698Y-98164503D01*
X107235947Y-98164503D01*
X107370484Y-98581473D01*
X107583783Y-98964184D01*
X107867646Y-99297929D01*
X108211165Y-99569882D01*
X108601139Y-99769593D01*
X108945497Y-99874050D01*
X109293000Y-99762362D01*
X109293000Y-97817000D01*
X109547000Y-97817000D01*
X109547000Y-99762362D01*
X109894503Y-99874050D01*
X110238861Y-99769593D01*
X110628835Y-99569882D01*
X110972354Y-99297929D01*
X111256217Y-98964184D01*
X111469516Y-98581473D01*
X111604053Y-98164503D01*
X111500072Y-97840173D01*
X123195000Y-97840173D01*
X123195000Y-98319827D01*
X123288576Y-98790263D01*
X123472131Y-99233405D01*
X123738612Y-99632222D01*
X124077778Y-99971388D01*
X124476595Y-100237869D01*
X124919737Y-100421424D01*
X125390173Y-100515000D01*
X125869827Y-100515000D01*
X126340263Y-100421424D01*
X126783405Y-100237869D01*
X127182222Y-99971388D01*
X127521388Y-99632222D01*
X127787869Y-99233405D01*
X127971424Y-98790263D01*
X128065000Y-98319827D01*
X128065000Y-97840173D01*
X137405000Y-97840173D01*
X137405000Y-98319827D01*
X137498576Y-98790263D01*
X137682131Y-99233405D01*
X137948612Y-99632222D01*
X138287778Y-99971388D01*
X138686595Y-100237869D01*
X139129737Y-100421424D01*
X139600173Y-100515000D01*
X140079827Y-100515000D01*
X140550263Y-100421424D01*
X140993405Y-100237869D01*
X141392222Y-99971388D01*
X141731388Y-99632222D01*
X141997869Y-99233405D01*
X142181424Y-98790263D01*
X142275000Y-98319827D01*
X142275000Y-97840173D01*
X142181424Y-97369737D01*
X141997869Y-96926595D01*
X141731388Y-96527778D01*
X141392222Y-96188612D01*
X140993405Y-95922131D01*
X140550263Y-95738576D01*
X140079827Y-95645000D01*
X139600173Y-95645000D01*
X139129737Y-95738576D01*
X138686595Y-95922131D01*
X138287778Y-96188612D01*
X137948612Y-96527778D01*
X137682131Y-96926595D01*
X137498576Y-97369737D01*
X137405000Y-97840173D01*
X128065000Y-97840173D01*
X127971424Y-97369737D01*
X127787869Y-96926595D01*
X127521388Y-96527778D01*
X127182222Y-96188612D01*
X126783405Y-95922131D01*
X126340263Y-95738576D01*
X125869827Y-95645000D01*
X125390173Y-95645000D01*
X124919737Y-95738576D01*
X124476595Y-95922131D01*
X124077778Y-96188612D01*
X123738612Y-96527778D01*
X123472131Y-96926595D01*
X123288576Y-97369737D01*
X123195000Y-97840173D01*
X111500072Y-97840173D01*
X111492642Y-97817000D01*
X109547000Y-97817000D01*
X109293000Y-97817000D01*
X107347358Y-97817000D01*
X107235947Y-98164503D01*
X87945698Y-98164503D01*
X88121424Y-97740263D01*
X88215000Y-97269827D01*
X88215000Y-97215497D01*
X107235947Y-97215497D01*
X107347358Y-97563000D01*
X109293000Y-97563000D01*
X109293000Y-95617638D01*
X109547000Y-95617638D01*
X109547000Y-97563000D01*
X111492642Y-97563000D01*
X111604053Y-97215497D01*
X111469516Y-96798527D01*
X111256217Y-96415816D01*
X110972354Y-96082071D01*
X110628835Y-95810118D01*
X110238861Y-95610407D01*
X109894503Y-95505950D01*
X109547000Y-95617638D01*
X109293000Y-95617638D01*
X108945497Y-95505950D01*
X108601139Y-95610407D01*
X108211165Y-95810118D01*
X107867646Y-96082071D01*
X107583783Y-96415816D01*
X107370484Y-96798527D01*
X107235947Y-97215497D01*
X88215000Y-97215497D01*
X88215000Y-96790173D01*
X88121424Y-96319737D01*
X87937869Y-95876595D01*
X87671388Y-95477778D01*
X87332222Y-95138612D01*
X86933405Y-94872131D01*
X86490263Y-94688576D01*
X86019827Y-94595000D01*
X85540173Y-94595000D01*
X85069737Y-94688576D01*
X84626595Y-94872131D01*
X84227778Y-95138612D01*
X83888612Y-95477778D01*
X83622131Y-95876595D01*
X83438576Y-96319737D01*
X83345000Y-96790173D01*
X74005000Y-96790173D01*
X73911424Y-96319737D01*
X73727869Y-95876595D01*
X73461388Y-95477778D01*
X73122222Y-95138612D01*
X72723405Y-94872131D01*
X72280263Y-94688576D01*
X71809827Y-94595000D01*
X71330173Y-94595000D01*
X70859737Y-94688576D01*
X70416595Y-94872131D01*
X70017778Y-95138612D01*
X69678612Y-95477778D01*
X69412131Y-95876595D01*
X69228576Y-96319737D01*
X69135000Y-96790173D01*
X68545000Y-96790173D01*
X68545000Y-83390000D01*
X107181928Y-83390000D01*
X107181928Y-86590000D01*
X107194188Y-86714482D01*
X107230498Y-86834180D01*
X107289463Y-86944494D01*
X107368815Y-87041185D01*
X107465506Y-87120537D01*
X107575820Y-87179502D01*
X107695518Y-87215812D01*
X107820000Y-87228072D01*
X111020000Y-87228072D01*
X111144482Y-87215812D01*
X111264180Y-87179502D01*
X111374494Y-87120537D01*
X111471185Y-87041185D01*
X111550537Y-86944494D01*
X111609502Y-86834180D01*
X111645812Y-86714482D01*
X111658072Y-86590000D01*
X111658072Y-83390000D01*
X111645812Y-83265518D01*
X111609502Y-83145820D01*
X111550537Y-83035506D01*
X111471185Y-82938815D01*
X111374494Y-82859463D01*
X111264180Y-82800498D01*
X111144482Y-82764188D01*
X111020000Y-82751928D01*
X107820000Y-82751928D01*
X107695518Y-82764188D01*
X107575820Y-82800498D01*
X107465506Y-82859463D01*
X107368815Y-82938815D01*
X107289463Y-83035506D01*
X107230498Y-83145820D01*
X107194188Y-83265518D01*
X107181928Y-83390000D01*
X68545000Y-83390000D01*
X68545000Y-77484790D01*
X68638505Y-77422312D01*
X68852312Y-77208505D01*
X69020299Y-76957095D01*
X69136011Y-76677743D01*
X69195000Y-76381184D01*
X69195000Y-76078816D01*
X69136011Y-75782257D01*
X69020299Y-75502905D01*
X68852312Y-75251495D01*
X68638505Y-75037688D01*
X68387095Y-74869701D01*
X68107743Y-74753989D01*
X67811184Y-74695000D01*
X67508816Y-74695000D01*
X67212257Y-74753989D01*
X66932905Y-74869701D01*
X66681495Y-75037688D01*
X66467688Y-75251495D01*
X66390000Y-75367763D01*
X66312312Y-75251495D01*
X66098505Y-75037688D01*
X65847095Y-74869701D01*
X65567743Y-74753989D01*
X65271184Y-74695000D01*
X64968816Y-74695000D01*
X64672257Y-74753989D01*
X64392905Y-74869701D01*
X64141495Y-75037688D01*
X63927688Y-75251495D01*
X63850000Y-75367763D01*
X63772312Y-75251495D01*
X63558505Y-75037688D01*
X63307095Y-74869701D01*
X63027743Y-74753989D01*
X62731184Y-74695000D01*
X62428816Y-74695000D01*
X62132257Y-74753989D01*
X61852905Y-74869701D01*
X61601495Y-75037688D01*
X61535056Y-75104127D01*
X61529502Y-75085820D01*
X61470537Y-74975506D01*
X61391185Y-74878815D01*
X61294494Y-74799463D01*
X61184180Y-74740498D01*
X61064482Y-74704188D01*
X60940000Y-74691928D01*
X59140000Y-74691928D01*
X59015518Y-74704188D01*
X58895820Y-74740498D01*
X58785506Y-74799463D01*
X58688815Y-74878815D01*
X58609463Y-74975506D01*
X58550498Y-75085820D01*
X58514188Y-75205518D01*
X58501928Y-75330000D01*
X58501928Y-77130000D01*
X58514188Y-77254482D01*
X58550498Y-77374180D01*
X58609463Y-77484494D01*
X58688815Y-77581185D01*
X58785506Y-77660537D01*
X58895820Y-77719502D01*
X59015518Y-77755812D01*
X59140000Y-77768072D01*
X60940000Y-77768072D01*
X61064482Y-77755812D01*
X61184180Y-77719502D01*
X61294494Y-77660537D01*
X61391185Y-77581185D01*
X61470537Y-77484494D01*
X61529502Y-77374180D01*
X61535056Y-77355873D01*
X61601495Y-77422312D01*
X61695000Y-77484790D01*
X61695001Y-81786521D01*
X61690719Y-81830000D01*
X61707805Y-82003490D01*
X61758412Y-82170313D01*
X61840590Y-82324059D01*
X61923468Y-82425046D01*
X61923471Y-82425049D01*
X61951184Y-82458817D01*
X61984951Y-82486529D01*
X62411983Y-82913561D01*
X62405000Y-82948665D01*
X62405000Y-83231335D01*
X62460147Y-83508574D01*
X62568320Y-83769727D01*
X62725363Y-84004759D01*
X62925241Y-84204637D01*
X63127827Y-84340000D01*
X62925241Y-84475363D01*
X62725363Y-84675241D01*
X62568320Y-84910273D01*
X62460147Y-85171426D01*
X62405000Y-85448665D01*
X62405000Y-85731335D01*
X62460147Y-86008574D01*
X62568320Y-86269727D01*
X62725363Y-86504759D01*
X62925241Y-86704637D01*
X63160273Y-86861680D01*
X63421426Y-86969853D01*
X63698665Y-87025000D01*
X63981335Y-87025000D01*
X64258574Y-86969853D01*
X64519727Y-86861680D01*
X64754759Y-86704637D01*
X64954637Y-86504759D01*
X65111680Y-86269727D01*
X65219853Y-86008574D01*
X65275000Y-85731335D01*
X65275000Y-85448665D01*
X65219853Y-85171426D01*
X65111680Y-84910273D01*
X64954637Y-84675241D01*
X64754759Y-84475363D01*
X64552173Y-84340000D01*
X64754759Y-84204637D01*
X64954637Y-84004759D01*
X65111680Y-83769727D01*
X65219853Y-83508574D01*
X65275000Y-83231335D01*
X65275000Y-82948665D01*
X65219853Y-82671426D01*
X65111680Y-82410273D01*
X64954637Y-82175241D01*
X64754759Y-81975363D01*
X64519727Y-81818320D01*
X64258574Y-81710147D01*
X63981335Y-81655000D01*
X63698665Y-81655000D01*
X63663561Y-81661983D01*
X63465000Y-81463422D01*
X63465000Y-77484790D01*
X63558505Y-77422312D01*
X63772312Y-77208505D01*
X63850000Y-77092237D01*
X63927688Y-77208505D01*
X64141495Y-77422312D01*
X64392905Y-77590299D01*
X64672257Y-77706011D01*
X64968816Y-77765000D01*
X65271184Y-77765000D01*
X65567743Y-77706011D01*
X65847095Y-77590299D01*
X66098505Y-77422312D01*
X66312312Y-77208505D01*
X66390000Y-77092237D01*
X66467688Y-77208505D01*
X66681495Y-77422312D01*
X66775000Y-77484790D01*
X66775001Y-104616521D01*
X66770719Y-104660000D01*
X66787805Y-104833490D01*
X66838412Y-105000313D01*
X66920590Y-105154059D01*
X67003468Y-105255046D01*
X67003471Y-105255049D01*
X67031184Y-105288817D01*
X67064952Y-105316530D01*
X72421910Y-110673489D01*
X72904953Y-111156532D01*
X72904959Y-111156537D01*
X87115001Y-125366580D01*
X87115000Y-146956531D01*
X87110719Y-147000000D01*
X87115000Y-147043469D01*
X87115000Y-147043476D01*
X87125780Y-147152932D01*
X87127805Y-147173490D01*
X87143157Y-147224096D01*
X87178411Y-147340312D01*
X87260589Y-147494058D01*
X87371183Y-147628817D01*
X87404956Y-147656534D01*
X90473470Y-150725049D01*
X90501183Y-150758817D01*
X90534951Y-150786530D01*
X90534953Y-150786532D01*
X90592075Y-150833411D01*
X90635941Y-150869411D01*
X90789687Y-150951589D01*
X90956510Y-151002195D01*
X91086523Y-151015000D01*
X91086533Y-151015000D01*
X91129999Y-151019281D01*
X91173465Y-151015000D01*
X93085344Y-151015000D01*
X93126525Y-151076632D01*
X93333368Y-151283475D01*
X93507760Y-151400000D01*
X93333368Y-151516525D01*
X93126525Y-151723368D01*
X92964010Y-151966589D01*
X92852068Y-152236842D01*
X92795000Y-152523740D01*
X92795000Y-152816260D01*
X92852068Y-153103158D01*
X92964010Y-153373411D01*
X93126525Y-153616632D01*
X93333368Y-153823475D01*
X93515534Y-153945195D01*
X93398645Y-154014822D01*
X93182412Y-154209731D01*
X93008359Y-154443080D01*
X92883175Y-154705901D01*
X92838524Y-154853110D01*
X92959845Y-155083000D01*
X94153000Y-155083000D01*
X94153000Y-155063000D01*
X94407000Y-155063000D01*
X94407000Y-155083000D01*
X94427000Y-155083000D01*
X94427000Y-155337000D01*
X94407000Y-155337000D01*
X94407000Y-155357000D01*
X94153000Y-155357000D01*
X94153000Y-155337000D01*
X92959845Y-155337000D01*
X92838524Y-155566890D01*
X92883175Y-155714099D01*
X93008359Y-155976920D01*
X93182412Y-156210269D01*
X93398645Y-156405178D01*
X93515534Y-156474805D01*
X93333368Y-156596525D01*
X93126525Y-156803368D01*
X92964010Y-157046589D01*
X92852068Y-157316842D01*
X92795000Y-157603740D01*
X92795000Y-157896260D01*
X92852068Y-158183158D01*
X92964010Y-158453411D01*
X93126525Y-158696632D01*
X93333368Y-158903475D01*
X93507760Y-159020000D01*
X93333368Y-159136525D01*
X93126525Y-159343368D01*
X92964010Y-159586589D01*
X92852068Y-159856842D01*
X92795000Y-160143740D01*
X92795000Y-160436260D01*
X92852068Y-160723158D01*
X92964010Y-160993411D01*
X93126525Y-161236632D01*
X93333368Y-161443475D01*
X93507760Y-161560000D01*
X93333368Y-161676525D01*
X93126525Y-161883368D01*
X92964010Y-162126589D01*
X92852068Y-162396842D01*
X92795000Y-162683740D01*
X92795000Y-162976260D01*
X92852068Y-163263158D01*
X92964010Y-163533411D01*
X93126525Y-163776632D01*
X93333368Y-163983475D01*
X93507760Y-164100000D01*
X93333368Y-164216525D01*
X93126525Y-164423368D01*
X92964010Y-164666589D01*
X92852068Y-164936842D01*
X92795000Y-165223740D01*
X92795000Y-165516260D01*
X92852068Y-165803158D01*
X92964010Y-166073411D01*
X93126525Y-166316632D01*
X93333368Y-166523475D01*
X93515534Y-166645195D01*
X93398645Y-166714822D01*
X93182412Y-166909731D01*
X93008359Y-167143080D01*
X92883175Y-167405901D01*
X92838524Y-167553110D01*
X92959845Y-167783000D01*
X94153000Y-167783000D01*
X94153000Y-167763000D01*
X94407000Y-167763000D01*
X94407000Y-167783000D01*
X94427000Y-167783000D01*
X94427000Y-168037000D01*
X94407000Y-168037000D01*
X94407000Y-168057000D01*
X94153000Y-168057000D01*
X94153000Y-168037000D01*
X92959845Y-168037000D01*
X92838524Y-168266890D01*
X92883175Y-168414099D01*
X93008359Y-168676920D01*
X93182412Y-168910269D01*
X93398645Y-169105178D01*
X93515534Y-169174805D01*
X93333368Y-169296525D01*
X93164893Y-169465000D01*
X91116579Y-169465000D01*
X90156536Y-168504958D01*
X90156532Y-168504953D01*
X86875000Y-165223422D01*
X86875000Y-143633465D01*
X86879281Y-143589999D01*
X86875000Y-143546533D01*
X86875000Y-143546523D01*
X86862195Y-143416510D01*
X86811589Y-143249687D01*
X86729411Y-143095941D01*
X86705210Y-143066452D01*
X86646532Y-142994953D01*
X86646530Y-142994951D01*
X86618817Y-142961183D01*
X86585049Y-142933470D01*
X77856537Y-134204959D01*
X77856532Y-134204953D01*
X72906534Y-129254956D01*
X72878817Y-129221183D01*
X72744059Y-129110589D01*
X72590313Y-129028411D01*
X72423490Y-128977805D01*
X72293477Y-128965000D01*
X72293469Y-128965000D01*
X72250000Y-128960719D01*
X72206531Y-128965000D01*
X42234625Y-128965000D01*
X42225812Y-128875518D01*
X42189502Y-128755820D01*
X42130537Y-128645506D01*
X42051185Y-128548815D01*
X41954494Y-128469463D01*
X41844180Y-128410498D01*
X41771620Y-128388487D01*
X41903475Y-128256632D01*
X42065990Y-128013411D01*
X42177932Y-127743158D01*
X42235000Y-127456260D01*
X42235000Y-127163740D01*
X42177932Y-126876842D01*
X42065990Y-126606589D01*
X41903475Y-126363368D01*
X41696632Y-126156525D01*
X41514466Y-126034805D01*
X41631355Y-125965178D01*
X41847588Y-125770269D01*
X42021641Y-125536920D01*
X42146825Y-125274099D01*
X42191476Y-125126890D01*
X42070155Y-124897000D01*
X40877000Y-124897000D01*
X40877000Y-124917000D01*
X40623000Y-124917000D01*
X40623000Y-124897000D01*
X39429845Y-124897000D01*
X39308524Y-125126890D01*
X39353175Y-125274099D01*
X39478359Y-125536920D01*
X39652412Y-125770269D01*
X39868645Y-125965178D01*
X39985534Y-126034805D01*
X39803368Y-126156525D01*
X39596525Y-126363368D01*
X39434010Y-126606589D01*
X39322068Y-126876842D01*
X39265000Y-127163740D01*
X39265000Y-127456260D01*
X39322068Y-127743158D01*
X39434010Y-128013411D01*
X39596525Y-128256632D01*
X39728380Y-128388487D01*
X39655820Y-128410498D01*
X39545506Y-128469463D01*
X39448815Y-128548815D01*
X39369463Y-128645506D01*
X39310498Y-128755820D01*
X39274188Y-128875518D01*
X39261928Y-129000000D01*
X31583848Y-129000000D01*
X31587326Y-124413110D01*
X39308524Y-124413110D01*
X39429845Y-124643000D01*
X40623000Y-124643000D01*
X40623000Y-123449186D01*
X40877000Y-123449186D01*
X40877000Y-124643000D01*
X42070155Y-124643000D01*
X42191476Y-124413110D01*
X42146825Y-124265901D01*
X42021641Y-124003080D01*
X41847588Y-123769731D01*
X41631355Y-123574822D01*
X41381252Y-123425843D01*
X41106891Y-123328519D01*
X40877000Y-123449186D01*
X40623000Y-123449186D01*
X40393109Y-123328519D01*
X40118748Y-123425843D01*
X39868645Y-123574822D01*
X39652412Y-123769731D01*
X39478359Y-124003080D01*
X39353175Y-124265901D01*
X39308524Y-124413110D01*
X31587326Y-124413110D01*
X31596086Y-112859419D01*
X49815000Y-112859419D01*
X49815000Y-113240581D01*
X49889361Y-113614419D01*
X50035225Y-113966566D01*
X50246987Y-114283491D01*
X50516509Y-114553013D01*
X50833434Y-114764775D01*
X51185581Y-114910639D01*
X51559419Y-114985000D01*
X51940581Y-114985000D01*
X52314419Y-114910639D01*
X52666566Y-114764775D01*
X52983491Y-114553013D01*
X53253013Y-114283491D01*
X53464775Y-113966566D01*
X53610639Y-113614419D01*
X53685000Y-113240581D01*
X53685000Y-112859419D01*
X53610639Y-112485581D01*
X53464775Y-112133434D01*
X53253013Y-111816509D01*
X52983491Y-111546987D01*
X52666566Y-111335225D01*
X52314419Y-111189361D01*
X51940581Y-111115000D01*
X51559419Y-111115000D01*
X51185581Y-111189361D01*
X50833434Y-111335225D01*
X50516509Y-111546987D01*
X50246987Y-111816509D01*
X50035225Y-112133434D01*
X49889361Y-112485581D01*
X49815000Y-112859419D01*
X31596086Y-112859419D01*
X31598483Y-109699224D01*
X47580381Y-109699224D01*
X47712317Y-109994312D01*
X48053045Y-110165159D01*
X48420557Y-110266250D01*
X48800729Y-110293701D01*
X49178951Y-110246457D01*
X49540690Y-110126333D01*
X49787683Y-109994312D01*
X49919619Y-109699224D01*
X48750000Y-108529605D01*
X47580381Y-109699224D01*
X31598483Y-109699224D01*
X31599468Y-108400729D01*
X46806299Y-108400729D01*
X46853543Y-108778951D01*
X46973667Y-109140690D01*
X47105688Y-109387683D01*
X47400776Y-109519619D01*
X48570395Y-108350000D01*
X48929605Y-108350000D01*
X50099224Y-109519619D01*
X50394312Y-109387683D01*
X50565159Y-109046955D01*
X50666250Y-108679443D01*
X50693701Y-108299271D01*
X50646457Y-107921049D01*
X50526333Y-107559310D01*
X50394312Y-107312317D01*
X50099224Y-107180381D01*
X48929605Y-108350000D01*
X48570395Y-108350000D01*
X47400776Y-107180381D01*
X47105688Y-107312317D01*
X46934841Y-107653045D01*
X46833750Y-108020557D01*
X46806299Y-108400729D01*
X31599468Y-108400729D01*
X31600529Y-107000776D01*
X47580381Y-107000776D01*
X48750000Y-108170395D01*
X49919619Y-107000776D01*
X49787683Y-106705688D01*
X49446955Y-106534841D01*
X49079443Y-106433750D01*
X48699271Y-106406299D01*
X48321049Y-106453543D01*
X47959310Y-106573667D01*
X47712317Y-106705688D01*
X47580381Y-107000776D01*
X31600529Y-107000776D01*
X31607030Y-98428438D01*
X44761505Y-98428438D01*
X44800605Y-98668549D01*
X44885798Y-98896418D01*
X44926652Y-98972852D01*
X45150236Y-99020159D01*
X45820395Y-98350000D01*
X45150236Y-97679841D01*
X44926652Y-97727148D01*
X44825763Y-97948516D01*
X44770000Y-98185313D01*
X44761505Y-98428438D01*
X31607030Y-98428438D01*
X31626668Y-72530000D01*
X44860719Y-72530000D01*
X44865000Y-72573469D01*
X44865001Y-96502519D01*
X44860719Y-96545998D01*
X44877805Y-96719488D01*
X44928412Y-96886311D01*
X45010590Y-97040057D01*
X45093468Y-97141044D01*
X45093471Y-97141047D01*
X45121184Y-97174815D01*
X45154951Y-97202527D01*
X45351289Y-97398866D01*
X45329841Y-97500236D01*
X46000000Y-98170395D01*
X46014143Y-98156253D01*
X46193748Y-98335858D01*
X46179605Y-98350000D01*
X46193748Y-98364143D01*
X46014143Y-98543748D01*
X46000000Y-98529605D01*
X45329841Y-99199764D01*
X45377148Y-99423348D01*
X45598516Y-99524237D01*
X45835313Y-99580000D01*
X46078438Y-99588495D01*
X46318549Y-99549395D01*
X46532117Y-99469549D01*
X46545506Y-99480537D01*
X46655820Y-99539502D01*
X46775518Y-99575812D01*
X46900000Y-99588072D01*
X48100000Y-99588072D01*
X48224482Y-99575812D01*
X48344180Y-99539502D01*
X48454494Y-99480537D01*
X48550318Y-99401896D01*
X53865000Y-104716579D01*
X53865001Y-106411928D01*
X53450000Y-106411928D01*
X53325518Y-106424188D01*
X53205820Y-106460498D01*
X53095506Y-106519463D01*
X52998815Y-106598815D01*
X52919463Y-106695506D01*
X52860498Y-106805820D01*
X52824188Y-106925518D01*
X52811928Y-107050000D01*
X52811928Y-109650000D01*
X52824188Y-109774482D01*
X52860498Y-109894180D01*
X52919463Y-110004494D01*
X52998815Y-110101185D01*
X53095506Y-110180537D01*
X53205820Y-110239502D01*
X53325518Y-110275812D01*
X53450000Y-110288072D01*
X56050000Y-110288072D01*
X56174482Y-110275812D01*
X56294180Y-110239502D01*
X56404494Y-110180537D01*
X56501185Y-110101185D01*
X56580537Y-110004494D01*
X56639502Y-109894180D01*
X56675812Y-109774482D01*
X56688072Y-109650000D01*
X56688072Y-107050000D01*
X56675812Y-106925518D01*
X56639502Y-106805820D01*
X56580537Y-106695506D01*
X56501185Y-106598815D01*
X56404494Y-106519463D01*
X56294180Y-106460498D01*
X56174482Y-106424188D01*
X56050000Y-106411928D01*
X55635000Y-106411928D01*
X55635000Y-104393465D01*
X55639281Y-104349999D01*
X55635000Y-104306533D01*
X55635000Y-104306523D01*
X55622195Y-104176510D01*
X55571589Y-104009687D01*
X55489411Y-103855941D01*
X55378817Y-103721183D01*
X55345051Y-103693472D01*
X49406534Y-97754956D01*
X49378817Y-97721183D01*
X49244059Y-97610589D01*
X49090313Y-97528411D01*
X48923490Y-97477805D01*
X48793477Y-97465000D01*
X48793469Y-97465000D01*
X48750000Y-97460719D01*
X48706531Y-97465000D01*
X48667683Y-97465000D01*
X48630537Y-97395506D01*
X48551185Y-97298815D01*
X48454494Y-97219463D01*
X48344180Y-97160498D01*
X48224482Y-97124188D01*
X48126146Y-97114503D01*
X53175947Y-97114503D01*
X53310484Y-97531473D01*
X53523783Y-97914184D01*
X53807646Y-98247929D01*
X54151165Y-98519882D01*
X54541139Y-98719593D01*
X54885497Y-98824050D01*
X55233000Y-98712362D01*
X55233000Y-96767000D01*
X55487000Y-96767000D01*
X55487000Y-98712362D01*
X55834503Y-98824050D01*
X56178861Y-98719593D01*
X56568835Y-98519882D01*
X56912354Y-98247929D01*
X57196217Y-97914184D01*
X57409516Y-97531473D01*
X57544053Y-97114503D01*
X57432642Y-96767000D01*
X55487000Y-96767000D01*
X55233000Y-96767000D01*
X53287358Y-96767000D01*
X53175947Y-97114503D01*
X48126146Y-97114503D01*
X48100000Y-97111928D01*
X47567509Y-97111928D01*
X46635000Y-96179420D01*
X46635000Y-96165497D01*
X53175947Y-96165497D01*
X53287358Y-96513000D01*
X55233000Y-96513000D01*
X55233000Y-94567638D01*
X55487000Y-94567638D01*
X55487000Y-96513000D01*
X57432642Y-96513000D01*
X57544053Y-96165497D01*
X57409516Y-95748527D01*
X57196217Y-95365816D01*
X56912354Y-95032071D01*
X56568835Y-94760118D01*
X56178861Y-94560407D01*
X55834503Y-94455950D01*
X55487000Y-94567638D01*
X55233000Y-94567638D01*
X54885497Y-94455950D01*
X54541139Y-94560407D01*
X54151165Y-94760118D01*
X53807646Y-95032071D01*
X53523783Y-95365816D01*
X53310484Y-95748527D01*
X53175947Y-96165497D01*
X46635000Y-96165497D01*
X46635000Y-82340000D01*
X53121928Y-82340000D01*
X53121928Y-85540000D01*
X53134188Y-85664482D01*
X53170498Y-85784180D01*
X53229463Y-85894494D01*
X53308815Y-85991185D01*
X53405506Y-86070537D01*
X53515820Y-86129502D01*
X53635518Y-86165812D01*
X53760000Y-86178072D01*
X56960000Y-86178072D01*
X57084482Y-86165812D01*
X57204180Y-86129502D01*
X57314494Y-86070537D01*
X57411185Y-85991185D01*
X57490537Y-85894494D01*
X57549502Y-85784180D01*
X57585812Y-85664482D01*
X57598072Y-85540000D01*
X57598072Y-82340000D01*
X57585812Y-82215518D01*
X57549502Y-82095820D01*
X57490537Y-81985506D01*
X57411185Y-81888815D01*
X57314494Y-81809463D01*
X57204180Y-81750498D01*
X57084482Y-81714188D01*
X56960000Y-81701928D01*
X53760000Y-81701928D01*
X53635518Y-81714188D01*
X53515820Y-81750498D01*
X53405506Y-81809463D01*
X53308815Y-81888815D01*
X53229463Y-81985506D01*
X53170498Y-82095820D01*
X53134188Y-82215518D01*
X53121928Y-82340000D01*
X46635000Y-82340000D01*
X46635000Y-76037980D01*
X47421626Y-76037980D01*
X47541514Y-76322836D01*
X47865210Y-76483699D01*
X48214069Y-76578322D01*
X48574684Y-76603067D01*
X48933198Y-76556985D01*
X49275833Y-76441846D01*
X49498486Y-76322836D01*
X49618374Y-76037980D01*
X48520000Y-74939605D01*
X47421626Y-76037980D01*
X46635000Y-76037980D01*
X46635000Y-74814684D01*
X46676933Y-74814684D01*
X46723015Y-75173198D01*
X46838154Y-75515833D01*
X46957164Y-75738486D01*
X47242020Y-75858374D01*
X48340395Y-74760000D01*
X48699605Y-74760000D01*
X49797980Y-75858374D01*
X50082836Y-75738486D01*
X50243699Y-75414790D01*
X50338322Y-75065931D01*
X50363067Y-74705316D01*
X50316985Y-74346802D01*
X50201846Y-74004167D01*
X50082836Y-73781514D01*
X49797980Y-73661626D01*
X48699605Y-74760000D01*
X48340395Y-74760000D01*
X47242020Y-73661626D01*
X46957164Y-73781514D01*
X46796301Y-74105210D01*
X46701678Y-74454069D01*
X46676933Y-74814684D01*
X46635000Y-74814684D01*
X46635000Y-73482020D01*
X47421626Y-73482020D01*
X48520000Y-74580395D01*
X49450394Y-73650000D01*
X77911928Y-73650000D01*
X77911928Y-76050000D01*
X77924188Y-76174482D01*
X77960498Y-76294180D01*
X78019463Y-76404494D01*
X78098815Y-76501185D01*
X78195506Y-76580537D01*
X78305820Y-76639502D01*
X78425518Y-76675812D01*
X78550000Y-76688072D01*
X80950000Y-76688072D01*
X81074482Y-76675812D01*
X81194180Y-76639502D01*
X81215735Y-76627980D01*
X101481626Y-76627980D01*
X101601514Y-76912836D01*
X101925210Y-77073699D01*
X102274069Y-77168322D01*
X102634684Y-77193067D01*
X102993198Y-77146985D01*
X103335833Y-77031846D01*
X103558486Y-76912836D01*
X103678374Y-76627980D01*
X102580000Y-75529605D01*
X101481626Y-76627980D01*
X81215735Y-76627980D01*
X81304494Y-76580537D01*
X81401185Y-76501185D01*
X81480537Y-76404494D01*
X81539502Y-76294180D01*
X81575812Y-76174482D01*
X81588072Y-76050000D01*
X81588072Y-75404684D01*
X100736933Y-75404684D01*
X100783015Y-75763198D01*
X100898154Y-76105833D01*
X101017164Y-76328486D01*
X101302020Y-76448374D01*
X102400395Y-75350000D01*
X102759605Y-75350000D01*
X103857980Y-76448374D01*
X104020437Y-76380000D01*
X112561928Y-76380000D01*
X112561928Y-78180000D01*
X112574188Y-78304482D01*
X112610498Y-78424180D01*
X112669463Y-78534494D01*
X112748815Y-78631185D01*
X112845506Y-78710537D01*
X112955820Y-78769502D01*
X113075518Y-78805812D01*
X113200000Y-78818072D01*
X115000000Y-78818072D01*
X115124482Y-78805812D01*
X115244180Y-78769502D01*
X115354494Y-78710537D01*
X115451185Y-78631185D01*
X115530537Y-78534494D01*
X115589502Y-78424180D01*
X115595056Y-78405873D01*
X115661495Y-78472312D01*
X115912905Y-78640299D01*
X116192257Y-78756011D01*
X116488816Y-78815000D01*
X116791184Y-78815000D01*
X116901482Y-78793060D01*
X117015001Y-78906580D01*
X117015000Y-83005479D01*
X116985241Y-83025363D01*
X116785363Y-83225241D01*
X116628320Y-83460273D01*
X116520147Y-83721426D01*
X116465000Y-83998665D01*
X116465000Y-84281335D01*
X116520147Y-84558574D01*
X116628320Y-84819727D01*
X116785363Y-85054759D01*
X116985241Y-85254637D01*
X117187827Y-85390000D01*
X116985241Y-85525363D01*
X116785363Y-85725241D01*
X116628320Y-85960273D01*
X116520147Y-86221426D01*
X116465000Y-86498665D01*
X116465000Y-86781335D01*
X116520147Y-87058574D01*
X116628320Y-87319727D01*
X116785363Y-87554759D01*
X116985241Y-87754637D01*
X117220273Y-87911680D01*
X117481426Y-88019853D01*
X117758665Y-88075000D01*
X118041335Y-88075000D01*
X118318574Y-88019853D01*
X118579727Y-87911680D01*
X118814759Y-87754637D01*
X119014637Y-87554759D01*
X119171680Y-87319727D01*
X119279853Y-87058574D01*
X119335000Y-86781335D01*
X119335000Y-86498665D01*
X119279853Y-86221426D01*
X119171680Y-85960273D01*
X119014637Y-85725241D01*
X118814759Y-85525363D01*
X118612173Y-85390000D01*
X118814759Y-85254637D01*
X119014637Y-85054759D01*
X119171680Y-84819727D01*
X119279853Y-84558574D01*
X119335000Y-84281335D01*
X119335000Y-83998665D01*
X119279853Y-83721426D01*
X119171680Y-83460273D01*
X119014637Y-83225241D01*
X118814759Y-83025363D01*
X118785000Y-83005479D01*
X118785000Y-78766502D01*
X119028816Y-78815000D01*
X119331184Y-78815000D01*
X119627743Y-78756011D01*
X119907095Y-78640299D01*
X120158505Y-78472312D01*
X120372312Y-78258505D01*
X120450000Y-78142237D01*
X120527688Y-78258505D01*
X120741495Y-78472312D01*
X120992905Y-78640299D01*
X121272257Y-78756011D01*
X121568816Y-78815000D01*
X121871184Y-78815000D01*
X122167743Y-78756011D01*
X122447095Y-78640299D01*
X122698505Y-78472312D01*
X122912312Y-78258505D01*
X123080299Y-78007095D01*
X123196011Y-77727743D01*
X123255000Y-77431184D01*
X123255000Y-77128816D01*
X123196011Y-76832257D01*
X123080299Y-76552905D01*
X122912312Y-76301495D01*
X122818797Y-76207980D01*
X132391626Y-76207980D01*
X132511514Y-76492836D01*
X132835210Y-76653699D01*
X133184069Y-76748322D01*
X133544684Y-76773067D01*
X133903198Y-76726985D01*
X134245833Y-76611846D01*
X134468486Y-76492836D01*
X134588374Y-76207980D01*
X133490000Y-75109605D01*
X132391626Y-76207980D01*
X122818797Y-76207980D01*
X122698505Y-76087688D01*
X122447095Y-75919701D01*
X122167743Y-75803989D01*
X121871184Y-75745000D01*
X121568816Y-75745000D01*
X121272257Y-75803989D01*
X120992905Y-75919701D01*
X120741495Y-76087688D01*
X120527688Y-76301495D01*
X120450000Y-76417763D01*
X120372312Y-76301495D01*
X120158505Y-76087688D01*
X119907095Y-75919701D01*
X119627743Y-75803989D01*
X119331184Y-75745000D01*
X119028816Y-75745000D01*
X118732257Y-75803989D01*
X118452905Y-75919701D01*
X118201495Y-76087688D01*
X117987688Y-76301495D01*
X117910000Y-76417763D01*
X117832312Y-76301495D01*
X117618505Y-76087688D01*
X117367095Y-75919701D01*
X117087743Y-75803989D01*
X116791184Y-75745000D01*
X116488816Y-75745000D01*
X116192257Y-75803989D01*
X115912905Y-75919701D01*
X115661495Y-76087688D01*
X115595056Y-76154127D01*
X115589502Y-76135820D01*
X115530537Y-76025506D01*
X115451185Y-75928815D01*
X115354494Y-75849463D01*
X115244180Y-75790498D01*
X115124482Y-75754188D01*
X115000000Y-75741928D01*
X113200000Y-75741928D01*
X113075518Y-75754188D01*
X112955820Y-75790498D01*
X112845506Y-75849463D01*
X112748815Y-75928815D01*
X112669463Y-76025506D01*
X112610498Y-76135820D01*
X112574188Y-76255518D01*
X112561928Y-76380000D01*
X104020437Y-76380000D01*
X104142836Y-76328486D01*
X104303699Y-76004790D01*
X104398322Y-75655931D01*
X104423067Y-75295316D01*
X104383140Y-74984684D01*
X131646933Y-74984684D01*
X131693015Y-75343198D01*
X131808154Y-75685833D01*
X131927164Y-75908486D01*
X132212020Y-76028374D01*
X133310395Y-74930000D01*
X133669605Y-74930000D01*
X134767980Y-76028374D01*
X135052836Y-75908486D01*
X135213699Y-75584790D01*
X135308322Y-75235931D01*
X135333067Y-74875316D01*
X135286985Y-74516802D01*
X135171846Y-74174167D01*
X135052836Y-73951514D01*
X134767980Y-73831626D01*
X133669605Y-74930000D01*
X133310395Y-74930000D01*
X132212020Y-73831626D01*
X131927164Y-73951514D01*
X131766301Y-74275210D01*
X131671678Y-74624069D01*
X131646933Y-74984684D01*
X104383140Y-74984684D01*
X104376985Y-74936802D01*
X104261846Y-74594167D01*
X104142836Y-74371514D01*
X103857980Y-74251626D01*
X102759605Y-75350000D01*
X102400395Y-75350000D01*
X101302020Y-74251626D01*
X101017164Y-74371514D01*
X100856301Y-74695210D01*
X100761678Y-75044069D01*
X100736933Y-75404684D01*
X81588072Y-75404684D01*
X81588072Y-74072020D01*
X101481626Y-74072020D01*
X102580000Y-75170395D01*
X103678374Y-74072020D01*
X103558486Y-73787164D01*
X103234790Y-73626301D01*
X102885931Y-73531678D01*
X102525316Y-73506933D01*
X102166802Y-73553015D01*
X101824167Y-73668154D01*
X101601514Y-73787164D01*
X101481626Y-74072020D01*
X81588072Y-74072020D01*
X81588072Y-73650000D01*
X81575812Y-73525518D01*
X81539502Y-73405820D01*
X81480537Y-73295506D01*
X81401185Y-73198815D01*
X81304494Y-73119463D01*
X81194180Y-73060498D01*
X81074482Y-73024188D01*
X80950000Y-73011928D01*
X78550000Y-73011928D01*
X78425518Y-73024188D01*
X78305820Y-73060498D01*
X78195506Y-73119463D01*
X78098815Y-73198815D01*
X78019463Y-73295506D01*
X77960498Y-73405820D01*
X77924188Y-73525518D01*
X77911928Y-73650000D01*
X49450394Y-73650000D01*
X49618374Y-73482020D01*
X49498486Y-73197164D01*
X49174790Y-73036301D01*
X48825931Y-72941678D01*
X48465316Y-72916933D01*
X48106802Y-72963015D01*
X47764167Y-73078154D01*
X47541514Y-73197164D01*
X47421626Y-73482020D01*
X46635000Y-73482020D01*
X46635000Y-72896578D01*
X47933507Y-71598072D01*
X49720000Y-71598072D01*
X49844482Y-71585812D01*
X49964180Y-71549502D01*
X50074494Y-71490537D01*
X50171185Y-71411185D01*
X50250537Y-71314494D01*
X50309502Y-71204180D01*
X50345812Y-71084482D01*
X50358072Y-70960000D01*
X50358072Y-70645000D01*
X59573422Y-70645000D01*
X59796940Y-70868518D01*
X59775000Y-70978816D01*
X59775000Y-71281184D01*
X59833989Y-71577743D01*
X59949701Y-71857095D01*
X60117688Y-72108505D01*
X60331495Y-72322312D01*
X60582905Y-72490299D01*
X60862257Y-72606011D01*
X61158816Y-72665000D01*
X61461184Y-72665000D01*
X61757743Y-72606011D01*
X62037095Y-72490299D01*
X62288505Y-72322312D01*
X62502312Y-72108505D01*
X62583367Y-71987198D01*
X62718351Y-72167116D01*
X62942427Y-72367962D01*
X63201380Y-72521234D01*
X63485259Y-72621041D01*
X63723000Y-72500992D01*
X63723000Y-71257000D01*
X63703000Y-71257000D01*
X63703000Y-71003000D01*
X63723000Y-71003000D01*
X63723000Y-69759008D01*
X63977000Y-69759008D01*
X63977000Y-71003000D01*
X63997000Y-71003000D01*
X63997000Y-71257000D01*
X63977000Y-71257000D01*
X63977000Y-72500992D01*
X64214741Y-72621041D01*
X64498620Y-72521234D01*
X64757573Y-72367962D01*
X64981649Y-72167116D01*
X65116633Y-71987198D01*
X65197688Y-72108505D01*
X65411495Y-72322312D01*
X65662905Y-72490299D01*
X65942257Y-72606011D01*
X66238816Y-72665000D01*
X66541184Y-72665000D01*
X66837743Y-72606011D01*
X67117095Y-72490299D01*
X67368505Y-72322312D01*
X67582312Y-72108505D01*
X67750299Y-71857095D01*
X67866011Y-71577743D01*
X67925000Y-71281184D01*
X67925000Y-71127980D01*
X78651626Y-71127980D01*
X78771514Y-71412836D01*
X79095210Y-71573699D01*
X79444069Y-71668322D01*
X79804684Y-71693067D01*
X80163198Y-71646985D01*
X80505833Y-71531846D01*
X80728486Y-71412836D01*
X80848374Y-71127980D01*
X79750000Y-70029605D01*
X78651626Y-71127980D01*
X67925000Y-71127980D01*
X67925000Y-70978816D01*
X67866011Y-70682257D01*
X67750299Y-70402905D01*
X67582312Y-70151495D01*
X67368505Y-69937688D01*
X67319112Y-69904684D01*
X77906933Y-69904684D01*
X77953015Y-70263198D01*
X78068154Y-70605833D01*
X78187164Y-70828486D01*
X78472020Y-70948374D01*
X79570395Y-69850000D01*
X79929605Y-69850000D01*
X81027980Y-70948374D01*
X81312836Y-70828486D01*
X81473699Y-70504790D01*
X81568322Y-70155931D01*
X81593067Y-69795316D01*
X81546985Y-69436802D01*
X81431846Y-69094167D01*
X81312836Y-68871514D01*
X81027980Y-68751626D01*
X79929605Y-69850000D01*
X79570395Y-69850000D01*
X78472020Y-68751626D01*
X78187164Y-68871514D01*
X78026301Y-69195210D01*
X77931678Y-69544069D01*
X77906933Y-69904684D01*
X67319112Y-69904684D01*
X67117095Y-69769701D01*
X66837743Y-69653989D01*
X66541184Y-69595000D01*
X66238816Y-69595000D01*
X65942257Y-69653989D01*
X65662905Y-69769701D01*
X65411495Y-69937688D01*
X65197688Y-70151495D01*
X65116633Y-70272802D01*
X64981649Y-70092884D01*
X64757573Y-69892038D01*
X64498620Y-69738766D01*
X64214741Y-69638959D01*
X63977000Y-69759008D01*
X63723000Y-69759008D01*
X63485259Y-69638959D01*
X63201380Y-69738766D01*
X62942427Y-69892038D01*
X62718351Y-70092884D01*
X62583367Y-70272802D01*
X62502312Y-70151495D01*
X62288505Y-69937688D01*
X62037095Y-69769701D01*
X61757743Y-69653989D01*
X61461184Y-69595000D01*
X61158816Y-69595000D01*
X61048518Y-69616940D01*
X60596532Y-69164954D01*
X60568817Y-69131183D01*
X60434059Y-69020589D01*
X60280313Y-68938411D01*
X60113490Y-68887805D01*
X59983477Y-68875000D01*
X59983469Y-68875000D01*
X59940000Y-68870719D01*
X59896531Y-68875000D01*
X50976579Y-68875000D01*
X51279559Y-68572020D01*
X78651626Y-68572020D01*
X79750000Y-69670395D01*
X80848374Y-68572020D01*
X80728486Y-68287164D01*
X80404790Y-68126301D01*
X80055931Y-68031678D01*
X79695316Y-68006933D01*
X79336802Y-68053015D01*
X78994167Y-68168154D01*
X78771514Y-68287164D01*
X78651626Y-68572020D01*
X51279559Y-68572020D01*
X52116579Y-67735000D01*
X98713422Y-67735000D01*
X100741928Y-69763507D01*
X100741928Y-71550000D01*
X100754188Y-71674482D01*
X100790498Y-71794180D01*
X100849463Y-71904494D01*
X100928815Y-72001185D01*
X101025506Y-72080537D01*
X101135820Y-72139502D01*
X101255518Y-72175812D01*
X101380000Y-72188072D01*
X103780000Y-72188072D01*
X103904482Y-72175812D01*
X104024180Y-72139502D01*
X104134494Y-72080537D01*
X104231185Y-72001185D01*
X104310537Y-71904494D01*
X104369502Y-71794180D01*
X104405812Y-71674482D01*
X104418072Y-71550000D01*
X104418072Y-71235000D01*
X113173422Y-71235000D01*
X113856940Y-71918518D01*
X113835000Y-72028816D01*
X113835000Y-72331184D01*
X113893989Y-72627743D01*
X114009701Y-72907095D01*
X114177688Y-73158505D01*
X114391495Y-73372312D01*
X114642905Y-73540299D01*
X114922257Y-73656011D01*
X115218816Y-73715000D01*
X115521184Y-73715000D01*
X115817743Y-73656011D01*
X116097095Y-73540299D01*
X116348505Y-73372312D01*
X116562312Y-73158505D01*
X116643367Y-73037198D01*
X116778351Y-73217116D01*
X117002427Y-73417962D01*
X117261380Y-73571234D01*
X117545259Y-73671041D01*
X117783000Y-73550992D01*
X117783000Y-72307000D01*
X117763000Y-72307000D01*
X117763000Y-72053000D01*
X117783000Y-72053000D01*
X117783000Y-70809008D01*
X118037000Y-70809008D01*
X118037000Y-72053000D01*
X118057000Y-72053000D01*
X118057000Y-72307000D01*
X118037000Y-72307000D01*
X118037000Y-73550992D01*
X118274741Y-73671041D01*
X118558620Y-73571234D01*
X118817573Y-73417962D01*
X119041649Y-73217116D01*
X119176633Y-73037198D01*
X119257688Y-73158505D01*
X119471495Y-73372312D01*
X119722905Y-73540299D01*
X120002257Y-73656011D01*
X120298816Y-73715000D01*
X120601184Y-73715000D01*
X120897743Y-73656011D01*
X120907378Y-73652020D01*
X132391626Y-73652020D01*
X133490000Y-74750395D01*
X134588374Y-73652020D01*
X134468486Y-73367164D01*
X134144790Y-73206301D01*
X133795931Y-73111678D01*
X133435316Y-73086933D01*
X133076802Y-73133015D01*
X132734167Y-73248154D01*
X132511514Y-73367164D01*
X132391626Y-73652020D01*
X120907378Y-73652020D01*
X121177095Y-73540299D01*
X121428505Y-73372312D01*
X121642312Y-73158505D01*
X121810299Y-72907095D01*
X121926011Y-72627743D01*
X121985000Y-72331184D01*
X121985000Y-72028816D01*
X121926011Y-71732257D01*
X121810299Y-71452905D01*
X121642312Y-71201495D01*
X121428505Y-70987688D01*
X121177095Y-70819701D01*
X120897743Y-70703989D01*
X120601184Y-70645000D01*
X120298816Y-70645000D01*
X120002257Y-70703989D01*
X119722905Y-70819701D01*
X119471495Y-70987688D01*
X119257688Y-71201495D01*
X119176633Y-71322802D01*
X119041649Y-71142884D01*
X118817573Y-70942038D01*
X118558620Y-70788766D01*
X118274741Y-70688959D01*
X118037000Y-70809008D01*
X117783000Y-70809008D01*
X117545259Y-70688959D01*
X117261380Y-70788766D01*
X117002427Y-70942038D01*
X116778351Y-71142884D01*
X116643367Y-71322802D01*
X116562312Y-71201495D01*
X116348505Y-70987688D01*
X116097095Y-70819701D01*
X115817743Y-70703989D01*
X115521184Y-70645000D01*
X115218816Y-70645000D01*
X115108518Y-70666940D01*
X114196534Y-69754956D01*
X114168817Y-69721183D01*
X114034059Y-69610589D01*
X113880313Y-69528411D01*
X113713490Y-69477805D01*
X113583477Y-69465000D01*
X113583469Y-69465000D01*
X113540000Y-69460719D01*
X113496531Y-69465000D01*
X104418072Y-69465000D01*
X104418072Y-69150000D01*
X104405812Y-69025518D01*
X104369502Y-68905820D01*
X104310537Y-68795506D01*
X104256778Y-68730000D01*
X131651928Y-68730000D01*
X131651928Y-71130000D01*
X131664188Y-71254482D01*
X131700498Y-71374180D01*
X131759463Y-71484494D01*
X131838815Y-71581185D01*
X131935506Y-71660537D01*
X132045820Y-71719502D01*
X132165518Y-71755812D01*
X132290000Y-71768072D01*
X134690000Y-71768072D01*
X134814482Y-71755812D01*
X134934180Y-71719502D01*
X135044494Y-71660537D01*
X135141185Y-71581185D01*
X135220537Y-71484494D01*
X135279502Y-71374180D01*
X135315812Y-71254482D01*
X135328072Y-71130000D01*
X135328072Y-68730000D01*
X135315812Y-68605518D01*
X135279502Y-68485820D01*
X135220537Y-68375506D01*
X135141185Y-68278815D01*
X135044494Y-68199463D01*
X134934180Y-68140498D01*
X134814482Y-68104188D01*
X134690000Y-68091928D01*
X132290000Y-68091928D01*
X132165518Y-68104188D01*
X132045820Y-68140498D01*
X131935506Y-68199463D01*
X131838815Y-68278815D01*
X131759463Y-68375506D01*
X131700498Y-68485820D01*
X131664188Y-68605518D01*
X131651928Y-68730000D01*
X104256778Y-68730000D01*
X104231185Y-68698815D01*
X104134494Y-68619463D01*
X104024180Y-68560498D01*
X103904482Y-68524188D01*
X103780000Y-68511928D01*
X101993507Y-68511928D01*
X99736534Y-66254956D01*
X99708817Y-66221183D01*
X99574059Y-66110589D01*
X99420313Y-66028411D01*
X99253490Y-65977805D01*
X99123477Y-65965000D01*
X99123469Y-65965000D01*
X99080000Y-65960719D01*
X99036531Y-65965000D01*
X51793465Y-65965000D01*
X51749999Y-65960719D01*
X51706533Y-65965000D01*
X51706523Y-65965000D01*
X51576510Y-65977805D01*
X51409687Y-66028411D01*
X51255941Y-66110589D01*
X51255939Y-66110590D01*
X51255940Y-66110590D01*
X51154953Y-66193468D01*
X51154951Y-66193470D01*
X51121183Y-66221183D01*
X51093470Y-66254951D01*
X49426494Y-67921928D01*
X47320000Y-67921928D01*
X47195518Y-67934188D01*
X47075820Y-67970498D01*
X46965506Y-68029463D01*
X46868815Y-68108815D01*
X46789463Y-68205506D01*
X46730498Y-68315820D01*
X46694188Y-68435518D01*
X46681928Y-68560000D01*
X46681928Y-70346493D01*
X45154956Y-71873466D01*
X45121183Y-71901183D01*
X45010589Y-72035942D01*
X44928411Y-72189688D01*
X44877805Y-72356511D01*
X44865000Y-72486524D01*
X44865000Y-72486531D01*
X44860719Y-72530000D01*
X31626668Y-72530000D01*
X31633020Y-64154495D01*
X33265000Y-64154495D01*
X33265000Y-64545505D01*
X33341282Y-64929003D01*
X33490915Y-65290250D01*
X33708149Y-65615364D01*
X33984636Y-65891851D01*
X34309750Y-66109085D01*
X34670997Y-66258718D01*
X35054495Y-66335000D01*
X35445505Y-66335000D01*
X35829003Y-66258718D01*
X36190250Y-66109085D01*
X36515364Y-65891851D01*
X36791851Y-65615364D01*
X37009085Y-65290250D01*
X37158718Y-64929003D01*
X37235000Y-64545505D01*
X37235000Y-64154495D01*
X142265000Y-64154495D01*
X142265000Y-64545505D01*
X142341282Y-64929003D01*
X142490915Y-65290250D01*
X142708149Y-65615364D01*
X142984636Y-65891851D01*
X143309750Y-66109085D01*
X143670997Y-66258718D01*
X144054495Y-66335000D01*
X144445505Y-66335000D01*
X144829003Y-66258718D01*
X145190250Y-66109085D01*
X145515364Y-65891851D01*
X145791851Y-65615364D01*
X146009085Y-65290250D01*
X146158718Y-64929003D01*
X146235000Y-64545505D01*
X146235000Y-64154495D01*
X146158718Y-63770997D01*
X146009085Y-63409750D01*
X145791851Y-63084636D01*
X145515364Y-62808149D01*
X145190250Y-62590915D01*
X144829003Y-62441282D01*
X144445505Y-62365000D01*
X144054495Y-62365000D01*
X143670997Y-62441282D01*
X143309750Y-62590915D01*
X142984636Y-62808149D01*
X142708149Y-63084636D01*
X142490915Y-63409750D01*
X142341282Y-63770997D01*
X142265000Y-64154495D01*
X37235000Y-64154495D01*
X37158718Y-63770997D01*
X37009085Y-63409750D01*
X36791851Y-63084636D01*
X36515364Y-62808149D01*
X36190250Y-62590915D01*
X35829003Y-62441282D01*
X35445505Y-62365000D01*
X35054495Y-62365000D01*
X34670997Y-62441282D01*
X34309750Y-62590915D01*
X33984636Y-62808149D01*
X33708149Y-63084636D01*
X33490915Y-63409750D01*
X33341282Y-63770997D01*
X33265000Y-64154495D01*
X31633020Y-64154495D01*
X31635027Y-61508182D01*
X148171340Y-61445818D01*
X148074662Y-188873142D01*
%TA.AperFunction,Conductor*%
D26*
G36*
X148074662Y-188873142D02*
G01*
X31538349Y-189004107D01*
X31541268Y-185154495D01*
X33265000Y-185154495D01*
X33265000Y-185545505D01*
X33341282Y-185929003D01*
X33490915Y-186290250D01*
X33708149Y-186615364D01*
X33984636Y-186891851D01*
X34309750Y-187109085D01*
X34670997Y-187258718D01*
X35054495Y-187335000D01*
X35445505Y-187335000D01*
X35829003Y-187258718D01*
X36190250Y-187109085D01*
X36515364Y-186891851D01*
X36791851Y-186615364D01*
X37009085Y-186290250D01*
X37158718Y-185929003D01*
X37235000Y-185545505D01*
X37235000Y-185154495D01*
X37158718Y-184770997D01*
X37009085Y-184409750D01*
X36791851Y-184084636D01*
X36515364Y-183808149D01*
X36190250Y-183590915D01*
X35829003Y-183441282D01*
X35445505Y-183365000D01*
X35054495Y-183365000D01*
X34670997Y-183441282D01*
X34309750Y-183590915D01*
X33984636Y-183808149D01*
X33708149Y-184084636D01*
X33490915Y-184409750D01*
X33341282Y-184770997D01*
X33265000Y-185154495D01*
X31541268Y-185154495D01*
X31564117Y-155020000D01*
X76381928Y-155020000D01*
X76381928Y-156720000D01*
X76394188Y-156844482D01*
X76430498Y-156964180D01*
X76489463Y-157074494D01*
X76568815Y-157171185D01*
X76665506Y-157250537D01*
X76775820Y-157309502D01*
X76848380Y-157331513D01*
X76716525Y-157463368D01*
X76554010Y-157706589D01*
X76442068Y-157976842D01*
X76385000Y-158263740D01*
X76385000Y-158556260D01*
X76442068Y-158843158D01*
X76554010Y-159113411D01*
X76716525Y-159356632D01*
X76923368Y-159563475D01*
X77097760Y-159680000D01*
X76923368Y-159796525D01*
X76716525Y-160003368D01*
X76554010Y-160246589D01*
X76442068Y-160516842D01*
X76385000Y-160803740D01*
X76385000Y-161096260D01*
X76442068Y-161383158D01*
X76554010Y-161653411D01*
X76716525Y-161896632D01*
X76923368Y-162103475D01*
X77097760Y-162220000D01*
X76923368Y-162336525D01*
X76716525Y-162543368D01*
X76554010Y-162786589D01*
X76442068Y-163056842D01*
X76385000Y-163343740D01*
X76385000Y-163636260D01*
X76442068Y-163923158D01*
X76554010Y-164193411D01*
X76716525Y-164436632D01*
X76923368Y-164643475D01*
X77097760Y-164760000D01*
X76923368Y-164876525D01*
X76716525Y-165083368D01*
X76554010Y-165326589D01*
X76442068Y-165596842D01*
X76385000Y-165883740D01*
X76385000Y-166176260D01*
X76442068Y-166463158D01*
X76554010Y-166733411D01*
X76716525Y-166976632D01*
X76923368Y-167183475D01*
X77097760Y-167300000D01*
X76923368Y-167416525D01*
X76716525Y-167623368D01*
X76554010Y-167866589D01*
X76442068Y-168136842D01*
X76385000Y-168423740D01*
X76385000Y-168716260D01*
X76442068Y-169003158D01*
X76554010Y-169273411D01*
X76716525Y-169516632D01*
X76923368Y-169723475D01*
X77097760Y-169840000D01*
X76923368Y-169956525D01*
X76716525Y-170163368D01*
X76554010Y-170406589D01*
X76442068Y-170676842D01*
X76385000Y-170963740D01*
X76385000Y-171256260D01*
X76442068Y-171543158D01*
X76554010Y-171813411D01*
X76716525Y-172056632D01*
X76923368Y-172263475D01*
X77097760Y-172380000D01*
X76923368Y-172496525D01*
X76716525Y-172703368D01*
X76554010Y-172946589D01*
X76442068Y-173216842D01*
X76385000Y-173503740D01*
X76385000Y-173796260D01*
X76442068Y-174083158D01*
X76554010Y-174353411D01*
X76716525Y-174596632D01*
X76923368Y-174803475D01*
X77097760Y-174920000D01*
X76923368Y-175036525D01*
X76716525Y-175243368D01*
X76554010Y-175486589D01*
X76442068Y-175756842D01*
X76385000Y-176043740D01*
X76385000Y-176336260D01*
X76442068Y-176623158D01*
X76554010Y-176893411D01*
X76716525Y-177136632D01*
X76923368Y-177343475D01*
X77097760Y-177460000D01*
X76923368Y-177576525D01*
X76716525Y-177783368D01*
X76554010Y-178026589D01*
X76442068Y-178296842D01*
X76385000Y-178583740D01*
X76385000Y-178876260D01*
X76442068Y-179163158D01*
X76554010Y-179433411D01*
X76716525Y-179676632D01*
X76923368Y-179883475D01*
X77097760Y-180000000D01*
X76923368Y-180116525D01*
X76716525Y-180323368D01*
X76554010Y-180566589D01*
X76442068Y-180836842D01*
X76385000Y-181123740D01*
X76385000Y-181416260D01*
X76442068Y-181703158D01*
X76554010Y-181973411D01*
X76716525Y-182216632D01*
X76923368Y-182423475D01*
X77097760Y-182540000D01*
X76923368Y-182656525D01*
X76716525Y-182863368D01*
X76554010Y-183106589D01*
X76442068Y-183376842D01*
X76385000Y-183663740D01*
X76385000Y-183956260D01*
X76442068Y-184243158D01*
X76554010Y-184513411D01*
X76716525Y-184756632D01*
X76923368Y-184963475D01*
X77166589Y-185125990D01*
X77436842Y-185237932D01*
X77723740Y-185295000D01*
X78016260Y-185295000D01*
X78219890Y-185254495D01*
X93565000Y-185254495D01*
X93565000Y-185645505D01*
X93641282Y-186029003D01*
X93790915Y-186390250D01*
X94008149Y-186715364D01*
X94284636Y-186991851D01*
X94609750Y-187209085D01*
X94970997Y-187358718D01*
X95354495Y-187435000D01*
X95745505Y-187435000D01*
X96129003Y-187358718D01*
X96490250Y-187209085D01*
X96815364Y-186991851D01*
X97091851Y-186715364D01*
X97309085Y-186390250D01*
X97458718Y-186029003D01*
X97535000Y-185645505D01*
X97535000Y-185254495D01*
X142565000Y-185254495D01*
X142565000Y-185645505D01*
X142641282Y-186029003D01*
X142790915Y-186390250D01*
X143008149Y-186715364D01*
X143284636Y-186991851D01*
X143609750Y-187209085D01*
X143970997Y-187358718D01*
X144354495Y-187435000D01*
X144745505Y-187435000D01*
X145129003Y-187358718D01*
X145490250Y-187209085D01*
X145815364Y-186991851D01*
X146091851Y-186715364D01*
X146309085Y-186390250D01*
X146458718Y-186029003D01*
X146535000Y-185645505D01*
X146535000Y-185254495D01*
X146458718Y-184870997D01*
X146309085Y-184509750D01*
X146091851Y-184184636D01*
X145815364Y-183908149D01*
X145490250Y-183690915D01*
X145129003Y-183541282D01*
X144745505Y-183465000D01*
X144354495Y-183465000D01*
X143970997Y-183541282D01*
X143609750Y-183690915D01*
X143284636Y-183908149D01*
X143008149Y-184184636D01*
X142790915Y-184509750D01*
X142641282Y-184870997D01*
X142565000Y-185254495D01*
X97535000Y-185254495D01*
X97458718Y-184870997D01*
X97309085Y-184509750D01*
X97091851Y-184184636D01*
X96815364Y-183908149D01*
X96490250Y-183690915D01*
X96129003Y-183541282D01*
X95745505Y-183465000D01*
X95354495Y-183465000D01*
X94970997Y-183541282D01*
X94609750Y-183690915D01*
X94284636Y-183908149D01*
X94008149Y-184184636D01*
X93790915Y-184509750D01*
X93641282Y-184870997D01*
X93565000Y-185254495D01*
X78219890Y-185254495D01*
X78303158Y-185237932D01*
X78573411Y-185125990D01*
X78816632Y-184963475D01*
X79023475Y-184756632D01*
X79185990Y-184513411D01*
X79297932Y-184243158D01*
X79355000Y-183956260D01*
X79355000Y-183663740D01*
X79297932Y-183376842D01*
X79185990Y-183106589D01*
X79023475Y-182863368D01*
X78816632Y-182656525D01*
X78642240Y-182540000D01*
X78816632Y-182423475D01*
X79023475Y-182216632D01*
X79185990Y-181973411D01*
X79297932Y-181703158D01*
X79355000Y-181416260D01*
X79355000Y-181123740D01*
X79297932Y-180836842D01*
X79185990Y-180566589D01*
X79023475Y-180323368D01*
X78816632Y-180116525D01*
X78642240Y-180000000D01*
X78816632Y-179883475D01*
X79023475Y-179676632D01*
X79185990Y-179433411D01*
X79297932Y-179163158D01*
X79355000Y-178876260D01*
X79355000Y-178583740D01*
X79297932Y-178296842D01*
X79185990Y-178026589D01*
X79023475Y-177783368D01*
X78816632Y-177576525D01*
X78642240Y-177460000D01*
X78816632Y-177343475D01*
X79023475Y-177136632D01*
X79185990Y-176893411D01*
X79297932Y-176623158D01*
X79355000Y-176336260D01*
X79355000Y-176043740D01*
X79297932Y-175756842D01*
X79185990Y-175486589D01*
X79023475Y-175243368D01*
X78816632Y-175036525D01*
X78642240Y-174920000D01*
X78816632Y-174803475D01*
X79023475Y-174596632D01*
X79185990Y-174353411D01*
X79297932Y-174083158D01*
X79355000Y-173796260D01*
X79355000Y-173503740D01*
X79297932Y-173216842D01*
X79185990Y-172946589D01*
X79023475Y-172703368D01*
X78816632Y-172496525D01*
X78642240Y-172380000D01*
X78816632Y-172263475D01*
X79023475Y-172056632D01*
X79185990Y-171813411D01*
X79297932Y-171543158D01*
X79355000Y-171256260D01*
X79355000Y-170963740D01*
X79297932Y-170676842D01*
X79185990Y-170406589D01*
X79023475Y-170163368D01*
X78816632Y-169956525D01*
X78642240Y-169840000D01*
X78816632Y-169723475D01*
X79023475Y-169516632D01*
X79185990Y-169273411D01*
X79297932Y-169003158D01*
X79355000Y-168716260D01*
X79355000Y-168423740D01*
X79297932Y-168136842D01*
X79185990Y-167866589D01*
X79023475Y-167623368D01*
X78816632Y-167416525D01*
X78642240Y-167300000D01*
X78816632Y-167183475D01*
X79023475Y-166976632D01*
X79185990Y-166733411D01*
X79297932Y-166463158D01*
X79355000Y-166176260D01*
X79355000Y-165883740D01*
X79297932Y-165596842D01*
X79185990Y-165326589D01*
X79023475Y-165083368D01*
X78816632Y-164876525D01*
X78642240Y-164760000D01*
X78816632Y-164643475D01*
X79023475Y-164436632D01*
X79185990Y-164193411D01*
X79297932Y-163923158D01*
X79355000Y-163636260D01*
X79355000Y-163343740D01*
X79297932Y-163056842D01*
X79185990Y-162786589D01*
X79023475Y-162543368D01*
X78816632Y-162336525D01*
X78642240Y-162220000D01*
X78816632Y-162103475D01*
X79023475Y-161896632D01*
X79185990Y-161653411D01*
X79297932Y-161383158D01*
X79355000Y-161096260D01*
X79355000Y-160803740D01*
X79297932Y-160516842D01*
X79185990Y-160246589D01*
X79023475Y-160003368D01*
X78816632Y-159796525D01*
X78642240Y-159680000D01*
X78816632Y-159563475D01*
X79023475Y-159356632D01*
X79185990Y-159113411D01*
X79297932Y-158843158D01*
X79355000Y-158556260D01*
X79355000Y-158263740D01*
X79297932Y-157976842D01*
X79185990Y-157706589D01*
X79023475Y-157463368D01*
X78891620Y-157331513D01*
X78964180Y-157309502D01*
X79074494Y-157250537D01*
X79171185Y-157171185D01*
X79250537Y-157074494D01*
X79309502Y-156964180D01*
X79345812Y-156844482D01*
X79358072Y-156720000D01*
X79358072Y-155020000D01*
X79345812Y-154895518D01*
X79309502Y-154775820D01*
X79250537Y-154665506D01*
X79171185Y-154568815D01*
X79074494Y-154489463D01*
X78964180Y-154430498D01*
X78844482Y-154394188D01*
X78720000Y-154381928D01*
X77020000Y-154381928D01*
X76895518Y-154394188D01*
X76775820Y-154430498D01*
X76665506Y-154489463D01*
X76568815Y-154568815D01*
X76489463Y-154665506D01*
X76430498Y-154775820D01*
X76394188Y-154895518D01*
X76381928Y-155020000D01*
X31564117Y-155020000D01*
X31571810Y-144875000D01*
X45506928Y-144875000D01*
X45506928Y-146575000D01*
X45519188Y-146699482D01*
X45555498Y-146819180D01*
X45614463Y-146929494D01*
X45693815Y-147026185D01*
X45790506Y-147105537D01*
X45900820Y-147164502D01*
X46020518Y-147200812D01*
X46145000Y-147213072D01*
X47845000Y-147213072D01*
X47969482Y-147200812D01*
X48089180Y-147164502D01*
X48199494Y-147105537D01*
X48296185Y-147026185D01*
X48375537Y-146929494D01*
X48434502Y-146819180D01*
X48456513Y-146746620D01*
X48588368Y-146878475D01*
X48831589Y-147040990D01*
X49101842Y-147152932D01*
X49388740Y-147210000D01*
X49681260Y-147210000D01*
X49968158Y-147152932D01*
X50238411Y-147040990D01*
X50481632Y-146878475D01*
X50688475Y-146671632D01*
X50805000Y-146497240D01*
X50921525Y-146671632D01*
X51128368Y-146878475D01*
X51371589Y-147040990D01*
X51641842Y-147152932D01*
X51928740Y-147210000D01*
X52221260Y-147210000D01*
X52508158Y-147152932D01*
X52778411Y-147040990D01*
X53021632Y-146878475D01*
X53228475Y-146671632D01*
X53345000Y-146497240D01*
X53461525Y-146671632D01*
X53668368Y-146878475D01*
X53911589Y-147040990D01*
X54181842Y-147152932D01*
X54468740Y-147210000D01*
X54761260Y-147210000D01*
X55048158Y-147152932D01*
X55318411Y-147040990D01*
X55561632Y-146878475D01*
X55768475Y-146671632D01*
X55885000Y-146497240D01*
X56001525Y-146671632D01*
X56208368Y-146878475D01*
X56451589Y-147040990D01*
X56721842Y-147152932D01*
X57008740Y-147210000D01*
X57301260Y-147210000D01*
X57588158Y-147152932D01*
X57858411Y-147040990D01*
X58101632Y-146878475D01*
X58308475Y-146671632D01*
X58425000Y-146497240D01*
X58541525Y-146671632D01*
X58748368Y-146878475D01*
X58991589Y-147040990D01*
X59261842Y-147152932D01*
X59548740Y-147210000D01*
X59841260Y-147210000D01*
X60128158Y-147152932D01*
X60398411Y-147040990D01*
X60641632Y-146878475D01*
X60848475Y-146671632D01*
X60965000Y-146497240D01*
X61081525Y-146671632D01*
X61288368Y-146878475D01*
X61531589Y-147040990D01*
X61801842Y-147152932D01*
X62088740Y-147210000D01*
X62381260Y-147210000D01*
X62668158Y-147152932D01*
X62938411Y-147040990D01*
X63181632Y-146878475D01*
X63388475Y-146671632D01*
X63505000Y-146497240D01*
X63621525Y-146671632D01*
X63828368Y-146878475D01*
X64071589Y-147040990D01*
X64341842Y-147152932D01*
X64628740Y-147210000D01*
X64921260Y-147210000D01*
X65208158Y-147152932D01*
X65478411Y-147040990D01*
X65721632Y-146878475D01*
X65928475Y-146671632D01*
X66045000Y-146497240D01*
X66161525Y-146671632D01*
X66368368Y-146878475D01*
X66611589Y-147040990D01*
X66881842Y-147152932D01*
X67168740Y-147210000D01*
X67461260Y-147210000D01*
X67748158Y-147152932D01*
X68018411Y-147040990D01*
X68261632Y-146878475D01*
X68468475Y-146671632D01*
X68585000Y-146497240D01*
X68701525Y-146671632D01*
X68908368Y-146878475D01*
X69151589Y-147040990D01*
X69421842Y-147152932D01*
X69708740Y-147210000D01*
X70001260Y-147210000D01*
X70288158Y-147152932D01*
X70558411Y-147040990D01*
X70801632Y-146878475D01*
X71008475Y-146671632D01*
X71125000Y-146497240D01*
X71241525Y-146671632D01*
X71448368Y-146878475D01*
X71691589Y-147040990D01*
X71961842Y-147152932D01*
X72248740Y-147210000D01*
X72541260Y-147210000D01*
X72828158Y-147152932D01*
X73098411Y-147040990D01*
X73341632Y-146878475D01*
X73548475Y-146671632D01*
X73665000Y-146497240D01*
X73781525Y-146671632D01*
X73988368Y-146878475D01*
X74231589Y-147040990D01*
X74501842Y-147152932D01*
X74788740Y-147210000D01*
X75081260Y-147210000D01*
X75368158Y-147152932D01*
X75638411Y-147040990D01*
X75881632Y-146878475D01*
X76088475Y-146671632D01*
X76250990Y-146428411D01*
X76362932Y-146158158D01*
X76420000Y-145871260D01*
X76420000Y-145578740D01*
X76362932Y-145291842D01*
X76250990Y-145021589D01*
X76088475Y-144778368D01*
X75881632Y-144571525D01*
X75638411Y-144409010D01*
X75368158Y-144297068D01*
X75081260Y-144240000D01*
X74788740Y-144240000D01*
X74501842Y-144297068D01*
X74231589Y-144409010D01*
X73988368Y-144571525D01*
X73781525Y-144778368D01*
X73665000Y-144952760D01*
X73548475Y-144778368D01*
X73341632Y-144571525D01*
X73098411Y-144409010D01*
X72828158Y-144297068D01*
X72541260Y-144240000D01*
X72248740Y-144240000D01*
X71961842Y-144297068D01*
X71691589Y-144409010D01*
X71448368Y-144571525D01*
X71241525Y-144778368D01*
X71125000Y-144952760D01*
X71008475Y-144778368D01*
X70801632Y-144571525D01*
X70558411Y-144409010D01*
X70288158Y-144297068D01*
X70001260Y-144240000D01*
X69708740Y-144240000D01*
X69421842Y-144297068D01*
X69151589Y-144409010D01*
X68908368Y-144571525D01*
X68701525Y-144778368D01*
X68585000Y-144952760D01*
X68468475Y-144778368D01*
X68261632Y-144571525D01*
X68018411Y-144409010D01*
X67748158Y-144297068D01*
X67461260Y-144240000D01*
X67168740Y-144240000D01*
X66881842Y-144297068D01*
X66611589Y-144409010D01*
X66368368Y-144571525D01*
X66161525Y-144778368D01*
X66045000Y-144952760D01*
X65928475Y-144778368D01*
X65721632Y-144571525D01*
X65478411Y-144409010D01*
X65208158Y-144297068D01*
X64921260Y-144240000D01*
X64628740Y-144240000D01*
X64341842Y-144297068D01*
X64071589Y-144409010D01*
X63828368Y-144571525D01*
X63621525Y-144778368D01*
X63505000Y-144952760D01*
X63388475Y-144778368D01*
X63181632Y-144571525D01*
X62938411Y-144409010D01*
X62668158Y-144297068D01*
X62381260Y-144240000D01*
X62088740Y-144240000D01*
X61801842Y-144297068D01*
X61531589Y-144409010D01*
X61288368Y-144571525D01*
X61081525Y-144778368D01*
X60965000Y-144952760D01*
X60848475Y-144778368D01*
X60641632Y-144571525D01*
X60398411Y-144409010D01*
X60128158Y-144297068D01*
X59841260Y-144240000D01*
X59548740Y-144240000D01*
X59261842Y-144297068D01*
X58991589Y-144409010D01*
X58748368Y-144571525D01*
X58541525Y-144778368D01*
X58425000Y-144952760D01*
X58308475Y-144778368D01*
X58101632Y-144571525D01*
X57858411Y-144409010D01*
X57588158Y-144297068D01*
X57301260Y-144240000D01*
X57008740Y-144240000D01*
X56721842Y-144297068D01*
X56451589Y-144409010D01*
X56208368Y-144571525D01*
X56001525Y-144778368D01*
X55885000Y-144952760D01*
X55768475Y-144778368D01*
X55561632Y-144571525D01*
X55318411Y-144409010D01*
X55048158Y-144297068D01*
X54761260Y-144240000D01*
X54468740Y-144240000D01*
X54181842Y-144297068D01*
X53911589Y-144409010D01*
X53668368Y-144571525D01*
X53461525Y-144778368D01*
X53345000Y-144952760D01*
X53228475Y-144778368D01*
X53021632Y-144571525D01*
X52778411Y-144409010D01*
X52508158Y-144297068D01*
X52221260Y-144240000D01*
X51928740Y-144240000D01*
X51641842Y-144297068D01*
X51371589Y-144409010D01*
X51128368Y-144571525D01*
X50921525Y-144778368D01*
X50805000Y-144952760D01*
X50688475Y-144778368D01*
X50481632Y-144571525D01*
X50238411Y-144409010D01*
X49968158Y-144297068D01*
X49681260Y-144240000D01*
X49388740Y-144240000D01*
X49101842Y-144297068D01*
X48831589Y-144409010D01*
X48588368Y-144571525D01*
X48456513Y-144703380D01*
X48434502Y-144630820D01*
X48375537Y-144520506D01*
X48296185Y-144423815D01*
X48199494Y-144344463D01*
X48089180Y-144285498D01*
X47969482Y-144249188D01*
X47845000Y-144236928D01*
X46145000Y-144236928D01*
X46020518Y-144249188D01*
X45900820Y-144285498D01*
X45790506Y-144344463D01*
X45693815Y-144423815D01*
X45614463Y-144520506D01*
X45555498Y-144630820D01*
X45519188Y-144750518D01*
X45506928Y-144875000D01*
X31571810Y-144875000D01*
X31583848Y-129000000D01*
X39261928Y-129000000D01*
X39261928Y-130700000D01*
X39274188Y-130824482D01*
X39310498Y-130944180D01*
X39369463Y-131054494D01*
X39448815Y-131151185D01*
X39545506Y-131230537D01*
X39655820Y-131289502D01*
X39775518Y-131325812D01*
X39900000Y-131338072D01*
X41600000Y-131338072D01*
X41724482Y-131325812D01*
X41844180Y-131289502D01*
X41954494Y-131230537D01*
X42051185Y-131151185D01*
X42130537Y-131054494D01*
X42189502Y-130944180D01*
X42225812Y-130824482D01*
X42234625Y-130735000D01*
X71883422Y-130735000D01*
X76604953Y-135456532D01*
X76604959Y-135456537D01*
X85105001Y-143956580D01*
X85105000Y-162153476D01*
X85105001Y-162153486D01*
X85105000Y-165546531D01*
X85100719Y-165590000D01*
X85105000Y-165633469D01*
X85105000Y-165633476D01*
X85117805Y-165763489D01*
X85168411Y-165930312D01*
X85250589Y-166084058D01*
X85361183Y-166218817D01*
X85394956Y-166246534D01*
X88904953Y-169756532D01*
X88904958Y-169756536D01*
X90093470Y-170945049D01*
X90121183Y-170978817D01*
X90154951Y-171006530D01*
X90154953Y-171006532D01*
X90226452Y-171065210D01*
X90255941Y-171089411D01*
X90409687Y-171171589D01*
X90525903Y-171206843D01*
X90576509Y-171222195D01*
X90591306Y-171223652D01*
X90706523Y-171235000D01*
X90706531Y-171235000D01*
X90750000Y-171239281D01*
X90793469Y-171235000D01*
X93018526Y-171235000D01*
X93126525Y-171396632D01*
X93333368Y-171603475D01*
X93515534Y-171725195D01*
X93398645Y-171794822D01*
X93182412Y-171989731D01*
X93008359Y-172223080D01*
X92883175Y-172485901D01*
X92838524Y-172633110D01*
X92959845Y-172863000D01*
X94153000Y-172863000D01*
X94153000Y-172843000D01*
X94407000Y-172843000D01*
X94407000Y-172863000D01*
X94427000Y-172863000D01*
X94427000Y-173117000D01*
X94407000Y-173117000D01*
X94407000Y-173137000D01*
X94153000Y-173137000D01*
X94153000Y-173117000D01*
X92959845Y-173117000D01*
X92838524Y-173346890D01*
X92883175Y-173494099D01*
X93008359Y-173756920D01*
X93182412Y-173990269D01*
X93398645Y-174185178D01*
X93515534Y-174254805D01*
X93333368Y-174376525D01*
X93126525Y-174583368D01*
X92964010Y-174826589D01*
X92852068Y-175096842D01*
X92795000Y-175383740D01*
X92795000Y-175676260D01*
X92852068Y-175963158D01*
X92964010Y-176233411D01*
X93126525Y-176476632D01*
X93333368Y-176683475D01*
X93507760Y-176800000D01*
X93333368Y-176916525D01*
X93126525Y-177123368D01*
X92964010Y-177366589D01*
X92852068Y-177636842D01*
X92795000Y-177923740D01*
X92795000Y-178216260D01*
X92852068Y-178503158D01*
X92964010Y-178773411D01*
X93126525Y-179016632D01*
X93333368Y-179223475D01*
X93507760Y-179340000D01*
X93333368Y-179456525D01*
X93126525Y-179663368D01*
X92964010Y-179906589D01*
X92852068Y-180176842D01*
X92795000Y-180463740D01*
X92795000Y-180756260D01*
X92852068Y-181043158D01*
X92964010Y-181313411D01*
X93126525Y-181556632D01*
X93333368Y-181763475D01*
X93576589Y-181925990D01*
X93846842Y-182037932D01*
X94133740Y-182095000D01*
X94426260Y-182095000D01*
X94713158Y-182037932D01*
X94983411Y-181925990D01*
X95226632Y-181763475D01*
X95433475Y-181556632D01*
X95551100Y-181380594D01*
X95722412Y-181610269D01*
X95938645Y-181805178D01*
X96188748Y-181954157D01*
X96463109Y-182051481D01*
X96693000Y-181930814D01*
X96693000Y-180737000D01*
X96947000Y-180737000D01*
X96947000Y-181930814D01*
X97176891Y-182051481D01*
X97451252Y-181954157D01*
X97701355Y-181805178D01*
X97917588Y-181610269D01*
X98091641Y-181376920D01*
X98216825Y-181114099D01*
X98261476Y-180966890D01*
X98140155Y-180737000D01*
X96947000Y-180737000D01*
X96693000Y-180737000D01*
X96673000Y-180737000D01*
X96673000Y-180483000D01*
X96693000Y-180483000D01*
X96693000Y-180463000D01*
X96947000Y-180463000D01*
X96947000Y-180483000D01*
X98140155Y-180483000D01*
X98261476Y-180253110D01*
X98216825Y-180105901D01*
X98091641Y-179843080D01*
X97917588Y-179609731D01*
X97701355Y-179414822D01*
X97584466Y-179345195D01*
X97766632Y-179223475D01*
X97973475Y-179016632D01*
X98135990Y-178773411D01*
X98247932Y-178503158D01*
X98305000Y-178216260D01*
X98305000Y-177923740D01*
X98247932Y-177636842D01*
X98135990Y-177366589D01*
X97973475Y-177123368D01*
X97766632Y-176916525D01*
X97592240Y-176800000D01*
X97766632Y-176683475D01*
X97973475Y-176476632D01*
X98135990Y-176233411D01*
X98247932Y-175963158D01*
X98305000Y-175676260D01*
X98305000Y-175383740D01*
X98247932Y-175096842D01*
X98135990Y-174826589D01*
X97973475Y-174583368D01*
X97766632Y-174376525D01*
X97592240Y-174260000D01*
X97766632Y-174143475D01*
X97973475Y-173936632D01*
X98135990Y-173693411D01*
X98247932Y-173423158D01*
X98305000Y-173136260D01*
X98305000Y-172843740D01*
X98247932Y-172556842D01*
X98135990Y-172286589D01*
X97973475Y-172043368D01*
X97766632Y-171836525D01*
X97592240Y-171720000D01*
X97766632Y-171603475D01*
X97973475Y-171396632D01*
X98135990Y-171153411D01*
X98247932Y-170883158D01*
X98305000Y-170596260D01*
X98305000Y-170303740D01*
X98247932Y-170016842D01*
X98135990Y-169746589D01*
X97973475Y-169503368D01*
X97766632Y-169296525D01*
X97592240Y-169180000D01*
X97766632Y-169063475D01*
X97973475Y-168856632D01*
X98135990Y-168613411D01*
X98247932Y-168343158D01*
X98305000Y-168056260D01*
X98305000Y-167763740D01*
X98247932Y-167476842D01*
X98135990Y-167206589D01*
X97973475Y-166963368D01*
X97766632Y-166756525D01*
X97592240Y-166640000D01*
X97766632Y-166523475D01*
X97973475Y-166316632D01*
X98135990Y-166073411D01*
X98247932Y-165803158D01*
X98305000Y-165516260D01*
X98305000Y-165223740D01*
X98247932Y-164936842D01*
X98135990Y-164666589D01*
X97973475Y-164423368D01*
X97766632Y-164216525D01*
X97584466Y-164094805D01*
X97701355Y-164025178D01*
X97917588Y-163830269D01*
X98091641Y-163596920D01*
X98216825Y-163334099D01*
X98261476Y-163186890D01*
X98140155Y-162957000D01*
X96947000Y-162957000D01*
X96947000Y-162977000D01*
X96693000Y-162977000D01*
X96693000Y-162957000D01*
X96673000Y-162957000D01*
X96673000Y-162703000D01*
X96693000Y-162703000D01*
X96693000Y-162683000D01*
X96947000Y-162683000D01*
X96947000Y-162703000D01*
X98140155Y-162703000D01*
X98261476Y-162473110D01*
X98216825Y-162325901D01*
X98091641Y-162063080D01*
X97917588Y-161829731D01*
X97701355Y-161634822D01*
X97584466Y-161565195D01*
X97766632Y-161443475D01*
X97973475Y-161236632D01*
X98135990Y-160993411D01*
X98247932Y-160723158D01*
X98305000Y-160436260D01*
X98305000Y-160143740D01*
X98247932Y-159856842D01*
X98135990Y-159586589D01*
X97973475Y-159343368D01*
X97766632Y-159136525D01*
X97592240Y-159020000D01*
X97766632Y-158903475D01*
X97973475Y-158696632D01*
X98135990Y-158453411D01*
X98247932Y-158183158D01*
X98305000Y-157896260D01*
X98305000Y-157603740D01*
X98247932Y-157316842D01*
X98135990Y-157046589D01*
X97973475Y-156803368D01*
X97766632Y-156596525D01*
X97592240Y-156480000D01*
X97766632Y-156363475D01*
X97973475Y-156156632D01*
X98135990Y-155913411D01*
X98247932Y-155643158D01*
X98305000Y-155356260D01*
X98305000Y-155063740D01*
X98247932Y-154776842D01*
X98135990Y-154506589D01*
X97973475Y-154263368D01*
X97766632Y-154056525D01*
X97592240Y-153940000D01*
X97766632Y-153823475D01*
X97973475Y-153616632D01*
X98135990Y-153373411D01*
X98247932Y-153103158D01*
X98305000Y-152816260D01*
X98305000Y-152523740D01*
X98247932Y-152236842D01*
X98135990Y-151966589D01*
X97973475Y-151723368D01*
X97766632Y-151516525D01*
X97592240Y-151400000D01*
X97766632Y-151283475D01*
X97973475Y-151076632D01*
X98135990Y-150833411D01*
X98247932Y-150563158D01*
X98305000Y-150276260D01*
X98305000Y-149983740D01*
X98247932Y-149696842D01*
X98135990Y-149426589D01*
X97973475Y-149183368D01*
X97766632Y-148976525D01*
X97592240Y-148860000D01*
X97766632Y-148743475D01*
X97973475Y-148536632D01*
X98135990Y-148293411D01*
X98247932Y-148023158D01*
X98305000Y-147736260D01*
X98305000Y-147443740D01*
X98247932Y-147156842D01*
X98135990Y-146886589D01*
X97973475Y-146643368D01*
X97766632Y-146436525D01*
X97592240Y-146320000D01*
X97766632Y-146203475D01*
X97973475Y-145996632D01*
X98135990Y-145753411D01*
X98247932Y-145483158D01*
X98305000Y-145196260D01*
X98305000Y-144903740D01*
X98247932Y-144616842D01*
X98135990Y-144346589D01*
X97973475Y-144103368D01*
X97766632Y-143896525D01*
X97584466Y-143774805D01*
X97701355Y-143705178D01*
X97917588Y-143510269D01*
X98091641Y-143276920D01*
X98216825Y-143014099D01*
X98261476Y-142866890D01*
X98140155Y-142637000D01*
X96947000Y-142637000D01*
X96947000Y-142657000D01*
X96693000Y-142657000D01*
X96693000Y-142637000D01*
X96673000Y-142637000D01*
X96673000Y-142383000D01*
X96693000Y-142383000D01*
X96693000Y-142363000D01*
X96947000Y-142363000D01*
X96947000Y-142383000D01*
X98140155Y-142383000D01*
X98261476Y-142153110D01*
X98216825Y-142005901D01*
X98091641Y-141743080D01*
X97917588Y-141509731D01*
X97701355Y-141314822D01*
X97584466Y-141245195D01*
X97766632Y-141123475D01*
X97973475Y-140916632D01*
X98135990Y-140673411D01*
X98247932Y-140403158D01*
X98305000Y-140116260D01*
X98305000Y-139823740D01*
X98247932Y-139536842D01*
X98135990Y-139266589D01*
X97973475Y-139023368D01*
X97766632Y-138816525D01*
X97592240Y-138700000D01*
X97766632Y-138583475D01*
X97973475Y-138376632D01*
X98135990Y-138133411D01*
X98247932Y-137863158D01*
X98305000Y-137576260D01*
X98305000Y-137283740D01*
X98247932Y-136996842D01*
X98135990Y-136726589D01*
X97973475Y-136483368D01*
X97766632Y-136276525D01*
X97592240Y-136160000D01*
X97766632Y-136043475D01*
X97973475Y-135836632D01*
X98135990Y-135593411D01*
X98247932Y-135323158D01*
X98305000Y-135036260D01*
X98305000Y-134743740D01*
X98247932Y-134456842D01*
X98135990Y-134186589D01*
X97973475Y-133943368D01*
X97841620Y-133811513D01*
X97914180Y-133789502D01*
X98024494Y-133730537D01*
X98121185Y-133651185D01*
X98200537Y-133554494D01*
X98259502Y-133444180D01*
X98295812Y-133324482D01*
X98308072Y-133200000D01*
X98308072Y-131500000D01*
X98295812Y-131375518D01*
X98259502Y-131255820D01*
X98200537Y-131145506D01*
X98121185Y-131048815D01*
X98024494Y-130969463D01*
X97914180Y-130910498D01*
X97794482Y-130874188D01*
X97670000Y-130861928D01*
X95970000Y-130861928D01*
X95845518Y-130874188D01*
X95725820Y-130910498D01*
X95615506Y-130969463D01*
X95518815Y-131048815D01*
X95439463Y-131145506D01*
X95380498Y-131255820D01*
X95358487Y-131328380D01*
X95226632Y-131196525D01*
X94983411Y-131034010D01*
X94713158Y-130922068D01*
X94426260Y-130865000D01*
X94133740Y-130865000D01*
X93846842Y-130922068D01*
X93576589Y-131034010D01*
X93333368Y-131196525D01*
X93126525Y-131403368D01*
X92964010Y-131646589D01*
X92852068Y-131916842D01*
X92795000Y-132203740D01*
X92795000Y-132496260D01*
X92852068Y-132783158D01*
X92964010Y-133053411D01*
X93126525Y-133296632D01*
X93333368Y-133503475D01*
X93507760Y-133620000D01*
X93333368Y-133736525D01*
X93126525Y-133943368D01*
X92964010Y-134186589D01*
X92852068Y-134456842D01*
X92795000Y-134743740D01*
X92795000Y-135036260D01*
X92852068Y-135323158D01*
X92964010Y-135593411D01*
X93126525Y-135836632D01*
X93333368Y-136043475D01*
X93515534Y-136165195D01*
X93398645Y-136234822D01*
X93182412Y-136429731D01*
X93008359Y-136663080D01*
X92883175Y-136925901D01*
X92838524Y-137073110D01*
X92959845Y-137303000D01*
X94153000Y-137303000D01*
X94153000Y-137283000D01*
X94407000Y-137283000D01*
X94407000Y-137303000D01*
X94427000Y-137303000D01*
X94427000Y-137557000D01*
X94407000Y-137557000D01*
X94407000Y-137577000D01*
X94153000Y-137577000D01*
X94153000Y-137557000D01*
X92959845Y-137557000D01*
X92838524Y-137786890D01*
X92883175Y-137934099D01*
X93008359Y-138196920D01*
X93182412Y-138430269D01*
X93398645Y-138625178D01*
X93515534Y-138694805D01*
X93333368Y-138816525D01*
X93126525Y-139023368D01*
X92964010Y-139266589D01*
X92852068Y-139536842D01*
X92795000Y-139823740D01*
X92795000Y-140116260D01*
X92852068Y-140403158D01*
X92964010Y-140673411D01*
X93126525Y-140916632D01*
X93333368Y-141123475D01*
X93507760Y-141240000D01*
X93333368Y-141356525D01*
X93126525Y-141563368D01*
X92964010Y-141806589D01*
X92852068Y-142076842D01*
X92795000Y-142363740D01*
X92795000Y-142656260D01*
X92852068Y-142943158D01*
X92964010Y-143213411D01*
X93126525Y-143456632D01*
X93333368Y-143663475D01*
X93507760Y-143780000D01*
X93333368Y-143896525D01*
X93126525Y-144103368D01*
X92964010Y-144346589D01*
X92852068Y-144616842D01*
X92795000Y-144903740D01*
X92795000Y-145196260D01*
X92852068Y-145483158D01*
X92964010Y-145753411D01*
X93126525Y-145996632D01*
X93333368Y-146203475D01*
X93515534Y-146325195D01*
X93398645Y-146394822D01*
X93182412Y-146589731D01*
X93008359Y-146823080D01*
X92883175Y-147085901D01*
X92838524Y-147233110D01*
X92959845Y-147463000D01*
X94153000Y-147463000D01*
X94153000Y-147443000D01*
X94407000Y-147443000D01*
X94407000Y-147463000D01*
X94427000Y-147463000D01*
X94427000Y-147717000D01*
X94407000Y-147717000D01*
X94407000Y-147737000D01*
X94153000Y-147737000D01*
X94153000Y-147717000D01*
X92959845Y-147717000D01*
X92838524Y-147946890D01*
X92883175Y-148094099D01*
X93008359Y-148356920D01*
X93182412Y-148590269D01*
X93398645Y-148785178D01*
X93515534Y-148854805D01*
X93333368Y-148976525D01*
X93126525Y-149183368D01*
X93085344Y-149245000D01*
X91496579Y-149245000D01*
X88885000Y-146633422D01*
X88885000Y-127254495D01*
X93565000Y-127254495D01*
X93565000Y-127645505D01*
X93641282Y-128029003D01*
X93790915Y-128390250D01*
X94008149Y-128715364D01*
X94284636Y-128991851D01*
X94609750Y-129209085D01*
X94970997Y-129358718D01*
X95354495Y-129435000D01*
X95745505Y-129435000D01*
X96129003Y-129358718D01*
X96490250Y-129209085D01*
X96815364Y-128991851D01*
X97091851Y-128715364D01*
X97309085Y-128390250D01*
X97458718Y-128029003D01*
X97535000Y-127645505D01*
X97535000Y-127254495D01*
X142565000Y-127254495D01*
X142565000Y-127645505D01*
X142641282Y-128029003D01*
X142790915Y-128390250D01*
X143008149Y-128715364D01*
X143284636Y-128991851D01*
X143609750Y-129209085D01*
X143970997Y-129358718D01*
X144354495Y-129435000D01*
X144745505Y-129435000D01*
X145129003Y-129358718D01*
X145490250Y-129209085D01*
X145815364Y-128991851D01*
X146091851Y-128715364D01*
X146309085Y-128390250D01*
X146458718Y-128029003D01*
X146535000Y-127645505D01*
X146535000Y-127254495D01*
X146458718Y-126870997D01*
X146309085Y-126509750D01*
X146091851Y-126184636D01*
X145815364Y-125908149D01*
X145490250Y-125690915D01*
X145129003Y-125541282D01*
X144745505Y-125465000D01*
X144354495Y-125465000D01*
X143970997Y-125541282D01*
X143609750Y-125690915D01*
X143284636Y-125908149D01*
X143008149Y-126184636D01*
X142790915Y-126509750D01*
X142641282Y-126870997D01*
X142565000Y-127254495D01*
X97535000Y-127254495D01*
X97458718Y-126870997D01*
X97309085Y-126509750D01*
X97091851Y-126184636D01*
X96815364Y-125908149D01*
X96490250Y-125690915D01*
X96129003Y-125541282D01*
X95745505Y-125465000D01*
X95354495Y-125465000D01*
X94970997Y-125541282D01*
X94609750Y-125690915D01*
X94284636Y-125908149D01*
X94008149Y-126184636D01*
X93790915Y-126509750D01*
X93641282Y-126870997D01*
X93565000Y-127254495D01*
X88885000Y-127254495D01*
X88885000Y-125043469D01*
X88889281Y-125000000D01*
X88885000Y-124956531D01*
X88885000Y-124956523D01*
X88872195Y-124826510D01*
X88821589Y-124659687D01*
X88821589Y-124659686D01*
X88739411Y-124505941D01*
X88656532Y-124404953D01*
X88656530Y-124404951D01*
X88628817Y-124371183D01*
X88595049Y-124343470D01*
X74156537Y-109904959D01*
X74156532Y-109904953D01*
X73639262Y-109387683D01*
X68545000Y-104293422D01*
X68545000Y-96790173D01*
X69135000Y-96790173D01*
X69135000Y-97269827D01*
X69228576Y-97740263D01*
X69412131Y-98183405D01*
X69678612Y-98582222D01*
X70017778Y-98921388D01*
X70416595Y-99187869D01*
X70859737Y-99371424D01*
X71330173Y-99465000D01*
X71809827Y-99465000D01*
X72280263Y-99371424D01*
X72723405Y-99187869D01*
X73122222Y-98921388D01*
X73461388Y-98582222D01*
X73727869Y-98183405D01*
X73911424Y-97740263D01*
X74005000Y-97269827D01*
X74005000Y-96790173D01*
X83345000Y-96790173D01*
X83345000Y-97269827D01*
X83438576Y-97740263D01*
X83622131Y-98183405D01*
X83888612Y-98582222D01*
X84227778Y-98921388D01*
X84626595Y-99187869D01*
X85069737Y-99371424D01*
X85540173Y-99465000D01*
X86019827Y-99465000D01*
X86490263Y-99371424D01*
X86933405Y-99187869D01*
X87332222Y-98921388D01*
X87671388Y-98582222D01*
X87937869Y-98183405D01*
X87945698Y-98164503D01*
X107235947Y-98164503D01*
X107370484Y-98581473D01*
X107583783Y-98964184D01*
X107867646Y-99297929D01*
X108211165Y-99569882D01*
X108601139Y-99769593D01*
X108945497Y-99874050D01*
X109293000Y-99762362D01*
X109293000Y-97817000D01*
X109547000Y-97817000D01*
X109547000Y-99762362D01*
X109894503Y-99874050D01*
X110238861Y-99769593D01*
X110628835Y-99569882D01*
X110972354Y-99297929D01*
X111256217Y-98964184D01*
X111469516Y-98581473D01*
X111604053Y-98164503D01*
X111500072Y-97840173D01*
X123195000Y-97840173D01*
X123195000Y-98319827D01*
X123288576Y-98790263D01*
X123472131Y-99233405D01*
X123738612Y-99632222D01*
X124077778Y-99971388D01*
X124476595Y-100237869D01*
X124919737Y-100421424D01*
X125390173Y-100515000D01*
X125869827Y-100515000D01*
X126340263Y-100421424D01*
X126783405Y-100237869D01*
X127182222Y-99971388D01*
X127521388Y-99632222D01*
X127787869Y-99233405D01*
X127971424Y-98790263D01*
X128065000Y-98319827D01*
X128065000Y-97840173D01*
X137405000Y-97840173D01*
X137405000Y-98319827D01*
X137498576Y-98790263D01*
X137682131Y-99233405D01*
X137948612Y-99632222D01*
X138287778Y-99971388D01*
X138686595Y-100237869D01*
X139129737Y-100421424D01*
X139600173Y-100515000D01*
X140079827Y-100515000D01*
X140550263Y-100421424D01*
X140993405Y-100237869D01*
X141392222Y-99971388D01*
X141731388Y-99632222D01*
X141997869Y-99233405D01*
X142181424Y-98790263D01*
X142275000Y-98319827D01*
X142275000Y-97840173D01*
X142181424Y-97369737D01*
X141997869Y-96926595D01*
X141731388Y-96527778D01*
X141392222Y-96188612D01*
X140993405Y-95922131D01*
X140550263Y-95738576D01*
X140079827Y-95645000D01*
X139600173Y-95645000D01*
X139129737Y-95738576D01*
X138686595Y-95922131D01*
X138287778Y-96188612D01*
X137948612Y-96527778D01*
X137682131Y-96926595D01*
X137498576Y-97369737D01*
X137405000Y-97840173D01*
X128065000Y-97840173D01*
X127971424Y-97369737D01*
X127787869Y-96926595D01*
X127521388Y-96527778D01*
X127182222Y-96188612D01*
X126783405Y-95922131D01*
X126340263Y-95738576D01*
X125869827Y-95645000D01*
X125390173Y-95645000D01*
X124919737Y-95738576D01*
X124476595Y-95922131D01*
X124077778Y-96188612D01*
X123738612Y-96527778D01*
X123472131Y-96926595D01*
X123288576Y-97369737D01*
X123195000Y-97840173D01*
X111500072Y-97840173D01*
X111492642Y-97817000D01*
X109547000Y-97817000D01*
X109293000Y-97817000D01*
X107347358Y-97817000D01*
X107235947Y-98164503D01*
X87945698Y-98164503D01*
X88121424Y-97740263D01*
X88215000Y-97269827D01*
X88215000Y-97215497D01*
X107235947Y-97215497D01*
X107347358Y-97563000D01*
X109293000Y-97563000D01*
X109293000Y-95617638D01*
X109547000Y-95617638D01*
X109547000Y-97563000D01*
X111492642Y-97563000D01*
X111604053Y-97215497D01*
X111469516Y-96798527D01*
X111256217Y-96415816D01*
X110972354Y-96082071D01*
X110628835Y-95810118D01*
X110238861Y-95610407D01*
X109894503Y-95505950D01*
X109547000Y-95617638D01*
X109293000Y-95617638D01*
X108945497Y-95505950D01*
X108601139Y-95610407D01*
X108211165Y-95810118D01*
X107867646Y-96082071D01*
X107583783Y-96415816D01*
X107370484Y-96798527D01*
X107235947Y-97215497D01*
X88215000Y-97215497D01*
X88215000Y-96790173D01*
X88121424Y-96319737D01*
X87937869Y-95876595D01*
X87671388Y-95477778D01*
X87332222Y-95138612D01*
X86933405Y-94872131D01*
X86490263Y-94688576D01*
X86019827Y-94595000D01*
X85540173Y-94595000D01*
X85069737Y-94688576D01*
X84626595Y-94872131D01*
X84227778Y-95138612D01*
X83888612Y-95477778D01*
X83622131Y-95876595D01*
X83438576Y-96319737D01*
X83345000Y-96790173D01*
X74005000Y-96790173D01*
X73911424Y-96319737D01*
X73727869Y-95876595D01*
X73461388Y-95477778D01*
X73122222Y-95138612D01*
X72723405Y-94872131D01*
X72280263Y-94688576D01*
X71809827Y-94595000D01*
X71330173Y-94595000D01*
X70859737Y-94688576D01*
X70416595Y-94872131D01*
X70017778Y-95138612D01*
X69678612Y-95477778D01*
X69412131Y-95876595D01*
X69228576Y-96319737D01*
X69135000Y-96790173D01*
X68545000Y-96790173D01*
X68545000Y-83390000D01*
X107181928Y-83390000D01*
X107181928Y-86590000D01*
X107194188Y-86714482D01*
X107230498Y-86834180D01*
X107289463Y-86944494D01*
X107368815Y-87041185D01*
X107465506Y-87120537D01*
X107575820Y-87179502D01*
X107695518Y-87215812D01*
X107820000Y-87228072D01*
X111020000Y-87228072D01*
X111144482Y-87215812D01*
X111264180Y-87179502D01*
X111374494Y-87120537D01*
X111471185Y-87041185D01*
X111550537Y-86944494D01*
X111609502Y-86834180D01*
X111645812Y-86714482D01*
X111658072Y-86590000D01*
X111658072Y-83390000D01*
X111645812Y-83265518D01*
X111609502Y-83145820D01*
X111550537Y-83035506D01*
X111471185Y-82938815D01*
X111374494Y-82859463D01*
X111264180Y-82800498D01*
X111144482Y-82764188D01*
X111020000Y-82751928D01*
X107820000Y-82751928D01*
X107695518Y-82764188D01*
X107575820Y-82800498D01*
X107465506Y-82859463D01*
X107368815Y-82938815D01*
X107289463Y-83035506D01*
X107230498Y-83145820D01*
X107194188Y-83265518D01*
X107181928Y-83390000D01*
X68545000Y-83390000D01*
X68545000Y-77484790D01*
X68638505Y-77422312D01*
X68852312Y-77208505D01*
X69020299Y-76957095D01*
X69136011Y-76677743D01*
X69195000Y-76381184D01*
X69195000Y-76078816D01*
X69136011Y-75782257D01*
X69020299Y-75502905D01*
X68852312Y-75251495D01*
X68638505Y-75037688D01*
X68387095Y-74869701D01*
X68107743Y-74753989D01*
X67811184Y-74695000D01*
X67508816Y-74695000D01*
X67212257Y-74753989D01*
X66932905Y-74869701D01*
X66681495Y-75037688D01*
X66467688Y-75251495D01*
X66390000Y-75367763D01*
X66312312Y-75251495D01*
X66098505Y-75037688D01*
X65847095Y-74869701D01*
X65567743Y-74753989D01*
X65271184Y-74695000D01*
X64968816Y-74695000D01*
X64672257Y-74753989D01*
X64392905Y-74869701D01*
X64141495Y-75037688D01*
X63927688Y-75251495D01*
X63850000Y-75367763D01*
X63772312Y-75251495D01*
X63558505Y-75037688D01*
X63307095Y-74869701D01*
X63027743Y-74753989D01*
X62731184Y-74695000D01*
X62428816Y-74695000D01*
X62132257Y-74753989D01*
X61852905Y-74869701D01*
X61601495Y-75037688D01*
X61535056Y-75104127D01*
X61529502Y-75085820D01*
X61470537Y-74975506D01*
X61391185Y-74878815D01*
X61294494Y-74799463D01*
X61184180Y-74740498D01*
X61064482Y-74704188D01*
X60940000Y-74691928D01*
X59140000Y-74691928D01*
X59015518Y-74704188D01*
X58895820Y-74740498D01*
X58785506Y-74799463D01*
X58688815Y-74878815D01*
X58609463Y-74975506D01*
X58550498Y-75085820D01*
X58514188Y-75205518D01*
X58501928Y-75330000D01*
X58501928Y-77130000D01*
X58514188Y-77254482D01*
X58550498Y-77374180D01*
X58609463Y-77484494D01*
X58688815Y-77581185D01*
X58785506Y-77660537D01*
X58895820Y-77719502D01*
X59015518Y-77755812D01*
X59140000Y-77768072D01*
X60940000Y-77768072D01*
X61064482Y-77755812D01*
X61184180Y-77719502D01*
X61294494Y-77660537D01*
X61391185Y-77581185D01*
X61470537Y-77484494D01*
X61529502Y-77374180D01*
X61535056Y-77355873D01*
X61601495Y-77422312D01*
X61695000Y-77484790D01*
X61695001Y-81786521D01*
X61690719Y-81830000D01*
X61707805Y-82003490D01*
X61758412Y-82170313D01*
X61840590Y-82324059D01*
X61923468Y-82425046D01*
X61923471Y-82425049D01*
X61951184Y-82458817D01*
X61984951Y-82486529D01*
X62411983Y-82913561D01*
X62405000Y-82948665D01*
X62405000Y-83231335D01*
X62460147Y-83508574D01*
X62568320Y-83769727D01*
X62725363Y-84004759D01*
X62925241Y-84204637D01*
X63127827Y-84340000D01*
X62925241Y-84475363D01*
X62725363Y-84675241D01*
X62568320Y-84910273D01*
X62460147Y-85171426D01*
X62405000Y-85448665D01*
X62405000Y-85731335D01*
X62460147Y-86008574D01*
X62568320Y-86269727D01*
X62725363Y-86504759D01*
X62925241Y-86704637D01*
X63160273Y-86861680D01*
X63421426Y-86969853D01*
X63698665Y-87025000D01*
X63981335Y-87025000D01*
X64258574Y-86969853D01*
X64519727Y-86861680D01*
X64754759Y-86704637D01*
X64954637Y-86504759D01*
X65111680Y-86269727D01*
X65219853Y-86008574D01*
X65275000Y-85731335D01*
X65275000Y-85448665D01*
X65219853Y-85171426D01*
X65111680Y-84910273D01*
X64954637Y-84675241D01*
X64754759Y-84475363D01*
X64552173Y-84340000D01*
X64754759Y-84204637D01*
X64954637Y-84004759D01*
X65111680Y-83769727D01*
X65219853Y-83508574D01*
X65275000Y-83231335D01*
X65275000Y-82948665D01*
X65219853Y-82671426D01*
X65111680Y-82410273D01*
X64954637Y-82175241D01*
X64754759Y-81975363D01*
X64519727Y-81818320D01*
X64258574Y-81710147D01*
X63981335Y-81655000D01*
X63698665Y-81655000D01*
X63663561Y-81661983D01*
X63465000Y-81463422D01*
X63465000Y-77484790D01*
X63558505Y-77422312D01*
X63772312Y-77208505D01*
X63850000Y-77092237D01*
X63927688Y-77208505D01*
X64141495Y-77422312D01*
X64392905Y-77590299D01*
X64672257Y-77706011D01*
X64968816Y-77765000D01*
X65271184Y-77765000D01*
X65567743Y-77706011D01*
X65847095Y-77590299D01*
X66098505Y-77422312D01*
X66312312Y-77208505D01*
X66390000Y-77092237D01*
X66467688Y-77208505D01*
X66681495Y-77422312D01*
X66775000Y-77484790D01*
X66775001Y-104616521D01*
X66770719Y-104660000D01*
X66787805Y-104833490D01*
X66838412Y-105000313D01*
X66920590Y-105154059D01*
X67003468Y-105255046D01*
X67003471Y-105255049D01*
X67031184Y-105288817D01*
X67064952Y-105316530D01*
X72421910Y-110673489D01*
X72904953Y-111156532D01*
X72904959Y-111156537D01*
X87115001Y-125366580D01*
X87115000Y-146956531D01*
X87110719Y-147000000D01*
X87115000Y-147043469D01*
X87115000Y-147043476D01*
X87125780Y-147152932D01*
X87127805Y-147173490D01*
X87143157Y-147224096D01*
X87178411Y-147340312D01*
X87260589Y-147494058D01*
X87371183Y-147628817D01*
X87404956Y-147656534D01*
X90473470Y-150725049D01*
X90501183Y-150758817D01*
X90534951Y-150786530D01*
X90534953Y-150786532D01*
X90592075Y-150833411D01*
X90635941Y-150869411D01*
X90789687Y-150951589D01*
X90956510Y-151002195D01*
X91086523Y-151015000D01*
X91086533Y-151015000D01*
X91129999Y-151019281D01*
X91173465Y-151015000D01*
X93085344Y-151015000D01*
X93126525Y-151076632D01*
X93333368Y-151283475D01*
X93507760Y-151400000D01*
X93333368Y-151516525D01*
X93126525Y-151723368D01*
X92964010Y-151966589D01*
X92852068Y-152236842D01*
X92795000Y-152523740D01*
X92795000Y-152816260D01*
X92852068Y-153103158D01*
X92964010Y-153373411D01*
X93126525Y-153616632D01*
X93333368Y-153823475D01*
X93515534Y-153945195D01*
X93398645Y-154014822D01*
X93182412Y-154209731D01*
X93008359Y-154443080D01*
X92883175Y-154705901D01*
X92838524Y-154853110D01*
X92959845Y-155083000D01*
X94153000Y-155083000D01*
X94153000Y-155063000D01*
X94407000Y-155063000D01*
X94407000Y-155083000D01*
X94427000Y-155083000D01*
X94427000Y-155337000D01*
X94407000Y-155337000D01*
X94407000Y-155357000D01*
X94153000Y-155357000D01*
X94153000Y-155337000D01*
X92959845Y-155337000D01*
X92838524Y-155566890D01*
X92883175Y-155714099D01*
X93008359Y-155976920D01*
X93182412Y-156210269D01*
X93398645Y-156405178D01*
X93515534Y-156474805D01*
X93333368Y-156596525D01*
X93126525Y-156803368D01*
X92964010Y-157046589D01*
X92852068Y-157316842D01*
X92795000Y-157603740D01*
X92795000Y-157896260D01*
X92852068Y-158183158D01*
X92964010Y-158453411D01*
X93126525Y-158696632D01*
X93333368Y-158903475D01*
X93507760Y-159020000D01*
X93333368Y-159136525D01*
X93126525Y-159343368D01*
X92964010Y-159586589D01*
X92852068Y-159856842D01*
X92795000Y-160143740D01*
X92795000Y-160436260D01*
X92852068Y-160723158D01*
X92964010Y-160993411D01*
X93126525Y-161236632D01*
X93333368Y-161443475D01*
X93507760Y-161560000D01*
X93333368Y-161676525D01*
X93126525Y-161883368D01*
X92964010Y-162126589D01*
X92852068Y-162396842D01*
X92795000Y-162683740D01*
X92795000Y-162976260D01*
X92852068Y-163263158D01*
X92964010Y-163533411D01*
X93126525Y-163776632D01*
X93333368Y-163983475D01*
X93507760Y-164100000D01*
X93333368Y-164216525D01*
X93126525Y-164423368D01*
X92964010Y-164666589D01*
X92852068Y-164936842D01*
X92795000Y-165223740D01*
X92795000Y-165516260D01*
X92852068Y-165803158D01*
X92964010Y-166073411D01*
X93126525Y-166316632D01*
X93333368Y-166523475D01*
X93515534Y-166645195D01*
X93398645Y-166714822D01*
X93182412Y-166909731D01*
X93008359Y-167143080D01*
X92883175Y-167405901D01*
X92838524Y-167553110D01*
X92959845Y-167783000D01*
X94153000Y-167783000D01*
X94153000Y-167763000D01*
X94407000Y-167763000D01*
X94407000Y-167783000D01*
X94427000Y-167783000D01*
X94427000Y-168037000D01*
X94407000Y-168037000D01*
X94407000Y-168057000D01*
X94153000Y-168057000D01*
X94153000Y-168037000D01*
X92959845Y-168037000D01*
X92838524Y-168266890D01*
X92883175Y-168414099D01*
X93008359Y-168676920D01*
X93182412Y-168910269D01*
X93398645Y-169105178D01*
X93515534Y-169174805D01*
X93333368Y-169296525D01*
X93164893Y-169465000D01*
X91116579Y-169465000D01*
X90156536Y-168504958D01*
X90156532Y-168504953D01*
X86875000Y-165223422D01*
X86875000Y-143633465D01*
X86879281Y-143589999D01*
X86875000Y-143546533D01*
X86875000Y-143546523D01*
X86862195Y-143416510D01*
X86811589Y-143249687D01*
X86729411Y-143095941D01*
X86705210Y-143066452D01*
X86646532Y-142994953D01*
X86646530Y-142994951D01*
X86618817Y-142961183D01*
X86585049Y-142933470D01*
X77856537Y-134204959D01*
X77856532Y-134204953D01*
X72906534Y-129254956D01*
X72878817Y-129221183D01*
X72744059Y-129110589D01*
X72590313Y-129028411D01*
X72423490Y-128977805D01*
X72293477Y-128965000D01*
X72293469Y-128965000D01*
X72250000Y-128960719D01*
X72206531Y-128965000D01*
X42234625Y-128965000D01*
X42225812Y-128875518D01*
X42189502Y-128755820D01*
X42130537Y-128645506D01*
X42051185Y-128548815D01*
X41954494Y-128469463D01*
X41844180Y-128410498D01*
X41771620Y-128388487D01*
X41903475Y-128256632D01*
X42065990Y-128013411D01*
X42177932Y-127743158D01*
X42235000Y-127456260D01*
X42235000Y-127163740D01*
X42177932Y-126876842D01*
X42065990Y-126606589D01*
X41903475Y-126363368D01*
X41696632Y-126156525D01*
X41514466Y-126034805D01*
X41631355Y-125965178D01*
X41847588Y-125770269D01*
X42021641Y-125536920D01*
X42146825Y-125274099D01*
X42191476Y-125126890D01*
X42070155Y-124897000D01*
X40877000Y-124897000D01*
X40877000Y-124917000D01*
X40623000Y-124917000D01*
X40623000Y-124897000D01*
X39429845Y-124897000D01*
X39308524Y-125126890D01*
X39353175Y-125274099D01*
X39478359Y-125536920D01*
X39652412Y-125770269D01*
X39868645Y-125965178D01*
X39985534Y-126034805D01*
X39803368Y-126156525D01*
X39596525Y-126363368D01*
X39434010Y-126606589D01*
X39322068Y-126876842D01*
X39265000Y-127163740D01*
X39265000Y-127456260D01*
X39322068Y-127743158D01*
X39434010Y-128013411D01*
X39596525Y-128256632D01*
X39728380Y-128388487D01*
X39655820Y-128410498D01*
X39545506Y-128469463D01*
X39448815Y-128548815D01*
X39369463Y-128645506D01*
X39310498Y-128755820D01*
X39274188Y-128875518D01*
X39261928Y-129000000D01*
X31583848Y-129000000D01*
X31587326Y-124413110D01*
X39308524Y-124413110D01*
X39429845Y-124643000D01*
X40623000Y-124643000D01*
X40623000Y-123449186D01*
X40877000Y-123449186D01*
X40877000Y-124643000D01*
X42070155Y-124643000D01*
X42191476Y-124413110D01*
X42146825Y-124265901D01*
X42021641Y-124003080D01*
X41847588Y-123769731D01*
X41631355Y-123574822D01*
X41381252Y-123425843D01*
X41106891Y-123328519D01*
X40877000Y-123449186D01*
X40623000Y-123449186D01*
X40393109Y-123328519D01*
X40118748Y-123425843D01*
X39868645Y-123574822D01*
X39652412Y-123769731D01*
X39478359Y-124003080D01*
X39353175Y-124265901D01*
X39308524Y-124413110D01*
X31587326Y-124413110D01*
X31596086Y-112859419D01*
X49815000Y-112859419D01*
X49815000Y-113240581D01*
X49889361Y-113614419D01*
X50035225Y-113966566D01*
X50246987Y-114283491D01*
X50516509Y-114553013D01*
X50833434Y-114764775D01*
X51185581Y-114910639D01*
X51559419Y-114985000D01*
X51940581Y-114985000D01*
X52314419Y-114910639D01*
X52666566Y-114764775D01*
X52983491Y-114553013D01*
X53253013Y-114283491D01*
X53464775Y-113966566D01*
X53610639Y-113614419D01*
X53685000Y-113240581D01*
X53685000Y-112859419D01*
X53610639Y-112485581D01*
X53464775Y-112133434D01*
X53253013Y-111816509D01*
X52983491Y-111546987D01*
X52666566Y-111335225D01*
X52314419Y-111189361D01*
X51940581Y-111115000D01*
X51559419Y-111115000D01*
X51185581Y-111189361D01*
X50833434Y-111335225D01*
X50516509Y-111546987D01*
X50246987Y-111816509D01*
X50035225Y-112133434D01*
X49889361Y-112485581D01*
X49815000Y-112859419D01*
X31596086Y-112859419D01*
X31598483Y-109699224D01*
X47580381Y-109699224D01*
X47712317Y-109994312D01*
X48053045Y-110165159D01*
X48420557Y-110266250D01*
X48800729Y-110293701D01*
X49178951Y-110246457D01*
X49540690Y-110126333D01*
X49787683Y-109994312D01*
X49919619Y-109699224D01*
X48750000Y-108529605D01*
X47580381Y-109699224D01*
X31598483Y-109699224D01*
X31599468Y-108400729D01*
X46806299Y-108400729D01*
X46853543Y-108778951D01*
X46973667Y-109140690D01*
X47105688Y-109387683D01*
X47400776Y-109519619D01*
X48570395Y-108350000D01*
X48929605Y-108350000D01*
X50099224Y-109519619D01*
X50394312Y-109387683D01*
X50565159Y-109046955D01*
X50666250Y-108679443D01*
X50693701Y-108299271D01*
X50646457Y-107921049D01*
X50526333Y-107559310D01*
X50394312Y-107312317D01*
X50099224Y-107180381D01*
X48929605Y-108350000D01*
X48570395Y-108350000D01*
X47400776Y-107180381D01*
X47105688Y-107312317D01*
X46934841Y-107653045D01*
X46833750Y-108020557D01*
X46806299Y-108400729D01*
X31599468Y-108400729D01*
X31600529Y-107000776D01*
X47580381Y-107000776D01*
X48750000Y-108170395D01*
X49919619Y-107000776D01*
X49787683Y-106705688D01*
X49446955Y-106534841D01*
X49079443Y-106433750D01*
X48699271Y-106406299D01*
X48321049Y-106453543D01*
X47959310Y-106573667D01*
X47712317Y-106705688D01*
X47580381Y-107000776D01*
X31600529Y-107000776D01*
X31607030Y-98428438D01*
X44761505Y-98428438D01*
X44800605Y-98668549D01*
X44885798Y-98896418D01*
X44926652Y-98972852D01*
X45150236Y-99020159D01*
X45820395Y-98350000D01*
X45150236Y-97679841D01*
X44926652Y-97727148D01*
X44825763Y-97948516D01*
X44770000Y-98185313D01*
X44761505Y-98428438D01*
X31607030Y-98428438D01*
X31626668Y-72530000D01*
X44860719Y-72530000D01*
X44865000Y-72573469D01*
X44865001Y-96502519D01*
X44860719Y-96545998D01*
X44877805Y-96719488D01*
X44928412Y-96886311D01*
X45010590Y-97040057D01*
X45093468Y-97141044D01*
X45093471Y-97141047D01*
X45121184Y-97174815D01*
X45154951Y-97202527D01*
X45351289Y-97398866D01*
X45329841Y-97500236D01*
X46000000Y-98170395D01*
X46014143Y-98156253D01*
X46193748Y-98335858D01*
X46179605Y-98350000D01*
X46193748Y-98364143D01*
X46014143Y-98543748D01*
X46000000Y-98529605D01*
X45329841Y-99199764D01*
X45377148Y-99423348D01*
X45598516Y-99524237D01*
X45835313Y-99580000D01*
X46078438Y-99588495D01*
X46318549Y-99549395D01*
X46532117Y-99469549D01*
X46545506Y-99480537D01*
X46655820Y-99539502D01*
X46775518Y-99575812D01*
X46900000Y-99588072D01*
X48100000Y-99588072D01*
X48224482Y-99575812D01*
X48344180Y-99539502D01*
X48454494Y-99480537D01*
X48550318Y-99401896D01*
X53865000Y-104716579D01*
X53865001Y-106411928D01*
X53450000Y-106411928D01*
X53325518Y-106424188D01*
X53205820Y-106460498D01*
X53095506Y-106519463D01*
X52998815Y-106598815D01*
X52919463Y-106695506D01*
X52860498Y-106805820D01*
X52824188Y-106925518D01*
X52811928Y-107050000D01*
X52811928Y-109650000D01*
X52824188Y-109774482D01*
X52860498Y-109894180D01*
X52919463Y-110004494D01*
X52998815Y-110101185D01*
X53095506Y-110180537D01*
X53205820Y-110239502D01*
X53325518Y-110275812D01*
X53450000Y-110288072D01*
X56050000Y-110288072D01*
X56174482Y-110275812D01*
X56294180Y-110239502D01*
X56404494Y-110180537D01*
X56501185Y-110101185D01*
X56580537Y-110004494D01*
X56639502Y-109894180D01*
X56675812Y-109774482D01*
X56688072Y-109650000D01*
X56688072Y-107050000D01*
X56675812Y-106925518D01*
X56639502Y-106805820D01*
X56580537Y-106695506D01*
X56501185Y-106598815D01*
X56404494Y-106519463D01*
X56294180Y-106460498D01*
X56174482Y-106424188D01*
X56050000Y-106411928D01*
X55635000Y-106411928D01*
X55635000Y-104393465D01*
X55639281Y-104349999D01*
X55635000Y-104306533D01*
X55635000Y-104306523D01*
X55622195Y-104176510D01*
X55571589Y-104009687D01*
X55489411Y-103855941D01*
X55378817Y-103721183D01*
X55345051Y-103693472D01*
X49406534Y-97754956D01*
X49378817Y-97721183D01*
X49244059Y-97610589D01*
X49090313Y-97528411D01*
X48923490Y-97477805D01*
X48793477Y-97465000D01*
X48793469Y-97465000D01*
X48750000Y-97460719D01*
X48706531Y-97465000D01*
X48667683Y-97465000D01*
X48630537Y-97395506D01*
X48551185Y-97298815D01*
X48454494Y-97219463D01*
X48344180Y-97160498D01*
X48224482Y-97124188D01*
X48126146Y-97114503D01*
X53175947Y-97114503D01*
X53310484Y-97531473D01*
X53523783Y-97914184D01*
X53807646Y-98247929D01*
X54151165Y-98519882D01*
X54541139Y-98719593D01*
X54885497Y-98824050D01*
X55233000Y-98712362D01*
X55233000Y-96767000D01*
X55487000Y-96767000D01*
X55487000Y-98712362D01*
X55834503Y-98824050D01*
X56178861Y-98719593D01*
X56568835Y-98519882D01*
X56912354Y-98247929D01*
X57196217Y-97914184D01*
X57409516Y-97531473D01*
X57544053Y-97114503D01*
X57432642Y-96767000D01*
X55487000Y-96767000D01*
X55233000Y-96767000D01*
X53287358Y-96767000D01*
X53175947Y-97114503D01*
X48126146Y-97114503D01*
X48100000Y-97111928D01*
X47567509Y-97111928D01*
X46635000Y-96179420D01*
X46635000Y-96165497D01*
X53175947Y-96165497D01*
X53287358Y-96513000D01*
X55233000Y-96513000D01*
X55233000Y-94567638D01*
X55487000Y-94567638D01*
X55487000Y-96513000D01*
X57432642Y-96513000D01*
X57544053Y-96165497D01*
X57409516Y-95748527D01*
X57196217Y-95365816D01*
X56912354Y-95032071D01*
X56568835Y-94760118D01*
X56178861Y-94560407D01*
X55834503Y-94455950D01*
X55487000Y-94567638D01*
X55233000Y-94567638D01*
X54885497Y-94455950D01*
X54541139Y-94560407D01*
X54151165Y-94760118D01*
X53807646Y-95032071D01*
X53523783Y-95365816D01*
X53310484Y-95748527D01*
X53175947Y-96165497D01*
X46635000Y-96165497D01*
X46635000Y-82340000D01*
X53121928Y-82340000D01*
X53121928Y-85540000D01*
X53134188Y-85664482D01*
X53170498Y-85784180D01*
X53229463Y-85894494D01*
X53308815Y-85991185D01*
X53405506Y-86070537D01*
X53515820Y-86129502D01*
X53635518Y-86165812D01*
X53760000Y-86178072D01*
X56960000Y-86178072D01*
X57084482Y-86165812D01*
X57204180Y-86129502D01*
X57314494Y-86070537D01*
X57411185Y-85991185D01*
X57490537Y-85894494D01*
X57549502Y-85784180D01*
X57585812Y-85664482D01*
X57598072Y-85540000D01*
X57598072Y-82340000D01*
X57585812Y-82215518D01*
X57549502Y-82095820D01*
X57490537Y-81985506D01*
X57411185Y-81888815D01*
X57314494Y-81809463D01*
X57204180Y-81750498D01*
X57084482Y-81714188D01*
X56960000Y-81701928D01*
X53760000Y-81701928D01*
X53635518Y-81714188D01*
X53515820Y-81750498D01*
X53405506Y-81809463D01*
X53308815Y-81888815D01*
X53229463Y-81985506D01*
X53170498Y-82095820D01*
X53134188Y-82215518D01*
X53121928Y-82340000D01*
X46635000Y-82340000D01*
X46635000Y-76037980D01*
X47421626Y-76037980D01*
X47541514Y-76322836D01*
X47865210Y-76483699D01*
X48214069Y-76578322D01*
X48574684Y-76603067D01*
X48933198Y-76556985D01*
X49275833Y-76441846D01*
X49498486Y-76322836D01*
X49618374Y-76037980D01*
X48520000Y-74939605D01*
X47421626Y-76037980D01*
X46635000Y-76037980D01*
X46635000Y-74814684D01*
X46676933Y-74814684D01*
X46723015Y-75173198D01*
X46838154Y-75515833D01*
X46957164Y-75738486D01*
X47242020Y-75858374D01*
X48340395Y-74760000D01*
X48699605Y-74760000D01*
X49797980Y-75858374D01*
X50082836Y-75738486D01*
X50243699Y-75414790D01*
X50338322Y-75065931D01*
X50363067Y-74705316D01*
X50316985Y-74346802D01*
X50201846Y-74004167D01*
X50082836Y-73781514D01*
X49797980Y-73661626D01*
X48699605Y-74760000D01*
X48340395Y-74760000D01*
X47242020Y-73661626D01*
X46957164Y-73781514D01*
X46796301Y-74105210D01*
X46701678Y-74454069D01*
X46676933Y-74814684D01*
X46635000Y-74814684D01*
X46635000Y-73482020D01*
X47421626Y-73482020D01*
X48520000Y-74580395D01*
X49450394Y-73650000D01*
X77911928Y-73650000D01*
X77911928Y-76050000D01*
X77924188Y-76174482D01*
X77960498Y-76294180D01*
X78019463Y-76404494D01*
X78098815Y-76501185D01*
X78195506Y-76580537D01*
X78305820Y-76639502D01*
X78425518Y-76675812D01*
X78550000Y-76688072D01*
X80950000Y-76688072D01*
X81074482Y-76675812D01*
X81194180Y-76639502D01*
X81215735Y-76627980D01*
X101481626Y-76627980D01*
X101601514Y-76912836D01*
X101925210Y-77073699D01*
X102274069Y-77168322D01*
X102634684Y-77193067D01*
X102993198Y-77146985D01*
X103335833Y-77031846D01*
X103558486Y-76912836D01*
X103678374Y-76627980D01*
X102580000Y-75529605D01*
X101481626Y-76627980D01*
X81215735Y-76627980D01*
X81304494Y-76580537D01*
X81401185Y-76501185D01*
X81480537Y-76404494D01*
X81539502Y-76294180D01*
X81575812Y-76174482D01*
X81588072Y-76050000D01*
X81588072Y-75404684D01*
X100736933Y-75404684D01*
X100783015Y-75763198D01*
X100898154Y-76105833D01*
X101017164Y-76328486D01*
X101302020Y-76448374D01*
X102400395Y-75350000D01*
X102759605Y-75350000D01*
X103857980Y-76448374D01*
X104020437Y-76380000D01*
X112561928Y-76380000D01*
X112561928Y-78180000D01*
X112574188Y-78304482D01*
X112610498Y-78424180D01*
X112669463Y-78534494D01*
X112748815Y-78631185D01*
X112845506Y-78710537D01*
X112955820Y-78769502D01*
X113075518Y-78805812D01*
X113200000Y-78818072D01*
X115000000Y-78818072D01*
X115124482Y-78805812D01*
X115244180Y-78769502D01*
X115354494Y-78710537D01*
X115451185Y-78631185D01*
X115530537Y-78534494D01*
X115589502Y-78424180D01*
X115595056Y-78405873D01*
X115661495Y-78472312D01*
X115912905Y-78640299D01*
X116192257Y-78756011D01*
X116488816Y-78815000D01*
X116791184Y-78815000D01*
X116901482Y-78793060D01*
X117015001Y-78906580D01*
X117015000Y-83005479D01*
X116985241Y-83025363D01*
X116785363Y-83225241D01*
X116628320Y-83460273D01*
X116520147Y-83721426D01*
X116465000Y-83998665D01*
X116465000Y-84281335D01*
X116520147Y-84558574D01*
X116628320Y-84819727D01*
X116785363Y-85054759D01*
X116985241Y-85254637D01*
X117187827Y-85390000D01*
X116985241Y-85525363D01*
X116785363Y-85725241D01*
X116628320Y-85960273D01*
X116520147Y-86221426D01*
X116465000Y-86498665D01*
X116465000Y-86781335D01*
X116520147Y-87058574D01*
X116628320Y-87319727D01*
X116785363Y-87554759D01*
X116985241Y-87754637D01*
X117220273Y-87911680D01*
X117481426Y-88019853D01*
X117758665Y-88075000D01*
X118041335Y-88075000D01*
X118318574Y-88019853D01*
X118579727Y-87911680D01*
X118814759Y-87754637D01*
X119014637Y-87554759D01*
X119171680Y-87319727D01*
X119279853Y-87058574D01*
X119335000Y-86781335D01*
X119335000Y-86498665D01*
X119279853Y-86221426D01*
X119171680Y-85960273D01*
X119014637Y-85725241D01*
X118814759Y-85525363D01*
X118612173Y-85390000D01*
X118814759Y-85254637D01*
X119014637Y-85054759D01*
X119171680Y-84819727D01*
X119279853Y-84558574D01*
X119335000Y-84281335D01*
X119335000Y-83998665D01*
X119279853Y-83721426D01*
X119171680Y-83460273D01*
X119014637Y-83225241D01*
X118814759Y-83025363D01*
X118785000Y-83005479D01*
X118785000Y-78766502D01*
X119028816Y-78815000D01*
X119331184Y-78815000D01*
X119627743Y-78756011D01*
X119907095Y-78640299D01*
X120158505Y-78472312D01*
X120372312Y-78258505D01*
X120450000Y-78142237D01*
X120527688Y-78258505D01*
X120741495Y-78472312D01*
X120992905Y-78640299D01*
X121272257Y-78756011D01*
X121568816Y-78815000D01*
X121871184Y-78815000D01*
X122167743Y-78756011D01*
X122447095Y-78640299D01*
X122698505Y-78472312D01*
X122912312Y-78258505D01*
X123080299Y-78007095D01*
X123196011Y-77727743D01*
X123255000Y-77431184D01*
X123255000Y-77128816D01*
X123196011Y-76832257D01*
X123080299Y-76552905D01*
X122912312Y-76301495D01*
X122818797Y-76207980D01*
X132391626Y-76207980D01*
X132511514Y-76492836D01*
X132835210Y-76653699D01*
X133184069Y-76748322D01*
X133544684Y-76773067D01*
X133903198Y-76726985D01*
X134245833Y-76611846D01*
X134468486Y-76492836D01*
X134588374Y-76207980D01*
X133490000Y-75109605D01*
X132391626Y-76207980D01*
X122818797Y-76207980D01*
X122698505Y-76087688D01*
X122447095Y-75919701D01*
X122167743Y-75803989D01*
X121871184Y-75745000D01*
X121568816Y-75745000D01*
X121272257Y-75803989D01*
X120992905Y-75919701D01*
X120741495Y-76087688D01*
X120527688Y-76301495D01*
X120450000Y-76417763D01*
X120372312Y-76301495D01*
X120158505Y-76087688D01*
X119907095Y-75919701D01*
X119627743Y-75803989D01*
X119331184Y-75745000D01*
X119028816Y-75745000D01*
X118732257Y-75803989D01*
X118452905Y-75919701D01*
X118201495Y-76087688D01*
X117987688Y-76301495D01*
X117910000Y-76417763D01*
X117832312Y-76301495D01*
X117618505Y-76087688D01*
X117367095Y-75919701D01*
X117087743Y-75803989D01*
X116791184Y-75745000D01*
X116488816Y-75745000D01*
X116192257Y-75803989D01*
X115912905Y-75919701D01*
X115661495Y-76087688D01*
X115595056Y-76154127D01*
X115589502Y-76135820D01*
X115530537Y-76025506D01*
X115451185Y-75928815D01*
X115354494Y-75849463D01*
X115244180Y-75790498D01*
X115124482Y-75754188D01*
X115000000Y-75741928D01*
X113200000Y-75741928D01*
X113075518Y-75754188D01*
X112955820Y-75790498D01*
X112845506Y-75849463D01*
X112748815Y-75928815D01*
X112669463Y-76025506D01*
X112610498Y-76135820D01*
X112574188Y-76255518D01*
X112561928Y-76380000D01*
X104020437Y-76380000D01*
X104142836Y-76328486D01*
X104303699Y-76004790D01*
X104398322Y-75655931D01*
X104423067Y-75295316D01*
X104383140Y-74984684D01*
X131646933Y-74984684D01*
X131693015Y-75343198D01*
X131808154Y-75685833D01*
X131927164Y-75908486D01*
X132212020Y-76028374D01*
X133310395Y-74930000D01*
X133669605Y-74930000D01*
X134767980Y-76028374D01*
X135052836Y-75908486D01*
X135213699Y-75584790D01*
X135308322Y-75235931D01*
X135333067Y-74875316D01*
X135286985Y-74516802D01*
X135171846Y-74174167D01*
X135052836Y-73951514D01*
X134767980Y-73831626D01*
X133669605Y-74930000D01*
X133310395Y-74930000D01*
X132212020Y-73831626D01*
X131927164Y-73951514D01*
X131766301Y-74275210D01*
X131671678Y-74624069D01*
X131646933Y-74984684D01*
X104383140Y-74984684D01*
X104376985Y-74936802D01*
X104261846Y-74594167D01*
X104142836Y-74371514D01*
X103857980Y-74251626D01*
X102759605Y-75350000D01*
X102400395Y-75350000D01*
X101302020Y-74251626D01*
X101017164Y-74371514D01*
X100856301Y-74695210D01*
X100761678Y-75044069D01*
X100736933Y-75404684D01*
X81588072Y-75404684D01*
X81588072Y-74072020D01*
X101481626Y-74072020D01*
X102580000Y-75170395D01*
X103678374Y-74072020D01*
X103558486Y-73787164D01*
X103234790Y-73626301D01*
X102885931Y-73531678D01*
X102525316Y-73506933D01*
X102166802Y-73553015D01*
X101824167Y-73668154D01*
X101601514Y-73787164D01*
X101481626Y-74072020D01*
X81588072Y-74072020D01*
X81588072Y-73650000D01*
X81575812Y-73525518D01*
X81539502Y-73405820D01*
X81480537Y-73295506D01*
X81401185Y-73198815D01*
X81304494Y-73119463D01*
X81194180Y-73060498D01*
X81074482Y-73024188D01*
X80950000Y-73011928D01*
X78550000Y-73011928D01*
X78425518Y-73024188D01*
X78305820Y-73060498D01*
X78195506Y-73119463D01*
X78098815Y-73198815D01*
X78019463Y-73295506D01*
X77960498Y-73405820D01*
X77924188Y-73525518D01*
X77911928Y-73650000D01*
X49450394Y-73650000D01*
X49618374Y-73482020D01*
X49498486Y-73197164D01*
X49174790Y-73036301D01*
X48825931Y-72941678D01*
X48465316Y-72916933D01*
X48106802Y-72963015D01*
X47764167Y-73078154D01*
X47541514Y-73197164D01*
X47421626Y-73482020D01*
X46635000Y-73482020D01*
X46635000Y-72896578D01*
X47933507Y-71598072D01*
X49720000Y-71598072D01*
X49844482Y-71585812D01*
X49964180Y-71549502D01*
X50074494Y-71490537D01*
X50171185Y-71411185D01*
X50250537Y-71314494D01*
X50309502Y-71204180D01*
X50345812Y-71084482D01*
X50358072Y-70960000D01*
X50358072Y-70645000D01*
X59573422Y-70645000D01*
X59796940Y-70868518D01*
X59775000Y-70978816D01*
X59775000Y-71281184D01*
X59833989Y-71577743D01*
X59949701Y-71857095D01*
X60117688Y-72108505D01*
X60331495Y-72322312D01*
X60582905Y-72490299D01*
X60862257Y-72606011D01*
X61158816Y-72665000D01*
X61461184Y-72665000D01*
X61757743Y-72606011D01*
X62037095Y-72490299D01*
X62288505Y-72322312D01*
X62502312Y-72108505D01*
X62583367Y-71987198D01*
X62718351Y-72167116D01*
X62942427Y-72367962D01*
X63201380Y-72521234D01*
X63485259Y-72621041D01*
X63723000Y-72500992D01*
X63723000Y-71257000D01*
X63703000Y-71257000D01*
X63703000Y-71003000D01*
X63723000Y-71003000D01*
X63723000Y-69759008D01*
X63977000Y-69759008D01*
X63977000Y-71003000D01*
X63997000Y-71003000D01*
X63997000Y-71257000D01*
X63977000Y-71257000D01*
X63977000Y-72500992D01*
X64214741Y-72621041D01*
X64498620Y-72521234D01*
X64757573Y-72367962D01*
X64981649Y-72167116D01*
X65116633Y-71987198D01*
X65197688Y-72108505D01*
X65411495Y-72322312D01*
X65662905Y-72490299D01*
X65942257Y-72606011D01*
X66238816Y-72665000D01*
X66541184Y-72665000D01*
X66837743Y-72606011D01*
X67117095Y-72490299D01*
X67368505Y-72322312D01*
X67582312Y-72108505D01*
X67750299Y-71857095D01*
X67866011Y-71577743D01*
X67925000Y-71281184D01*
X67925000Y-71127980D01*
X78651626Y-71127980D01*
X78771514Y-71412836D01*
X79095210Y-71573699D01*
X79444069Y-71668322D01*
X79804684Y-71693067D01*
X80163198Y-71646985D01*
X80505833Y-71531846D01*
X80728486Y-71412836D01*
X80848374Y-71127980D01*
X79750000Y-70029605D01*
X78651626Y-71127980D01*
X67925000Y-71127980D01*
X67925000Y-70978816D01*
X67866011Y-70682257D01*
X67750299Y-70402905D01*
X67582312Y-70151495D01*
X67368505Y-69937688D01*
X67319112Y-69904684D01*
X77906933Y-69904684D01*
X77953015Y-70263198D01*
X78068154Y-70605833D01*
X78187164Y-70828486D01*
X78472020Y-70948374D01*
X79570395Y-69850000D01*
X79929605Y-69850000D01*
X81027980Y-70948374D01*
X81312836Y-70828486D01*
X81473699Y-70504790D01*
X81568322Y-70155931D01*
X81593067Y-69795316D01*
X81546985Y-69436802D01*
X81431846Y-69094167D01*
X81312836Y-68871514D01*
X81027980Y-68751626D01*
X79929605Y-69850000D01*
X79570395Y-69850000D01*
X78472020Y-68751626D01*
X78187164Y-68871514D01*
X78026301Y-69195210D01*
X77931678Y-69544069D01*
X77906933Y-69904684D01*
X67319112Y-69904684D01*
X67117095Y-69769701D01*
X66837743Y-69653989D01*
X66541184Y-69595000D01*
X66238816Y-69595000D01*
X65942257Y-69653989D01*
X65662905Y-69769701D01*
X65411495Y-69937688D01*
X65197688Y-70151495D01*
X65116633Y-70272802D01*
X64981649Y-70092884D01*
X64757573Y-69892038D01*
X64498620Y-69738766D01*
X64214741Y-69638959D01*
X63977000Y-69759008D01*
X63723000Y-69759008D01*
X63485259Y-69638959D01*
X63201380Y-69738766D01*
X62942427Y-69892038D01*
X62718351Y-70092884D01*
X62583367Y-70272802D01*
X62502312Y-70151495D01*
X62288505Y-69937688D01*
X62037095Y-69769701D01*
X61757743Y-69653989D01*
X61461184Y-69595000D01*
X61158816Y-69595000D01*
X61048518Y-69616940D01*
X60596532Y-69164954D01*
X60568817Y-69131183D01*
X60434059Y-69020589D01*
X60280313Y-68938411D01*
X60113490Y-68887805D01*
X59983477Y-68875000D01*
X59983469Y-68875000D01*
X59940000Y-68870719D01*
X59896531Y-68875000D01*
X50976579Y-68875000D01*
X51279559Y-68572020D01*
X78651626Y-68572020D01*
X79750000Y-69670395D01*
X80848374Y-68572020D01*
X80728486Y-68287164D01*
X80404790Y-68126301D01*
X80055931Y-68031678D01*
X79695316Y-68006933D01*
X79336802Y-68053015D01*
X78994167Y-68168154D01*
X78771514Y-68287164D01*
X78651626Y-68572020D01*
X51279559Y-68572020D01*
X52116579Y-67735000D01*
X98713422Y-67735000D01*
X100741928Y-69763507D01*
X100741928Y-71550000D01*
X100754188Y-71674482D01*
X100790498Y-71794180D01*
X100849463Y-71904494D01*
X100928815Y-72001185D01*
X101025506Y-72080537D01*
X101135820Y-72139502D01*
X101255518Y-72175812D01*
X101380000Y-72188072D01*
X103780000Y-72188072D01*
X103904482Y-72175812D01*
X104024180Y-72139502D01*
X104134494Y-72080537D01*
X104231185Y-72001185D01*
X104310537Y-71904494D01*
X104369502Y-71794180D01*
X104405812Y-71674482D01*
X104418072Y-71550000D01*
X104418072Y-71235000D01*
X113173422Y-71235000D01*
X113856940Y-71918518D01*
X113835000Y-72028816D01*
X113835000Y-72331184D01*
X113893989Y-72627743D01*
X114009701Y-72907095D01*
X114177688Y-73158505D01*
X114391495Y-73372312D01*
X114642905Y-73540299D01*
X114922257Y-73656011D01*
X115218816Y-73715000D01*
X115521184Y-73715000D01*
X115817743Y-73656011D01*
X116097095Y-73540299D01*
X116348505Y-73372312D01*
X116562312Y-73158505D01*
X116643367Y-73037198D01*
X116778351Y-73217116D01*
X117002427Y-73417962D01*
X117261380Y-73571234D01*
X117545259Y-73671041D01*
X117783000Y-73550992D01*
X117783000Y-72307000D01*
X117763000Y-72307000D01*
X117763000Y-72053000D01*
X117783000Y-72053000D01*
X117783000Y-70809008D01*
X118037000Y-70809008D01*
X118037000Y-72053000D01*
X118057000Y-72053000D01*
X118057000Y-72307000D01*
X118037000Y-72307000D01*
X118037000Y-73550992D01*
X118274741Y-73671041D01*
X118558620Y-73571234D01*
X118817573Y-73417962D01*
X119041649Y-73217116D01*
X119176633Y-73037198D01*
X119257688Y-73158505D01*
X119471495Y-73372312D01*
X119722905Y-73540299D01*
X120002257Y-73656011D01*
X120298816Y-73715000D01*
X120601184Y-73715000D01*
X120897743Y-73656011D01*
X120907378Y-73652020D01*
X132391626Y-73652020D01*
X133490000Y-74750395D01*
X134588374Y-73652020D01*
X134468486Y-73367164D01*
X134144790Y-73206301D01*
X133795931Y-73111678D01*
X133435316Y-73086933D01*
X133076802Y-73133015D01*
X132734167Y-73248154D01*
X132511514Y-73367164D01*
X132391626Y-73652020D01*
X120907378Y-73652020D01*
X121177095Y-73540299D01*
X121428505Y-73372312D01*
X121642312Y-73158505D01*
X121810299Y-72907095D01*
X121926011Y-72627743D01*
X121985000Y-72331184D01*
X121985000Y-72028816D01*
X121926011Y-71732257D01*
X121810299Y-71452905D01*
X121642312Y-71201495D01*
X121428505Y-70987688D01*
X121177095Y-70819701D01*
X120897743Y-70703989D01*
X120601184Y-70645000D01*
X120298816Y-70645000D01*
X120002257Y-70703989D01*
X119722905Y-70819701D01*
X119471495Y-70987688D01*
X119257688Y-71201495D01*
X119176633Y-71322802D01*
X119041649Y-71142884D01*
X118817573Y-70942038D01*
X118558620Y-70788766D01*
X118274741Y-70688959D01*
X118037000Y-70809008D01*
X117783000Y-70809008D01*
X117545259Y-70688959D01*
X117261380Y-70788766D01*
X117002427Y-70942038D01*
X116778351Y-71142884D01*
X116643367Y-71322802D01*
X116562312Y-71201495D01*
X116348505Y-70987688D01*
X116097095Y-70819701D01*
X115817743Y-70703989D01*
X115521184Y-70645000D01*
X115218816Y-70645000D01*
X115108518Y-70666940D01*
X114196534Y-69754956D01*
X114168817Y-69721183D01*
X114034059Y-69610589D01*
X113880313Y-69528411D01*
X113713490Y-69477805D01*
X113583477Y-69465000D01*
X113583469Y-69465000D01*
X113540000Y-69460719D01*
X113496531Y-69465000D01*
X104418072Y-69465000D01*
X104418072Y-69150000D01*
X104405812Y-69025518D01*
X104369502Y-68905820D01*
X104310537Y-68795506D01*
X104256778Y-68730000D01*
X131651928Y-68730000D01*
X131651928Y-71130000D01*
X131664188Y-71254482D01*
X131700498Y-71374180D01*
X131759463Y-71484494D01*
X131838815Y-71581185D01*
X131935506Y-71660537D01*
X132045820Y-71719502D01*
X132165518Y-71755812D01*
X132290000Y-71768072D01*
X134690000Y-71768072D01*
X134814482Y-71755812D01*
X134934180Y-71719502D01*
X135044494Y-71660537D01*
X135141185Y-71581185D01*
X135220537Y-71484494D01*
X135279502Y-71374180D01*
X135315812Y-71254482D01*
X135328072Y-71130000D01*
X135328072Y-68730000D01*
X135315812Y-68605518D01*
X135279502Y-68485820D01*
X135220537Y-68375506D01*
X135141185Y-68278815D01*
X135044494Y-68199463D01*
X134934180Y-68140498D01*
X134814482Y-68104188D01*
X134690000Y-68091928D01*
X132290000Y-68091928D01*
X132165518Y-68104188D01*
X132045820Y-68140498D01*
X131935506Y-68199463D01*
X131838815Y-68278815D01*
X131759463Y-68375506D01*
X131700498Y-68485820D01*
X131664188Y-68605518D01*
X131651928Y-68730000D01*
X104256778Y-68730000D01*
X104231185Y-68698815D01*
X104134494Y-68619463D01*
X104024180Y-68560498D01*
X103904482Y-68524188D01*
X103780000Y-68511928D01*
X101993507Y-68511928D01*
X99736534Y-66254956D01*
X99708817Y-66221183D01*
X99574059Y-66110589D01*
X99420313Y-66028411D01*
X99253490Y-65977805D01*
X99123477Y-65965000D01*
X99123469Y-65965000D01*
X99080000Y-65960719D01*
X99036531Y-65965000D01*
X51793465Y-65965000D01*
X51749999Y-65960719D01*
X51706533Y-65965000D01*
X51706523Y-65965000D01*
X51576510Y-65977805D01*
X51409687Y-66028411D01*
X51255941Y-66110589D01*
X51255939Y-66110590D01*
X51255940Y-66110590D01*
X51154953Y-66193468D01*
X51154951Y-66193470D01*
X51121183Y-66221183D01*
X51093470Y-66254951D01*
X49426494Y-67921928D01*
X47320000Y-67921928D01*
X47195518Y-67934188D01*
X47075820Y-67970498D01*
X46965506Y-68029463D01*
X46868815Y-68108815D01*
X46789463Y-68205506D01*
X46730498Y-68315820D01*
X46694188Y-68435518D01*
X46681928Y-68560000D01*
X46681928Y-70346493D01*
X45154956Y-71873466D01*
X45121183Y-71901183D01*
X45010589Y-72035942D01*
X44928411Y-72189688D01*
X44877805Y-72356511D01*
X44865000Y-72486524D01*
X44865000Y-72486531D01*
X44860719Y-72530000D01*
X31626668Y-72530000D01*
X31633020Y-64154495D01*
X33265000Y-64154495D01*
X33265000Y-64545505D01*
X33341282Y-64929003D01*
X33490915Y-65290250D01*
X33708149Y-65615364D01*
X33984636Y-65891851D01*
X34309750Y-66109085D01*
X34670997Y-66258718D01*
X35054495Y-66335000D01*
X35445505Y-66335000D01*
X35829003Y-66258718D01*
X36190250Y-66109085D01*
X36515364Y-65891851D01*
X36791851Y-65615364D01*
X37009085Y-65290250D01*
X37158718Y-64929003D01*
X37235000Y-64545505D01*
X37235000Y-64154495D01*
X142265000Y-64154495D01*
X142265000Y-64545505D01*
X142341282Y-64929003D01*
X142490915Y-65290250D01*
X142708149Y-65615364D01*
X142984636Y-65891851D01*
X143309750Y-66109085D01*
X143670997Y-66258718D01*
X144054495Y-66335000D01*
X144445505Y-66335000D01*
X144829003Y-66258718D01*
X145190250Y-66109085D01*
X145515364Y-65891851D01*
X145791851Y-65615364D01*
X146009085Y-65290250D01*
X146158718Y-64929003D01*
X146235000Y-64545505D01*
X146235000Y-64154495D01*
X146158718Y-63770997D01*
X146009085Y-63409750D01*
X145791851Y-63084636D01*
X145515364Y-62808149D01*
X145190250Y-62590915D01*
X144829003Y-62441282D01*
X144445505Y-62365000D01*
X144054495Y-62365000D01*
X143670997Y-62441282D01*
X143309750Y-62590915D01*
X142984636Y-62808149D01*
X142708149Y-63084636D01*
X142490915Y-63409750D01*
X142341282Y-63770997D01*
X142265000Y-64154495D01*
X37235000Y-64154495D01*
X37158718Y-63770997D01*
X37009085Y-63409750D01*
X36791851Y-63084636D01*
X36515364Y-62808149D01*
X36190250Y-62590915D01*
X35829003Y-62441282D01*
X35445505Y-62365000D01*
X35054495Y-62365000D01*
X34670997Y-62441282D01*
X34309750Y-62590915D01*
X33984636Y-62808149D01*
X33708149Y-63084636D01*
X33490915Y-63409750D01*
X33341282Y-63770997D01*
X33265000Y-64154495D01*
X31633020Y-64154495D01*
X31635027Y-61508182D01*
X148171340Y-61445818D01*
X148074662Y-188873142D01*
G37*
%TD.AperFunction*%
%TD*%
M02*
